M48
; DRILL file {KiCad 9.0.4} date 2025-10-26T21:23:01-0600
; FORMAT={-:-/ absolute / metric / decimal}
; #@! TF.CreationDate,2025-10-26T21:23:01-06:00
; #@! TF.GenerationSoftware,Kicad,Pcbnew,9.0.4
; #@! TF.FileFunction,Plated,1,4,PTH
FMAT,2
METRIC
; #@! TA.AperFunction,Plated,PTH,ViaDrill
T1C0.330
; #@! TA.AperFunction,Plated,PTH,ViaDrill
T2C0.381
; #@! TA.AperFunction,Plated,PTH,ComponentDrill
T3C0.800
; #@! TA.AperFunction,Plated,PTH,ComponentDrill
T4C1.000
; #@! TA.AperFunction,Plated,PTH,ComponentDrill
T5C1.020
; #@! TA.AperFunction,Plated,PTH,ComponentDrill
T6C1.300
%
G90
G05
T1
X37.338Y-80.518
X46.736Y-49.53
X62.992Y-80.518
X84.074Y-58.42
X88.392Y-58.42
T2
X17.6Y-89.4
X17.8Y-74.2
X22.7Y-77.45
X24.55Y-36.9
X25.146Y-80.518
X25.146Y-89.662
X26.85Y-74.2
X29.6Y-36.9
X36.85Y-36.8
X37.55Y-64.85
X37.55Y-74.35
X37.55Y-77.8
X37.6Y-51.0
X41.05Y-25.5
X41.05Y-31.25
X41.95Y-74.676
X46.95Y-74.716
X51.5Y-91.1
X51.562Y-74.422
X51.562Y-82.042
X53.615Y-46.715
X53.615Y-67.331
X56.155Y-67.31
X60.1Y-50.8
X60.15Y-65.0
X62.5Y-91.05
X68.6Y-63.0
X68.65Y-70.75
X69.825Y-27.102
X70.358Y-52.07
X70.612Y-57.15
X75.2Y-25.9
X75.55Y-33.75
X77.419Y-29.21
X79.3Y-70.7
X79.3Y-81.15
X79.63Y-24.51
X81.331Y-83.617
X81.534Y-88.646
X86.32Y-44.918
X86.36Y-35.814
X88.86Y-35.854
X88.86Y-44.918
X92.2Y-38.15
X92.25Y-42.7
T3
X25.146Y-82.55
X25.146Y-87.55
X41.95Y-77.47
X46.95Y-77.47
X53.83Y-74.475
X53.83Y-79.475
X53.83Y-82.025
X53.83Y-87.025
X57.021Y-81.965
X57.021Y-85.115
X57.18Y-75.225
X57.18Y-78.375
X67.181Y-81.965
X67.181Y-85.115
X67.34Y-75.225
X67.34Y-78.375
X69.825Y-28.793
X69.825Y-33.793
X82.55Y-48.26
X82.55Y-50.8
X82.55Y-53.34
X82.55Y-55.88
X82.55Y-58.42
X82.55Y-60.96
X82.55Y-63.5
X82.55Y-66.04
X90.17Y-48.26
X90.17Y-50.8
X90.17Y-53.34
X90.17Y-55.88
X90.17Y-58.42
X90.17Y-60.96
X90.17Y-63.5
X90.17Y-66.04
T4
X29.21Y-80.01
X29.21Y-82.55
X29.21Y-85.09
X45.7Y-26.24
X45.7Y-28.78
X45.7Y-31.32
X45.7Y-33.86
X45.7Y-36.4
X45.7Y-38.94
X65.7Y-28.78
X65.7Y-31.32
X65.7Y-33.86
X65.7Y-36.4
X71.16Y-78.7
X71.16Y-81.24
X73.66Y-52.07
X73.66Y-57.07
X73.7Y-78.7
X73.7Y-81.24
X83.78Y-38.14
X83.78Y-42.73
X86.32Y-38.14
X86.32Y-42.73
X88.86Y-38.14
X88.86Y-42.73
T5
X20.595Y-44.45
X20.595Y-69.85
X23.135Y-44.45
X23.135Y-69.85
X25.675Y-44.45
X25.675Y-69.85
X28.215Y-44.45
X28.215Y-69.85
X30.755Y-44.45
X30.755Y-69.85
X33.295Y-44.45
X33.295Y-69.85
X35.835Y-44.45
X35.835Y-69.85
X38.375Y-44.45
X38.375Y-69.85
X40.915Y-44.45
X40.915Y-69.85
X43.455Y-44.45
X43.455Y-69.85
X45.995Y-44.45
X45.995Y-69.85
X48.535Y-44.45
X48.535Y-69.85
X51.075Y-44.45
X51.075Y-69.85
X53.615Y-44.45
X53.615Y-69.85
X56.155Y-44.45
X56.155Y-69.85
T6
X19.1Y-29.2
X24.1Y-29.2
X30.56Y-29.21
X35.56Y-29.21
X36.91Y-85.09
X41.91Y-85.09
X46.91Y-85.09
X85.725Y-83.617
X85.725Y-88.617
X85.727Y-72.43
X85.727Y-77.43
T4
X80.614Y-30.21G85X80.614Y-28.21
G05
X84.614Y-24.51G85X82.614Y-24.51
G05
X86.614Y-30.21G85X86.614Y-28.21
G05
M30
