%TF.GenerationSoftware,KiCad,Pcbnew,9.0.4*%
%TF.CreationDate,2025-10-26T21:23:01-06:00*%
%TF.ProjectId,Conveyor,436f6e76-6579-46f7-922e-6b696361645f,rev?*%
%TF.SameCoordinates,Original*%
%TF.FileFunction,Drillmap*%
%TF.FilePolarity,Positive*%
%FSLAX45Y45*%
G04 Gerber Fmt 4.5, Leading zero omitted, Abs format (unit mm)*
G04 Created by KiCad (PCBNEW 9.0.4) date 2025-10-26 21:23:01*
%MOMM*%
%LPD*%
G01*
G04 APERTURE LIST*
%ADD10C,0.254000*%
%ADD11C,0.200000*%
%ADD12C,0.100000*%
%ADD13C,0.102000*%
%ADD14C,0.130000*%
G04 APERTURE END LIST*
D10*
X1397000Y-2159000D02*
X9448800Y-2159000D01*
X9448800Y-9321800D01*
X1397000Y-9321800D01*
X1397000Y-2159000D01*
D11*
D12*
X3717290Y-8035290D02*
X3750310Y-8068310D01*
X3750310Y-8035290D02*
X3717290Y-8068310D01*
X4657090Y-4936490D02*
X4690110Y-4969510D01*
X4690110Y-4936490D02*
X4657090Y-4969510D01*
X6282690Y-8035290D02*
X6315710Y-8068310D01*
X6315710Y-8035290D02*
X6282690Y-8068310D01*
X8390890Y-5825490D02*
X8423910Y-5858510D01*
X8423910Y-5825490D02*
X8390890Y-5858510D01*
X8822690Y-5825490D02*
X8855710Y-5858510D01*
X8855710Y-5825490D02*
X8822690Y-5858510D01*
X1779050Y-8940000D02*
G75*
G02*
X1740950Y-8940000I-19050J0D01*
G01*
X1740950Y-8940000D02*
G75*
G02*
X1779050Y-8940000I19050J0D01*
G01*
X1799050Y-7420000D02*
G75*
G02*
X1760950Y-7420000I-19050J0D01*
G01*
X1760950Y-7420000D02*
G75*
G02*
X1799050Y-7420000I19050J0D01*
G01*
X2289050Y-7745000D02*
G75*
G02*
X2250950Y-7745000I-19050J0D01*
G01*
X2250950Y-7745000D02*
G75*
G02*
X2289050Y-7745000I19050J0D01*
G01*
X2474050Y-3690000D02*
G75*
G02*
X2435950Y-3690000I-19050J0D01*
G01*
X2435950Y-3690000D02*
G75*
G02*
X2474050Y-3690000I19050J0D01*
G01*
X2533650Y-8051800D02*
G75*
G02*
X2495550Y-8051800I-19050J0D01*
G01*
X2495550Y-8051800D02*
G75*
G02*
X2533650Y-8051800I19050J0D01*
G01*
X2533650Y-8966200D02*
G75*
G02*
X2495550Y-8966200I-19050J0D01*
G01*
X2495550Y-8966200D02*
G75*
G02*
X2533650Y-8966200I19050J0D01*
G01*
X2704050Y-7420000D02*
G75*
G02*
X2665950Y-7420000I-19050J0D01*
G01*
X2665950Y-7420000D02*
G75*
G02*
X2704050Y-7420000I19050J0D01*
G01*
X2979050Y-3690000D02*
G75*
G02*
X2940950Y-3690000I-19050J0D01*
G01*
X2940950Y-3690000D02*
G75*
G02*
X2979050Y-3690000I19050J0D01*
G01*
X3704050Y-3680000D02*
G75*
G02*
X3665950Y-3680000I-19050J0D01*
G01*
X3665950Y-3680000D02*
G75*
G02*
X3704050Y-3680000I19050J0D01*
G01*
X3774050Y-6485000D02*
G75*
G02*
X3735950Y-6485000I-19050J0D01*
G01*
X3735950Y-6485000D02*
G75*
G02*
X3774050Y-6485000I19050J0D01*
G01*
X3774050Y-7435000D02*
G75*
G02*
X3735950Y-7435000I-19050J0D01*
G01*
X3735950Y-7435000D02*
G75*
G02*
X3774050Y-7435000I19050J0D01*
G01*
X3774050Y-7780000D02*
G75*
G02*
X3735950Y-7780000I-19050J0D01*
G01*
X3735950Y-7780000D02*
G75*
G02*
X3774050Y-7780000I19050J0D01*
G01*
X3779050Y-5100000D02*
G75*
G02*
X3740950Y-5100000I-19050J0D01*
G01*
X3740950Y-5100000D02*
G75*
G02*
X3779050Y-5100000I19050J0D01*
G01*
X4124050Y-2550000D02*
G75*
G02*
X4085950Y-2550000I-19050J0D01*
G01*
X4085950Y-2550000D02*
G75*
G02*
X4124050Y-2550000I19050J0D01*
G01*
X4124050Y-3125000D02*
G75*
G02*
X4085950Y-3125000I-19050J0D01*
G01*
X4085950Y-3125000D02*
G75*
G02*
X4124050Y-3125000I19050J0D01*
G01*
X4214050Y-7467600D02*
G75*
G02*
X4175950Y-7467600I-19050J0D01*
G01*
X4175950Y-7467600D02*
G75*
G02*
X4214050Y-7467600I19050J0D01*
G01*
X4714050Y-7471600D02*
G75*
G02*
X4675950Y-7471600I-19050J0D01*
G01*
X4675950Y-7471600D02*
G75*
G02*
X4714050Y-7471600I19050J0D01*
G01*
X5169050Y-9110000D02*
G75*
G02*
X5130950Y-9110000I-19050J0D01*
G01*
X5130950Y-9110000D02*
G75*
G02*
X5169050Y-9110000I19050J0D01*
G01*
X5175250Y-7442200D02*
G75*
G02*
X5137150Y-7442200I-19050J0D01*
G01*
X5137150Y-7442200D02*
G75*
G02*
X5175250Y-7442200I19050J0D01*
G01*
X5175250Y-8204200D02*
G75*
G02*
X5137150Y-8204200I-19050J0D01*
G01*
X5137150Y-8204200D02*
G75*
G02*
X5175250Y-8204200I19050J0D01*
G01*
X5380550Y-4671500D02*
G75*
G02*
X5342450Y-4671500I-19050J0D01*
G01*
X5342450Y-4671500D02*
G75*
G02*
X5380550Y-4671500I19050J0D01*
G01*
X5380550Y-6733100D02*
G75*
G02*
X5342450Y-6733100I-19050J0D01*
G01*
X5342450Y-6733100D02*
G75*
G02*
X5380550Y-6733100I19050J0D01*
G01*
X5634550Y-6731000D02*
G75*
G02*
X5596450Y-6731000I-19050J0D01*
G01*
X5596450Y-6731000D02*
G75*
G02*
X5634550Y-6731000I19050J0D01*
G01*
X6029050Y-5080000D02*
G75*
G02*
X5990950Y-5080000I-19050J0D01*
G01*
X5990950Y-5080000D02*
G75*
G02*
X6029050Y-5080000I19050J0D01*
G01*
X6034050Y-6500000D02*
G75*
G02*
X5995950Y-6500000I-19050J0D01*
G01*
X5995950Y-6500000D02*
G75*
G02*
X6034050Y-6500000I19050J0D01*
G01*
X6269050Y-9105000D02*
G75*
G02*
X6230950Y-9105000I-19050J0D01*
G01*
X6230950Y-9105000D02*
G75*
G02*
X6269050Y-9105000I19050J0D01*
G01*
X6879050Y-6300000D02*
G75*
G02*
X6840950Y-6300000I-19050J0D01*
G01*
X6840950Y-6300000D02*
G75*
G02*
X6879050Y-6300000I19050J0D01*
G01*
X6884050Y-7075000D02*
G75*
G02*
X6845950Y-7075000I-19050J0D01*
G01*
X6845950Y-7075000D02*
G75*
G02*
X6884050Y-7075000I19050J0D01*
G01*
X7001510Y-2710180D02*
G75*
G02*
X6963410Y-2710180I-19050J0D01*
G01*
X6963410Y-2710180D02*
G75*
G02*
X7001510Y-2710180I19050J0D01*
G01*
X7054850Y-5207000D02*
G75*
G02*
X7016750Y-5207000I-19050J0D01*
G01*
X7016750Y-5207000D02*
G75*
G02*
X7054850Y-5207000I19050J0D01*
G01*
X7080250Y-5715000D02*
G75*
G02*
X7042150Y-5715000I-19050J0D01*
G01*
X7042150Y-5715000D02*
G75*
G02*
X7080250Y-5715000I19050J0D01*
G01*
X7539050Y-2590000D02*
G75*
G02*
X7500950Y-2590000I-19050J0D01*
G01*
X7500950Y-2590000D02*
G75*
G02*
X7539050Y-2590000I19050J0D01*
G01*
X7574050Y-3375000D02*
G75*
G02*
X7535950Y-3375000I-19050J0D01*
G01*
X7535950Y-3375000D02*
G75*
G02*
X7574050Y-3375000I19050J0D01*
G01*
X7760970Y-2921000D02*
G75*
G02*
X7722870Y-2921000I-19050J0D01*
G01*
X7722870Y-2921000D02*
G75*
G02*
X7760970Y-2921000I19050J0D01*
G01*
X7949050Y-7070000D02*
G75*
G02*
X7910950Y-7070000I-19050J0D01*
G01*
X7910950Y-7070000D02*
G75*
G02*
X7949050Y-7070000I19050J0D01*
G01*
X7949050Y-8115000D02*
G75*
G02*
X7910950Y-8115000I-19050J0D01*
G01*
X7910950Y-8115000D02*
G75*
G02*
X7949050Y-8115000I19050J0D01*
G01*
X7982050Y-2451000D02*
G75*
G02*
X7943950Y-2451000I-19050J0D01*
G01*
X7943950Y-2451000D02*
G75*
G02*
X7982050Y-2451000I19050J0D01*
G01*
X8152130Y-8361680D02*
G75*
G02*
X8114030Y-8361680I-19050J0D01*
G01*
X8114030Y-8361680D02*
G75*
G02*
X8152130Y-8361680I19050J0D01*
G01*
X8172450Y-8864600D02*
G75*
G02*
X8134350Y-8864600I-19050J0D01*
G01*
X8134350Y-8864600D02*
G75*
G02*
X8172450Y-8864600I19050J0D01*
G01*
X8651050Y-4491800D02*
G75*
G02*
X8612950Y-4491800I-19050J0D01*
G01*
X8612950Y-4491800D02*
G75*
G02*
X8651050Y-4491800I19050J0D01*
G01*
X8655050Y-3581400D02*
G75*
G02*
X8616950Y-3581400I-19050J0D01*
G01*
X8616950Y-3581400D02*
G75*
G02*
X8655050Y-3581400I19050J0D01*
G01*
X8905050Y-3585400D02*
G75*
G02*
X8866950Y-3585400I-19050J0D01*
G01*
X8866950Y-3585400D02*
G75*
G02*
X8905050Y-3585400I19050J0D01*
G01*
X8905050Y-4491800D02*
G75*
G02*
X8866950Y-4491800I-19050J0D01*
G01*
X8866950Y-4491800D02*
G75*
G02*
X8905050Y-4491800I19050J0D01*
G01*
X9239050Y-3815000D02*
G75*
G02*
X9200950Y-3815000I-19050J0D01*
G01*
X9200950Y-3815000D02*
G75*
G02*
X9239050Y-3815000I19050J0D01*
G01*
X9244050Y-4270000D02*
G75*
G02*
X9205950Y-4270000I-19050J0D01*
G01*
X9205950Y-4270000D02*
G75*
G02*
X9244050Y-4270000I19050J0D01*
G01*
X2514600Y-8215000D02*
X2514600Y-8295000D01*
X2474600Y-8255000D02*
X2554600Y-8255000D01*
X2514600Y-8715000D02*
X2514600Y-8795000D01*
X2474600Y-8755000D02*
X2554600Y-8755000D01*
X4195000Y-7707000D02*
X4195000Y-7787000D01*
X4155000Y-7747000D02*
X4235000Y-7747000D01*
X4695000Y-7707000D02*
X4695000Y-7787000D01*
X4655000Y-7747000D02*
X4735000Y-7747000D01*
X5383000Y-7407500D02*
X5383000Y-7487500D01*
X5343000Y-7447500D02*
X5423000Y-7447500D01*
X5383000Y-7907500D02*
X5383000Y-7987500D01*
X5343000Y-7947500D02*
X5423000Y-7947500D01*
X5383000Y-8162500D02*
X5383000Y-8242500D01*
X5343000Y-8202500D02*
X5423000Y-8202500D01*
X5383000Y-8662500D02*
X5383000Y-8742500D01*
X5343000Y-8702500D02*
X5423000Y-8702500D01*
X5702114Y-8156500D02*
X5702114Y-8236500D01*
X5662114Y-8196500D02*
X5742114Y-8196500D01*
X5702114Y-8471500D02*
X5702114Y-8551500D01*
X5662114Y-8511500D02*
X5742114Y-8511500D01*
X5718000Y-7482500D02*
X5718000Y-7562500D01*
X5678000Y-7522500D02*
X5758000Y-7522500D01*
X5718000Y-7797500D02*
X5718000Y-7877500D01*
X5678000Y-7837500D02*
X5758000Y-7837500D01*
X6718114Y-8156500D02*
X6718114Y-8236500D01*
X6678114Y-8196500D02*
X6758114Y-8196500D01*
X6718114Y-8471500D02*
X6718114Y-8551500D01*
X6678114Y-8511500D02*
X6758114Y-8511500D01*
X6734000Y-7482500D02*
X6734000Y-7562500D01*
X6694000Y-7522500D02*
X6774000Y-7522500D01*
X6734000Y-7797500D02*
X6734000Y-7877500D01*
X6694000Y-7837500D02*
X6774000Y-7837500D01*
X6982460Y-2839280D02*
X6982460Y-2919280D01*
X6942460Y-2879280D02*
X7022460Y-2879280D01*
X6982460Y-3339280D02*
X6982460Y-3419280D01*
X6942460Y-3379280D02*
X7022460Y-3379280D01*
X8255000Y-4786000D02*
X8255000Y-4866000D01*
X8215000Y-4826000D02*
X8295000Y-4826000D01*
X8255000Y-5040000D02*
X8255000Y-5120000D01*
X8215000Y-5080000D02*
X8295000Y-5080000D01*
X8255000Y-5294000D02*
X8255000Y-5374000D01*
X8215000Y-5334000D02*
X8295000Y-5334000D01*
X8255000Y-5548000D02*
X8255000Y-5628000D01*
X8215000Y-5588000D02*
X8295000Y-5588000D01*
X8255000Y-5802000D02*
X8255000Y-5882000D01*
X8215000Y-5842000D02*
X8295000Y-5842000D01*
X8255000Y-6056000D02*
X8255000Y-6136000D01*
X8215000Y-6096000D02*
X8295000Y-6096000D01*
X8255000Y-6310000D02*
X8255000Y-6390000D01*
X8215000Y-6350000D02*
X8295000Y-6350000D01*
X8255000Y-6564000D02*
X8255000Y-6644000D01*
X8215000Y-6604000D02*
X8295000Y-6604000D01*
X9017000Y-4786000D02*
X9017000Y-4866000D01*
X8977000Y-4826000D02*
X9057000Y-4826000D01*
X9017000Y-5040000D02*
X9017000Y-5120000D01*
X8977000Y-5080000D02*
X9057000Y-5080000D01*
X9017000Y-5294000D02*
X9017000Y-5374000D01*
X8977000Y-5334000D02*
X9057000Y-5334000D01*
X9017000Y-5548000D02*
X9017000Y-5628000D01*
X8977000Y-5588000D02*
X9057000Y-5588000D01*
X9017000Y-5802000D02*
X9017000Y-5882000D01*
X8977000Y-5842000D02*
X9057000Y-5842000D01*
X9017000Y-6056000D02*
X9017000Y-6136000D01*
X8977000Y-6096000D02*
X9057000Y-6096000D01*
X9017000Y-6310000D02*
X9017000Y-6390000D01*
X8977000Y-6350000D02*
X9057000Y-6350000D01*
X9017000Y-6564000D02*
X9017000Y-6644000D01*
X8977000Y-6604000D02*
X9057000Y-6604000D01*
X2956356Y-8036356D02*
X2956356Y-7965644D01*
X2885644Y-7965644D01*
X2885644Y-8036356D01*
X2956356Y-8036356D01*
X2956356Y-8290356D02*
X2956356Y-8219644D01*
X2885644Y-8219644D01*
X2885644Y-8290356D01*
X2956356Y-8290356D01*
X2956356Y-8544356D02*
X2956356Y-8473644D01*
X2885644Y-8473644D01*
X2885644Y-8544356D01*
X2956356Y-8544356D01*
X4605356Y-2659356D02*
X4605356Y-2588644D01*
X4534644Y-2588644D01*
X4534644Y-2659356D01*
X4605356Y-2659356D01*
X4605356Y-2913356D02*
X4605356Y-2842644D01*
X4534644Y-2842644D01*
X4534644Y-2913356D01*
X4605356Y-2913356D01*
X4605356Y-3167356D02*
X4605356Y-3096644D01*
X4534644Y-3096644D01*
X4534644Y-3167356D01*
X4605356Y-3167356D01*
X4605356Y-3421356D02*
X4605356Y-3350644D01*
X4534644Y-3350644D01*
X4534644Y-3421356D01*
X4605356Y-3421356D01*
X4605356Y-3675356D02*
X4605356Y-3604644D01*
X4534644Y-3604644D01*
X4534644Y-3675356D01*
X4605356Y-3675356D01*
X4605356Y-3929356D02*
X4605356Y-3858644D01*
X4534644Y-3858644D01*
X4534644Y-3929356D01*
X4605356Y-3929356D01*
X6605356Y-2913356D02*
X6605356Y-2842644D01*
X6534644Y-2842644D01*
X6534644Y-2913356D01*
X6605356Y-2913356D01*
X6605356Y-3167356D02*
X6605356Y-3096644D01*
X6534644Y-3096644D01*
X6534644Y-3167356D01*
X6605356Y-3167356D01*
X6605356Y-3421356D02*
X6605356Y-3350644D01*
X6534644Y-3350644D01*
X6534644Y-3421356D01*
X6605356Y-3421356D01*
X6605356Y-3675356D02*
X6605356Y-3604644D01*
X6534644Y-3604644D01*
X6534644Y-3675356D01*
X6605356Y-3675356D01*
X7151356Y-7905356D02*
X7151356Y-7834644D01*
X7080644Y-7834644D01*
X7080644Y-7905356D01*
X7151356Y-7905356D01*
X7151356Y-8159356D02*
X7151356Y-8088644D01*
X7080644Y-8088644D01*
X7080644Y-8159356D01*
X7151356Y-8159356D01*
X7401356Y-5242356D02*
X7401356Y-5171644D01*
X7330644Y-5171644D01*
X7330644Y-5242356D01*
X7401356Y-5242356D01*
X7401356Y-5742356D02*
X7401356Y-5671644D01*
X7330644Y-5671644D01*
X7330644Y-5742356D01*
X7401356Y-5742356D01*
X7405356Y-7905356D02*
X7405356Y-7834644D01*
X7334644Y-7834644D01*
X7334644Y-7905356D01*
X7405356Y-7905356D01*
X7405356Y-8159356D02*
X7405356Y-8088644D01*
X7334644Y-8088644D01*
X7334644Y-8159356D01*
X7405356Y-8159356D01*
X8096756Y-2956356D02*
X8096756Y-2885644D01*
X8026044Y-2885644D01*
X8026044Y-2956356D01*
X8096756Y-2956356D01*
X8111400Y-3021000D02*
X8111400Y-2821000D01*
X8011400Y-2821000D02*
G75*
G02*
X8111400Y-2821000I50000J0D01*
G01*
X8011400Y-2821000D02*
X8011400Y-3021000D01*
X8011400Y-3021000D02*
G75*
G03*
X8111400Y-3021000I50000J0D01*
G01*
X8396756Y-2486356D02*
X8396756Y-2415644D01*
X8326044Y-2415644D01*
X8326044Y-2486356D01*
X8396756Y-2486356D01*
X8461400Y-2401000D02*
X8261400Y-2401000D01*
X8261400Y-2501000D02*
G75*
G02*
X8261400Y-2401000I0J50000D01*
G01*
X8261400Y-2501000D02*
X8461400Y-2501000D01*
X8461400Y-2501000D02*
G75*
G03*
X8461400Y-2401000I0J50000D01*
G01*
X8413356Y-3849356D02*
X8413356Y-3778644D01*
X8342644Y-3778644D01*
X8342644Y-3849356D01*
X8413356Y-3849356D01*
X8413356Y-4308356D02*
X8413356Y-4237644D01*
X8342644Y-4237644D01*
X8342644Y-4308356D01*
X8413356Y-4308356D01*
X8667356Y-3849356D02*
X8667356Y-3778644D01*
X8596644Y-3778644D01*
X8596644Y-3849356D01*
X8667356Y-3849356D01*
X8667356Y-4308356D02*
X8667356Y-4237644D01*
X8596644Y-4237644D01*
X8596644Y-4308356D01*
X8667356Y-4308356D01*
X8696756Y-2956356D02*
X8696756Y-2885644D01*
X8626044Y-2885644D01*
X8626044Y-2956356D01*
X8696756Y-2956356D01*
X8711400Y-3021000D02*
X8711400Y-2821000D01*
X8611400Y-2821000D02*
G75*
G02*
X8711400Y-2821000I50000J0D01*
G01*
X8611400Y-2821000D02*
X8611400Y-3021000D01*
X8611400Y-3021000D02*
G75*
G03*
X8711400Y-3021000I50000J0D01*
G01*
X8921356Y-3849356D02*
X8921356Y-3778644D01*
X8850644Y-3778644D01*
X8850644Y-3849356D01*
X8921356Y-3849356D01*
X8921356Y-4308356D02*
X8921356Y-4237644D01*
X8850644Y-4237644D01*
X8850644Y-4308356D01*
X8921356Y-4308356D01*
D13*
X2059500Y-4496000D02*
X2110500Y-4445000D01*
X2059500Y-4394000D01*
X2008500Y-4445000D01*
X2059500Y-4496000D01*
X2059500Y-7036000D02*
X2110500Y-6985000D01*
X2059500Y-6934000D01*
X2008500Y-6985000D01*
X2059500Y-7036000D01*
X2313500Y-4496000D02*
X2364500Y-4445000D01*
X2313500Y-4394000D01*
X2262500Y-4445000D01*
X2313500Y-4496000D01*
X2313500Y-7036000D02*
X2364500Y-6985000D01*
X2313500Y-6934000D01*
X2262500Y-6985000D01*
X2313500Y-7036000D01*
X2567500Y-4496000D02*
X2618500Y-4445000D01*
X2567500Y-4394000D01*
X2516500Y-4445000D01*
X2567500Y-4496000D01*
X2567500Y-7036000D02*
X2618500Y-6985000D01*
X2567500Y-6934000D01*
X2516500Y-6985000D01*
X2567500Y-7036000D01*
X2821500Y-4496000D02*
X2872500Y-4445000D01*
X2821500Y-4394000D01*
X2770500Y-4445000D01*
X2821500Y-4496000D01*
X2821500Y-7036000D02*
X2872500Y-6985000D01*
X2821500Y-6934000D01*
X2770500Y-6985000D01*
X2821500Y-7036000D01*
X3075500Y-4496000D02*
X3126500Y-4445000D01*
X3075500Y-4394000D01*
X3024500Y-4445000D01*
X3075500Y-4496000D01*
X3075500Y-7036000D02*
X3126500Y-6985000D01*
X3075500Y-6934000D01*
X3024500Y-6985000D01*
X3075500Y-7036000D01*
X3329500Y-4496000D02*
X3380500Y-4445000D01*
X3329500Y-4394000D01*
X3278500Y-4445000D01*
X3329500Y-4496000D01*
X3329500Y-7036000D02*
X3380500Y-6985000D01*
X3329500Y-6934000D01*
X3278500Y-6985000D01*
X3329500Y-7036000D01*
X3583500Y-4496000D02*
X3634500Y-4445000D01*
X3583500Y-4394000D01*
X3532500Y-4445000D01*
X3583500Y-4496000D01*
X3583500Y-7036000D02*
X3634500Y-6985000D01*
X3583500Y-6934000D01*
X3532500Y-6985000D01*
X3583500Y-7036000D01*
X3837500Y-4496000D02*
X3888500Y-4445000D01*
X3837500Y-4394000D01*
X3786500Y-4445000D01*
X3837500Y-4496000D01*
X3837500Y-7036000D02*
X3888500Y-6985000D01*
X3837500Y-6934000D01*
X3786500Y-6985000D01*
X3837500Y-7036000D01*
X4091500Y-4496000D02*
X4142500Y-4445000D01*
X4091500Y-4394000D01*
X4040500Y-4445000D01*
X4091500Y-4496000D01*
X4091500Y-7036000D02*
X4142500Y-6985000D01*
X4091500Y-6934000D01*
X4040500Y-6985000D01*
X4091500Y-7036000D01*
X4345500Y-4496000D02*
X4396500Y-4445000D01*
X4345500Y-4394000D01*
X4294500Y-4445000D01*
X4345500Y-4496000D01*
X4345500Y-7036000D02*
X4396500Y-6985000D01*
X4345500Y-6934000D01*
X4294500Y-6985000D01*
X4345500Y-7036000D01*
X4599500Y-4496000D02*
X4650500Y-4445000D01*
X4599500Y-4394000D01*
X4548500Y-4445000D01*
X4599500Y-4496000D01*
X4599500Y-7036000D02*
X4650500Y-6985000D01*
X4599500Y-6934000D01*
X4548500Y-6985000D01*
X4599500Y-7036000D01*
X4853500Y-4496000D02*
X4904500Y-4445000D01*
X4853500Y-4394000D01*
X4802500Y-4445000D01*
X4853500Y-4496000D01*
X4853500Y-7036000D02*
X4904500Y-6985000D01*
X4853500Y-6934000D01*
X4802500Y-6985000D01*
X4853500Y-7036000D01*
X5107500Y-4496000D02*
X5158500Y-4445000D01*
X5107500Y-4394000D01*
X5056500Y-4445000D01*
X5107500Y-4496000D01*
X5107500Y-7036000D02*
X5158500Y-6985000D01*
X5107500Y-6934000D01*
X5056500Y-6985000D01*
X5107500Y-7036000D01*
X5361500Y-4496000D02*
X5412500Y-4445000D01*
X5361500Y-4394000D01*
X5310500Y-4445000D01*
X5361500Y-4496000D01*
X5361500Y-7036000D02*
X5412500Y-6985000D01*
X5361500Y-6934000D01*
X5310500Y-6985000D01*
X5361500Y-7036000D01*
X5615500Y-4496000D02*
X5666500Y-4445000D01*
X5615500Y-4394000D01*
X5564500Y-4445000D01*
X5615500Y-4496000D01*
X5615500Y-7036000D02*
X5666500Y-6985000D01*
X5615500Y-6934000D01*
X5564500Y-6985000D01*
X5615500Y-7036000D01*
D14*
X1845000Y-2855000D02*
X1975000Y-2985000D01*
X1975000Y-2855000D02*
X1845000Y-2985000D01*
X1975000Y-2920000D02*
G75*
G02*
X1845000Y-2920000I-65000J0D01*
G01*
X1845000Y-2920000D02*
G75*
G02*
X1975000Y-2920000I65000J0D01*
G01*
X2345000Y-2855000D02*
X2475000Y-2985000D01*
X2475000Y-2855000D02*
X2345000Y-2985000D01*
X2475000Y-2920000D02*
G75*
G02*
X2345000Y-2920000I-65000J0D01*
G01*
X2345000Y-2920000D02*
G75*
G02*
X2475000Y-2920000I65000J0D01*
G01*
X2991000Y-2856000D02*
X3121000Y-2986000D01*
X3121000Y-2856000D02*
X2991000Y-2986000D01*
X3121000Y-2921000D02*
G75*
G02*
X2991000Y-2921000I-65000J0D01*
G01*
X2991000Y-2921000D02*
G75*
G02*
X3121000Y-2921000I65000J0D01*
G01*
X3491000Y-2856000D02*
X3621000Y-2986000D01*
X3621000Y-2856000D02*
X3491000Y-2986000D01*
X3621000Y-2921000D02*
G75*
G02*
X3491000Y-2921000I-65000J0D01*
G01*
X3491000Y-2921000D02*
G75*
G02*
X3621000Y-2921000I65000J0D01*
G01*
X3626000Y-8444000D02*
X3756000Y-8574000D01*
X3756000Y-8444000D02*
X3626000Y-8574000D01*
X3756000Y-8509000D02*
G75*
G02*
X3626000Y-8509000I-65000J0D01*
G01*
X3626000Y-8509000D02*
G75*
G02*
X3756000Y-8509000I65000J0D01*
G01*
X4126000Y-8444000D02*
X4256000Y-8574000D01*
X4256000Y-8444000D02*
X4126000Y-8574000D01*
X4256000Y-8509000D02*
G75*
G02*
X4126000Y-8509000I-65000J0D01*
G01*
X4126000Y-8509000D02*
G75*
G02*
X4256000Y-8509000I65000J0D01*
G01*
X4626000Y-8444000D02*
X4756000Y-8574000D01*
X4756000Y-8444000D02*
X4626000Y-8574000D01*
X4756000Y-8509000D02*
G75*
G02*
X4626000Y-8509000I-65000J0D01*
G01*
X4626000Y-8509000D02*
G75*
G02*
X4756000Y-8509000I65000J0D01*
G01*
X8507500Y-8296680D02*
X8637500Y-8426680D01*
X8637500Y-8296680D02*
X8507500Y-8426680D01*
X8637500Y-8361680D02*
G75*
G02*
X8507500Y-8361680I-65000J0D01*
G01*
X8507500Y-8361680D02*
G75*
G02*
X8637500Y-8361680I65000J0D01*
G01*
X8507500Y-8796680D02*
X8637500Y-8926680D01*
X8637500Y-8796680D02*
X8507500Y-8926680D01*
X8637500Y-8861680D02*
G75*
G02*
X8507500Y-8861680I-65000J0D01*
G01*
X8507500Y-8861680D02*
G75*
G02*
X8637500Y-8861680I65000J0D01*
G01*
X8507750Y-7178000D02*
X8637750Y-7308000D01*
X8637750Y-7178000D02*
X8507750Y-7308000D01*
X8637750Y-7243000D02*
G75*
G02*
X8507750Y-7243000I-65000J0D01*
G01*
X8507750Y-7243000D02*
G75*
G02*
X8637750Y-7243000I65000J0D01*
G01*
X8507750Y-7678000D02*
X8637750Y-7808000D01*
X8637750Y-7678000D02*
X8507750Y-7808000D01*
X8637750Y-7743000D02*
G75*
G02*
X8507750Y-7743000I-65000J0D01*
G01*
X8507750Y-7743000D02*
G75*
G02*
X8637750Y-7743000I65000J0D01*
G01*
D11*
X1645077Y-9645984D02*
X1645077Y-9445984D01*
X1645077Y-9445984D02*
X1692696Y-9445984D01*
X1692696Y-9445984D02*
X1721267Y-9455508D01*
X1721267Y-9455508D02*
X1740315Y-9474555D01*
X1740315Y-9474555D02*
X1749839Y-9493603D01*
X1749839Y-9493603D02*
X1759362Y-9531698D01*
X1759362Y-9531698D02*
X1759362Y-9560270D01*
X1759362Y-9560270D02*
X1749839Y-9598365D01*
X1749839Y-9598365D02*
X1740315Y-9617412D01*
X1740315Y-9617412D02*
X1721267Y-9636460D01*
X1721267Y-9636460D02*
X1692696Y-9645984D01*
X1692696Y-9645984D02*
X1645077Y-9645984D01*
X1845077Y-9645984D02*
X1845077Y-9512650D01*
X1845077Y-9550746D02*
X1854601Y-9531698D01*
X1854601Y-9531698D02*
X1864124Y-9522174D01*
X1864124Y-9522174D02*
X1883172Y-9512650D01*
X1883172Y-9512650D02*
X1902220Y-9512650D01*
X1968886Y-9645984D02*
X1968886Y-9512650D01*
X1968886Y-9445984D02*
X1959362Y-9455508D01*
X1959362Y-9455508D02*
X1968886Y-9465031D01*
X1968886Y-9465031D02*
X1978410Y-9455508D01*
X1978410Y-9455508D02*
X1968886Y-9445984D01*
X1968886Y-9445984D02*
X1968886Y-9465031D01*
X2092696Y-9645984D02*
X2073648Y-9636460D01*
X2073648Y-9636460D02*
X2064124Y-9617412D01*
X2064124Y-9617412D02*
X2064124Y-9445984D01*
X2197458Y-9645984D02*
X2178410Y-9636460D01*
X2178410Y-9636460D02*
X2168886Y-9617412D01*
X2168886Y-9617412D02*
X2168886Y-9445984D01*
X2426029Y-9645984D02*
X2426029Y-9445984D01*
X2426029Y-9445984D02*
X2492696Y-9588841D01*
X2492696Y-9588841D02*
X2559363Y-9445984D01*
X2559363Y-9445984D02*
X2559363Y-9645984D01*
X2740315Y-9645984D02*
X2740315Y-9541222D01*
X2740315Y-9541222D02*
X2730791Y-9522174D01*
X2730791Y-9522174D02*
X2711744Y-9512650D01*
X2711744Y-9512650D02*
X2673648Y-9512650D01*
X2673648Y-9512650D02*
X2654601Y-9522174D01*
X2740315Y-9636460D02*
X2721267Y-9645984D01*
X2721267Y-9645984D02*
X2673648Y-9645984D01*
X2673648Y-9645984D02*
X2654601Y-9636460D01*
X2654601Y-9636460D02*
X2645077Y-9617412D01*
X2645077Y-9617412D02*
X2645077Y-9598365D01*
X2645077Y-9598365D02*
X2654601Y-9579317D01*
X2654601Y-9579317D02*
X2673648Y-9569793D01*
X2673648Y-9569793D02*
X2721267Y-9569793D01*
X2721267Y-9569793D02*
X2740315Y-9560270D01*
X2835553Y-9512650D02*
X2835553Y-9712650D01*
X2835553Y-9522174D02*
X2854601Y-9512650D01*
X2854601Y-9512650D02*
X2892696Y-9512650D01*
X2892696Y-9512650D02*
X2911743Y-9522174D01*
X2911743Y-9522174D02*
X2921267Y-9531698D01*
X2921267Y-9531698D02*
X2930791Y-9550746D01*
X2930791Y-9550746D02*
X2930791Y-9607889D01*
X2930791Y-9607889D02*
X2921267Y-9626936D01*
X2921267Y-9626936D02*
X2911743Y-9636460D01*
X2911743Y-9636460D02*
X2892696Y-9645984D01*
X2892696Y-9645984D02*
X2854601Y-9645984D01*
X2854601Y-9645984D02*
X2835553Y-9636460D01*
X3016505Y-9626936D02*
X3026029Y-9636460D01*
X3026029Y-9636460D02*
X3016505Y-9645984D01*
X3016505Y-9645984D02*
X3006982Y-9636460D01*
X3006982Y-9636460D02*
X3016505Y-9626936D01*
X3016505Y-9626936D02*
X3016505Y-9645984D01*
X3016505Y-9522174D02*
X3026029Y-9531698D01*
X3026029Y-9531698D02*
X3016505Y-9541222D01*
X3016505Y-9541222D02*
X3006982Y-9531698D01*
X3006982Y-9531698D02*
X3016505Y-9522174D01*
X3016505Y-9522174D02*
X3016505Y-9541222D01*
D12*
X1351280Y-9957990D02*
X1384300Y-9991010D01*
X1384300Y-9957990D02*
X1351280Y-9991010D01*
D11*
X1683172Y-9865984D02*
X1702220Y-9865984D01*
X1702220Y-9865984D02*
X1721267Y-9875508D01*
X1721267Y-9875508D02*
X1730791Y-9885031D01*
X1730791Y-9885031D02*
X1740315Y-9904079D01*
X1740315Y-9904079D02*
X1749839Y-9942174D01*
X1749839Y-9942174D02*
X1749839Y-9989793D01*
X1749839Y-9989793D02*
X1740315Y-10027889D01*
X1740315Y-10027889D02*
X1730791Y-10046936D01*
X1730791Y-10046936D02*
X1721267Y-10056460D01*
X1721267Y-10056460D02*
X1702220Y-10065984D01*
X1702220Y-10065984D02*
X1683172Y-10065984D01*
X1683172Y-10065984D02*
X1664124Y-10056460D01*
X1664124Y-10056460D02*
X1654601Y-10046936D01*
X1654601Y-10046936D02*
X1645077Y-10027889D01*
X1645077Y-10027889D02*
X1635553Y-9989793D01*
X1635553Y-9989793D02*
X1635553Y-9942174D01*
X1635553Y-9942174D02*
X1645077Y-9904079D01*
X1645077Y-9904079D02*
X1654601Y-9885031D01*
X1654601Y-9885031D02*
X1664124Y-9875508D01*
X1664124Y-9875508D02*
X1683172Y-9865984D01*
X1835553Y-10046936D02*
X1845077Y-10056460D01*
X1845077Y-10056460D02*
X1835553Y-10065984D01*
X1835553Y-10065984D02*
X1826029Y-10056460D01*
X1826029Y-10056460D02*
X1835553Y-10046936D01*
X1835553Y-10046936D02*
X1835553Y-10065984D01*
X1911743Y-9865984D02*
X2035553Y-9865984D01*
X2035553Y-9865984D02*
X1968886Y-9942174D01*
X1968886Y-9942174D02*
X1997458Y-9942174D01*
X1997458Y-9942174D02*
X2016505Y-9951698D01*
X2016505Y-9951698D02*
X2026029Y-9961222D01*
X2026029Y-9961222D02*
X2035553Y-9980270D01*
X2035553Y-9980270D02*
X2035553Y-10027889D01*
X2035553Y-10027889D02*
X2026029Y-10046936D01*
X2026029Y-10046936D02*
X2016505Y-10056460D01*
X2016505Y-10056460D02*
X1997458Y-10065984D01*
X1997458Y-10065984D02*
X1940315Y-10065984D01*
X1940315Y-10065984D02*
X1921267Y-10056460D01*
X1921267Y-10056460D02*
X1911743Y-10046936D01*
X2102220Y-9865984D02*
X2226029Y-9865984D01*
X2226029Y-9865984D02*
X2159363Y-9942174D01*
X2159363Y-9942174D02*
X2187934Y-9942174D01*
X2187934Y-9942174D02*
X2206982Y-9951698D01*
X2206982Y-9951698D02*
X2216505Y-9961222D01*
X2216505Y-9961222D02*
X2226029Y-9980270D01*
X2226029Y-9980270D02*
X2226029Y-10027889D01*
X2226029Y-10027889D02*
X2216505Y-10046936D01*
X2216505Y-10046936D02*
X2206982Y-10056460D01*
X2206982Y-10056460D02*
X2187934Y-10065984D01*
X2187934Y-10065984D02*
X2130791Y-10065984D01*
X2130791Y-10065984D02*
X2111744Y-10056460D01*
X2111744Y-10056460D02*
X2102220Y-10046936D01*
X2349839Y-9865984D02*
X2368886Y-9865984D01*
X2368886Y-9865984D02*
X2387934Y-9875508D01*
X2387934Y-9875508D02*
X2397458Y-9885031D01*
X2397458Y-9885031D02*
X2406982Y-9904079D01*
X2406982Y-9904079D02*
X2416505Y-9942174D01*
X2416505Y-9942174D02*
X2416505Y-9989793D01*
X2416505Y-9989793D02*
X2406982Y-10027889D01*
X2406982Y-10027889D02*
X2397458Y-10046936D01*
X2397458Y-10046936D02*
X2387934Y-10056460D01*
X2387934Y-10056460D02*
X2368886Y-10065984D01*
X2368886Y-10065984D02*
X2349839Y-10065984D01*
X2349839Y-10065984D02*
X2330791Y-10056460D01*
X2330791Y-10056460D02*
X2321267Y-10046936D01*
X2321267Y-10046936D02*
X2311744Y-10027889D01*
X2311744Y-10027889D02*
X2302220Y-9989793D01*
X2302220Y-9989793D02*
X2302220Y-9942174D01*
X2302220Y-9942174D02*
X2311744Y-9904079D01*
X2311744Y-9904079D02*
X2321267Y-9885031D01*
X2321267Y-9885031D02*
X2330791Y-9875508D01*
X2330791Y-9875508D02*
X2349839Y-9865984D01*
X2502220Y-10065984D02*
X2502220Y-9932650D01*
X2502220Y-9951698D02*
X2511744Y-9942174D01*
X2511744Y-9942174D02*
X2530791Y-9932650D01*
X2530791Y-9932650D02*
X2559363Y-9932650D01*
X2559363Y-9932650D02*
X2578410Y-9942174D01*
X2578410Y-9942174D02*
X2587934Y-9961222D01*
X2587934Y-9961222D02*
X2587934Y-10065984D01*
X2587934Y-9961222D02*
X2597458Y-9942174D01*
X2597458Y-9942174D02*
X2616505Y-9932650D01*
X2616505Y-9932650D02*
X2645077Y-9932650D01*
X2645077Y-9932650D02*
X2664125Y-9942174D01*
X2664125Y-9942174D02*
X2673648Y-9961222D01*
X2673648Y-9961222D02*
X2673648Y-10065984D01*
X2768886Y-10065984D02*
X2768886Y-9932650D01*
X2768886Y-9951698D02*
X2778410Y-9942174D01*
X2778410Y-9942174D02*
X2797458Y-9932650D01*
X2797458Y-9932650D02*
X2826029Y-9932650D01*
X2826029Y-9932650D02*
X2845077Y-9942174D01*
X2845077Y-9942174D02*
X2854601Y-9961222D01*
X2854601Y-9961222D02*
X2854601Y-10065984D01*
X2854601Y-9961222D02*
X2864124Y-9942174D01*
X2864124Y-9942174D02*
X2883172Y-9932650D01*
X2883172Y-9932650D02*
X2911743Y-9932650D01*
X2911743Y-9932650D02*
X2930791Y-9942174D01*
X2930791Y-9942174D02*
X2940315Y-9961222D01*
X2940315Y-9961222D02*
X2940315Y-10065984D01*
X3330791Y-9856460D02*
X3159363Y-10113603D01*
X3587934Y-9865984D02*
X3606982Y-9865984D01*
X3606982Y-9865984D02*
X3626029Y-9875508D01*
X3626029Y-9875508D02*
X3635553Y-9885031D01*
X3635553Y-9885031D02*
X3645077Y-9904079D01*
X3645077Y-9904079D02*
X3654601Y-9942174D01*
X3654601Y-9942174D02*
X3654601Y-9989793D01*
X3654601Y-9989793D02*
X3645077Y-10027889D01*
X3645077Y-10027889D02*
X3635553Y-10046936D01*
X3635553Y-10046936D02*
X3626029Y-10056460D01*
X3626029Y-10056460D02*
X3606982Y-10065984D01*
X3606982Y-10065984D02*
X3587934Y-10065984D01*
X3587934Y-10065984D02*
X3568886Y-10056460D01*
X3568886Y-10056460D02*
X3559363Y-10046936D01*
X3559363Y-10046936D02*
X3549839Y-10027889D01*
X3549839Y-10027889D02*
X3540315Y-9989793D01*
X3540315Y-9989793D02*
X3540315Y-9942174D01*
X3540315Y-9942174D02*
X3549839Y-9904079D01*
X3549839Y-9904079D02*
X3559363Y-9885031D01*
X3559363Y-9885031D02*
X3568886Y-9875508D01*
X3568886Y-9875508D02*
X3587934Y-9865984D01*
X3740315Y-10046936D02*
X3749839Y-10056460D01*
X3749839Y-10056460D02*
X3740315Y-10065984D01*
X3740315Y-10065984D02*
X3730791Y-10056460D01*
X3730791Y-10056460D02*
X3740315Y-10046936D01*
X3740315Y-10046936D02*
X3740315Y-10065984D01*
X3873648Y-9865984D02*
X3892696Y-9865984D01*
X3892696Y-9865984D02*
X3911744Y-9875508D01*
X3911744Y-9875508D02*
X3921267Y-9885031D01*
X3921267Y-9885031D02*
X3930791Y-9904079D01*
X3930791Y-9904079D02*
X3940315Y-9942174D01*
X3940315Y-9942174D02*
X3940315Y-9989793D01*
X3940315Y-9989793D02*
X3930791Y-10027889D01*
X3930791Y-10027889D02*
X3921267Y-10046936D01*
X3921267Y-10046936D02*
X3911744Y-10056460D01*
X3911744Y-10056460D02*
X3892696Y-10065984D01*
X3892696Y-10065984D02*
X3873648Y-10065984D01*
X3873648Y-10065984D02*
X3854601Y-10056460D01*
X3854601Y-10056460D02*
X3845077Y-10046936D01*
X3845077Y-10046936D02*
X3835553Y-10027889D01*
X3835553Y-10027889D02*
X3826029Y-9989793D01*
X3826029Y-9989793D02*
X3826029Y-9942174D01*
X3826029Y-9942174D02*
X3835553Y-9904079D01*
X3835553Y-9904079D02*
X3845077Y-9885031D01*
X3845077Y-9885031D02*
X3854601Y-9875508D01*
X3854601Y-9875508D02*
X3873648Y-9865984D01*
X4130791Y-10065984D02*
X4016506Y-10065984D01*
X4073648Y-10065984D02*
X4073648Y-9865984D01*
X4073648Y-9865984D02*
X4054601Y-9894555D01*
X4054601Y-9894555D02*
X4035553Y-9913603D01*
X4035553Y-9913603D02*
X4016506Y-9923127D01*
X4197458Y-9865984D02*
X4321268Y-9865984D01*
X4321268Y-9865984D02*
X4254601Y-9942174D01*
X4254601Y-9942174D02*
X4283172Y-9942174D01*
X4283172Y-9942174D02*
X4302220Y-9951698D01*
X4302220Y-9951698D02*
X4311744Y-9961222D01*
X4311744Y-9961222D02*
X4321268Y-9980270D01*
X4321268Y-9980270D02*
X4321268Y-10027889D01*
X4321268Y-10027889D02*
X4311744Y-10046936D01*
X4311744Y-10046936D02*
X4302220Y-10056460D01*
X4302220Y-10056460D02*
X4283172Y-10065984D01*
X4283172Y-10065984D02*
X4226029Y-10065984D01*
X4226029Y-10065984D02*
X4206982Y-10056460D01*
X4206982Y-10056460D02*
X4197458Y-10046936D01*
X4445077Y-9865984D02*
X4464125Y-9865984D01*
X4464125Y-9865984D02*
X4483172Y-9875508D01*
X4483172Y-9875508D02*
X4492696Y-9885031D01*
X4492696Y-9885031D02*
X4502220Y-9904079D01*
X4502220Y-9904079D02*
X4511744Y-9942174D01*
X4511744Y-9942174D02*
X4511744Y-9989793D01*
X4511744Y-9989793D02*
X4502220Y-10027889D01*
X4502220Y-10027889D02*
X4492696Y-10046936D01*
X4492696Y-10046936D02*
X4483172Y-10056460D01*
X4483172Y-10056460D02*
X4464125Y-10065984D01*
X4464125Y-10065984D02*
X4445077Y-10065984D01*
X4445077Y-10065984D02*
X4426029Y-10056460D01*
X4426029Y-10056460D02*
X4416506Y-10046936D01*
X4416506Y-10046936D02*
X4406982Y-10027889D01*
X4406982Y-10027889D02*
X4397458Y-9989793D01*
X4397458Y-9989793D02*
X4397458Y-9942174D01*
X4397458Y-9942174D02*
X4406982Y-9904079D01*
X4406982Y-9904079D02*
X4416506Y-9885031D01*
X4416506Y-9885031D02*
X4426029Y-9875508D01*
X4426029Y-9875508D02*
X4445077Y-9865984D01*
X4587934Y-9865984D02*
X4587934Y-9904079D01*
X4664125Y-9865984D02*
X4664125Y-9904079D01*
X4959363Y-10142174D02*
X4949839Y-10132650D01*
X4949839Y-10132650D02*
X4930791Y-10104079D01*
X4930791Y-10104079D02*
X4921268Y-10085031D01*
X4921268Y-10085031D02*
X4911744Y-10056460D01*
X4911744Y-10056460D02*
X4902220Y-10008841D01*
X4902220Y-10008841D02*
X4902220Y-9970746D01*
X4902220Y-9970746D02*
X4911744Y-9923127D01*
X4911744Y-9923127D02*
X4921268Y-9894555D01*
X4921268Y-9894555D02*
X4930791Y-9875508D01*
X4930791Y-9875508D02*
X4949839Y-9846936D01*
X4949839Y-9846936D02*
X4959363Y-9837412D01*
X5130791Y-9865984D02*
X5035553Y-9865984D01*
X5035553Y-9865984D02*
X5026030Y-9961222D01*
X5026030Y-9961222D02*
X5035553Y-9951698D01*
X5035553Y-9951698D02*
X5054601Y-9942174D01*
X5054601Y-9942174D02*
X5102220Y-9942174D01*
X5102220Y-9942174D02*
X5121268Y-9951698D01*
X5121268Y-9951698D02*
X5130791Y-9961222D01*
X5130791Y-9961222D02*
X5140315Y-9980270D01*
X5140315Y-9980270D02*
X5140315Y-10027889D01*
X5140315Y-10027889D02*
X5130791Y-10046936D01*
X5130791Y-10046936D02*
X5121268Y-10056460D01*
X5121268Y-10056460D02*
X5102220Y-10065984D01*
X5102220Y-10065984D02*
X5054601Y-10065984D01*
X5054601Y-10065984D02*
X5035553Y-10056460D01*
X5035553Y-10056460D02*
X5026030Y-10046936D01*
X5378411Y-10065984D02*
X5378411Y-9865984D01*
X5464125Y-10065984D02*
X5464125Y-9961222D01*
X5464125Y-9961222D02*
X5454601Y-9942174D01*
X5454601Y-9942174D02*
X5435553Y-9932650D01*
X5435553Y-9932650D02*
X5406982Y-9932650D01*
X5406982Y-9932650D02*
X5387934Y-9942174D01*
X5387934Y-9942174D02*
X5378411Y-9951698D01*
X5587934Y-10065984D02*
X5568887Y-10056460D01*
X5568887Y-10056460D02*
X5559363Y-10046936D01*
X5559363Y-10046936D02*
X5549839Y-10027889D01*
X5549839Y-10027889D02*
X5549839Y-9970746D01*
X5549839Y-9970746D02*
X5559363Y-9951698D01*
X5559363Y-9951698D02*
X5568887Y-9942174D01*
X5568887Y-9942174D02*
X5587934Y-9932650D01*
X5587934Y-9932650D02*
X5616506Y-9932650D01*
X5616506Y-9932650D02*
X5635553Y-9942174D01*
X5635553Y-9942174D02*
X5645077Y-9951698D01*
X5645077Y-9951698D02*
X5654601Y-9970746D01*
X5654601Y-9970746D02*
X5654601Y-10027889D01*
X5654601Y-10027889D02*
X5645077Y-10046936D01*
X5645077Y-10046936D02*
X5635553Y-10056460D01*
X5635553Y-10056460D02*
X5616506Y-10065984D01*
X5616506Y-10065984D02*
X5587934Y-10065984D01*
X5768887Y-10065984D02*
X5749839Y-10056460D01*
X5749839Y-10056460D02*
X5740315Y-10037412D01*
X5740315Y-10037412D02*
X5740315Y-9865984D01*
X5921268Y-10056460D02*
X5902220Y-10065984D01*
X5902220Y-10065984D02*
X5864125Y-10065984D01*
X5864125Y-10065984D02*
X5845077Y-10056460D01*
X5845077Y-10056460D02*
X5835553Y-10037412D01*
X5835553Y-10037412D02*
X5835553Y-9961222D01*
X5835553Y-9961222D02*
X5845077Y-9942174D01*
X5845077Y-9942174D02*
X5864125Y-9932650D01*
X5864125Y-9932650D02*
X5902220Y-9932650D01*
X5902220Y-9932650D02*
X5921268Y-9942174D01*
X5921268Y-9942174D02*
X5930791Y-9961222D01*
X5930791Y-9961222D02*
X5930791Y-9980270D01*
X5930791Y-9980270D02*
X5835553Y-9999317D01*
X6006982Y-10056460D02*
X6026030Y-10065984D01*
X6026030Y-10065984D02*
X6064125Y-10065984D01*
X6064125Y-10065984D02*
X6083172Y-10056460D01*
X6083172Y-10056460D02*
X6092696Y-10037412D01*
X6092696Y-10037412D02*
X6092696Y-10027889D01*
X6092696Y-10027889D02*
X6083172Y-10008841D01*
X6083172Y-10008841D02*
X6064125Y-9999317D01*
X6064125Y-9999317D02*
X6035553Y-9999317D01*
X6035553Y-9999317D02*
X6016506Y-9989793D01*
X6016506Y-9989793D02*
X6006982Y-9970746D01*
X6006982Y-9970746D02*
X6006982Y-9961222D01*
X6006982Y-9961222D02*
X6016506Y-9942174D01*
X6016506Y-9942174D02*
X6035553Y-9932650D01*
X6035553Y-9932650D02*
X6064125Y-9932650D01*
X6064125Y-9932650D02*
X6083172Y-9942174D01*
X6159363Y-10142174D02*
X6168887Y-10132650D01*
X6168887Y-10132650D02*
X6187934Y-10104079D01*
X6187934Y-10104079D02*
X6197458Y-10085031D01*
X6197458Y-10085031D02*
X6206982Y-10056460D01*
X6206982Y-10056460D02*
X6216506Y-10008841D01*
X6216506Y-10008841D02*
X6216506Y-9970746D01*
X6216506Y-9970746D02*
X6206982Y-9923127D01*
X6206982Y-9923127D02*
X6197458Y-9894555D01*
X6197458Y-9894555D02*
X6187934Y-9875508D01*
X6187934Y-9875508D02*
X6168887Y-9846936D01*
X6168887Y-9846936D02*
X6159363Y-9837412D01*
D12*
X1384300Y-10238500D02*
G75*
G02*
X1346200Y-10238500I-19050J0D01*
G01*
X1346200Y-10238500D02*
G75*
G02*
X1384300Y-10238500I19050J0D01*
G01*
D11*
X1683172Y-10129984D02*
X1702220Y-10129984D01*
X1702220Y-10129984D02*
X1721267Y-10139508D01*
X1721267Y-10139508D02*
X1730791Y-10149031D01*
X1730791Y-10149031D02*
X1740315Y-10168079D01*
X1740315Y-10168079D02*
X1749839Y-10206174D01*
X1749839Y-10206174D02*
X1749839Y-10253793D01*
X1749839Y-10253793D02*
X1740315Y-10291889D01*
X1740315Y-10291889D02*
X1730791Y-10310936D01*
X1730791Y-10310936D02*
X1721267Y-10320460D01*
X1721267Y-10320460D02*
X1702220Y-10329984D01*
X1702220Y-10329984D02*
X1683172Y-10329984D01*
X1683172Y-10329984D02*
X1664124Y-10320460D01*
X1664124Y-10320460D02*
X1654601Y-10310936D01*
X1654601Y-10310936D02*
X1645077Y-10291889D01*
X1645077Y-10291889D02*
X1635553Y-10253793D01*
X1635553Y-10253793D02*
X1635553Y-10206174D01*
X1635553Y-10206174D02*
X1645077Y-10168079D01*
X1645077Y-10168079D02*
X1654601Y-10149031D01*
X1654601Y-10149031D02*
X1664124Y-10139508D01*
X1664124Y-10139508D02*
X1683172Y-10129984D01*
X1835553Y-10310936D02*
X1845077Y-10320460D01*
X1845077Y-10320460D02*
X1835553Y-10329984D01*
X1835553Y-10329984D02*
X1826029Y-10320460D01*
X1826029Y-10320460D02*
X1835553Y-10310936D01*
X1835553Y-10310936D02*
X1835553Y-10329984D01*
X1911743Y-10129984D02*
X2035553Y-10129984D01*
X2035553Y-10129984D02*
X1968886Y-10206174D01*
X1968886Y-10206174D02*
X1997458Y-10206174D01*
X1997458Y-10206174D02*
X2016505Y-10215698D01*
X2016505Y-10215698D02*
X2026029Y-10225222D01*
X2026029Y-10225222D02*
X2035553Y-10244270D01*
X2035553Y-10244270D02*
X2035553Y-10291889D01*
X2035553Y-10291889D02*
X2026029Y-10310936D01*
X2026029Y-10310936D02*
X2016505Y-10320460D01*
X2016505Y-10320460D02*
X1997458Y-10329984D01*
X1997458Y-10329984D02*
X1940315Y-10329984D01*
X1940315Y-10329984D02*
X1921267Y-10320460D01*
X1921267Y-10320460D02*
X1911743Y-10310936D01*
X2149839Y-10215698D02*
X2130791Y-10206174D01*
X2130791Y-10206174D02*
X2121267Y-10196650D01*
X2121267Y-10196650D02*
X2111744Y-10177603D01*
X2111744Y-10177603D02*
X2111744Y-10168079D01*
X2111744Y-10168079D02*
X2121267Y-10149031D01*
X2121267Y-10149031D02*
X2130791Y-10139508D01*
X2130791Y-10139508D02*
X2149839Y-10129984D01*
X2149839Y-10129984D02*
X2187934Y-10129984D01*
X2187934Y-10129984D02*
X2206982Y-10139508D01*
X2206982Y-10139508D02*
X2216505Y-10149031D01*
X2216505Y-10149031D02*
X2226029Y-10168079D01*
X2226029Y-10168079D02*
X2226029Y-10177603D01*
X2226029Y-10177603D02*
X2216505Y-10196650D01*
X2216505Y-10196650D02*
X2206982Y-10206174D01*
X2206982Y-10206174D02*
X2187934Y-10215698D01*
X2187934Y-10215698D02*
X2149839Y-10215698D01*
X2149839Y-10215698D02*
X2130791Y-10225222D01*
X2130791Y-10225222D02*
X2121267Y-10234746D01*
X2121267Y-10234746D02*
X2111744Y-10253793D01*
X2111744Y-10253793D02*
X2111744Y-10291889D01*
X2111744Y-10291889D02*
X2121267Y-10310936D01*
X2121267Y-10310936D02*
X2130791Y-10320460D01*
X2130791Y-10320460D02*
X2149839Y-10329984D01*
X2149839Y-10329984D02*
X2187934Y-10329984D01*
X2187934Y-10329984D02*
X2206982Y-10320460D01*
X2206982Y-10320460D02*
X2216505Y-10310936D01*
X2216505Y-10310936D02*
X2226029Y-10291889D01*
X2226029Y-10291889D02*
X2226029Y-10253793D01*
X2226029Y-10253793D02*
X2216505Y-10234746D01*
X2216505Y-10234746D02*
X2206982Y-10225222D01*
X2206982Y-10225222D02*
X2187934Y-10215698D01*
X2416505Y-10329984D02*
X2302220Y-10329984D01*
X2359363Y-10329984D02*
X2359363Y-10129984D01*
X2359363Y-10129984D02*
X2340315Y-10158555D01*
X2340315Y-10158555D02*
X2321267Y-10177603D01*
X2321267Y-10177603D02*
X2302220Y-10187127D01*
X2502220Y-10329984D02*
X2502220Y-10196650D01*
X2502220Y-10215698D02*
X2511744Y-10206174D01*
X2511744Y-10206174D02*
X2530791Y-10196650D01*
X2530791Y-10196650D02*
X2559363Y-10196650D01*
X2559363Y-10196650D02*
X2578410Y-10206174D01*
X2578410Y-10206174D02*
X2587934Y-10225222D01*
X2587934Y-10225222D02*
X2587934Y-10329984D01*
X2587934Y-10225222D02*
X2597458Y-10206174D01*
X2597458Y-10206174D02*
X2616505Y-10196650D01*
X2616505Y-10196650D02*
X2645077Y-10196650D01*
X2645077Y-10196650D02*
X2664125Y-10206174D01*
X2664125Y-10206174D02*
X2673648Y-10225222D01*
X2673648Y-10225222D02*
X2673648Y-10329984D01*
X2768886Y-10329984D02*
X2768886Y-10196650D01*
X2768886Y-10215698D02*
X2778410Y-10206174D01*
X2778410Y-10206174D02*
X2797458Y-10196650D01*
X2797458Y-10196650D02*
X2826029Y-10196650D01*
X2826029Y-10196650D02*
X2845077Y-10206174D01*
X2845077Y-10206174D02*
X2854601Y-10225222D01*
X2854601Y-10225222D02*
X2854601Y-10329984D01*
X2854601Y-10225222D02*
X2864124Y-10206174D01*
X2864124Y-10206174D02*
X2883172Y-10196650D01*
X2883172Y-10196650D02*
X2911743Y-10196650D01*
X2911743Y-10196650D02*
X2930791Y-10206174D01*
X2930791Y-10206174D02*
X2940315Y-10225222D01*
X2940315Y-10225222D02*
X2940315Y-10329984D01*
X3330791Y-10120460D02*
X3159363Y-10377603D01*
X3587934Y-10129984D02*
X3606982Y-10129984D01*
X3606982Y-10129984D02*
X3626029Y-10139508D01*
X3626029Y-10139508D02*
X3635553Y-10149031D01*
X3635553Y-10149031D02*
X3645077Y-10168079D01*
X3645077Y-10168079D02*
X3654601Y-10206174D01*
X3654601Y-10206174D02*
X3654601Y-10253793D01*
X3654601Y-10253793D02*
X3645077Y-10291889D01*
X3645077Y-10291889D02*
X3635553Y-10310936D01*
X3635553Y-10310936D02*
X3626029Y-10320460D01*
X3626029Y-10320460D02*
X3606982Y-10329984D01*
X3606982Y-10329984D02*
X3587934Y-10329984D01*
X3587934Y-10329984D02*
X3568886Y-10320460D01*
X3568886Y-10320460D02*
X3559363Y-10310936D01*
X3559363Y-10310936D02*
X3549839Y-10291889D01*
X3549839Y-10291889D02*
X3540315Y-10253793D01*
X3540315Y-10253793D02*
X3540315Y-10206174D01*
X3540315Y-10206174D02*
X3549839Y-10168079D01*
X3549839Y-10168079D02*
X3559363Y-10149031D01*
X3559363Y-10149031D02*
X3568886Y-10139508D01*
X3568886Y-10139508D02*
X3587934Y-10129984D01*
X3740315Y-10310936D02*
X3749839Y-10320460D01*
X3749839Y-10320460D02*
X3740315Y-10329984D01*
X3740315Y-10329984D02*
X3730791Y-10320460D01*
X3730791Y-10320460D02*
X3740315Y-10310936D01*
X3740315Y-10310936D02*
X3740315Y-10329984D01*
X3873648Y-10129984D02*
X3892696Y-10129984D01*
X3892696Y-10129984D02*
X3911744Y-10139508D01*
X3911744Y-10139508D02*
X3921267Y-10149031D01*
X3921267Y-10149031D02*
X3930791Y-10168079D01*
X3930791Y-10168079D02*
X3940315Y-10206174D01*
X3940315Y-10206174D02*
X3940315Y-10253793D01*
X3940315Y-10253793D02*
X3930791Y-10291889D01*
X3930791Y-10291889D02*
X3921267Y-10310936D01*
X3921267Y-10310936D02*
X3911744Y-10320460D01*
X3911744Y-10320460D02*
X3892696Y-10329984D01*
X3892696Y-10329984D02*
X3873648Y-10329984D01*
X3873648Y-10329984D02*
X3854601Y-10320460D01*
X3854601Y-10320460D02*
X3845077Y-10310936D01*
X3845077Y-10310936D02*
X3835553Y-10291889D01*
X3835553Y-10291889D02*
X3826029Y-10253793D01*
X3826029Y-10253793D02*
X3826029Y-10206174D01*
X3826029Y-10206174D02*
X3835553Y-10168079D01*
X3835553Y-10168079D02*
X3845077Y-10149031D01*
X3845077Y-10149031D02*
X3854601Y-10139508D01*
X3854601Y-10139508D02*
X3873648Y-10129984D01*
X4130791Y-10329984D02*
X4016506Y-10329984D01*
X4073648Y-10329984D02*
X4073648Y-10129984D01*
X4073648Y-10129984D02*
X4054601Y-10158555D01*
X4054601Y-10158555D02*
X4035553Y-10177603D01*
X4035553Y-10177603D02*
X4016506Y-10187127D01*
X4311744Y-10129984D02*
X4216506Y-10129984D01*
X4216506Y-10129984D02*
X4206982Y-10225222D01*
X4206982Y-10225222D02*
X4216506Y-10215698D01*
X4216506Y-10215698D02*
X4235553Y-10206174D01*
X4235553Y-10206174D02*
X4283172Y-10206174D01*
X4283172Y-10206174D02*
X4302220Y-10215698D01*
X4302220Y-10215698D02*
X4311744Y-10225222D01*
X4311744Y-10225222D02*
X4321268Y-10244270D01*
X4321268Y-10244270D02*
X4321268Y-10291889D01*
X4321268Y-10291889D02*
X4311744Y-10310936D01*
X4311744Y-10310936D02*
X4302220Y-10320460D01*
X4302220Y-10320460D02*
X4283172Y-10329984D01*
X4283172Y-10329984D02*
X4235553Y-10329984D01*
X4235553Y-10329984D02*
X4216506Y-10320460D01*
X4216506Y-10320460D02*
X4206982Y-10310936D01*
X4445077Y-10129984D02*
X4464125Y-10129984D01*
X4464125Y-10129984D02*
X4483172Y-10139508D01*
X4483172Y-10139508D02*
X4492696Y-10149031D01*
X4492696Y-10149031D02*
X4502220Y-10168079D01*
X4502220Y-10168079D02*
X4511744Y-10206174D01*
X4511744Y-10206174D02*
X4511744Y-10253793D01*
X4511744Y-10253793D02*
X4502220Y-10291889D01*
X4502220Y-10291889D02*
X4492696Y-10310936D01*
X4492696Y-10310936D02*
X4483172Y-10320460D01*
X4483172Y-10320460D02*
X4464125Y-10329984D01*
X4464125Y-10329984D02*
X4445077Y-10329984D01*
X4445077Y-10329984D02*
X4426029Y-10320460D01*
X4426029Y-10320460D02*
X4416506Y-10310936D01*
X4416506Y-10310936D02*
X4406982Y-10291889D01*
X4406982Y-10291889D02*
X4397458Y-10253793D01*
X4397458Y-10253793D02*
X4397458Y-10206174D01*
X4397458Y-10206174D02*
X4406982Y-10168079D01*
X4406982Y-10168079D02*
X4416506Y-10149031D01*
X4416506Y-10149031D02*
X4426029Y-10139508D01*
X4426029Y-10139508D02*
X4445077Y-10129984D01*
X4587934Y-10129984D02*
X4587934Y-10168079D01*
X4664125Y-10129984D02*
X4664125Y-10168079D01*
X4959363Y-10406174D02*
X4949839Y-10396650D01*
X4949839Y-10396650D02*
X4930791Y-10368079D01*
X4930791Y-10368079D02*
X4921268Y-10349031D01*
X4921268Y-10349031D02*
X4911744Y-10320460D01*
X4911744Y-10320460D02*
X4902220Y-10272841D01*
X4902220Y-10272841D02*
X4902220Y-10234746D01*
X4902220Y-10234746D02*
X4911744Y-10187127D01*
X4911744Y-10187127D02*
X4921268Y-10158555D01*
X4921268Y-10158555D02*
X4930791Y-10139508D01*
X4930791Y-10139508D02*
X4949839Y-10110936D01*
X4949839Y-10110936D02*
X4959363Y-10101412D01*
X5121268Y-10196650D02*
X5121268Y-10329984D01*
X5073649Y-10120460D02*
X5026030Y-10263317D01*
X5026030Y-10263317D02*
X5149839Y-10263317D01*
X5321268Y-10129984D02*
X5226030Y-10129984D01*
X5226030Y-10129984D02*
X5216506Y-10225222D01*
X5216506Y-10225222D02*
X5226030Y-10215698D01*
X5226030Y-10215698D02*
X5245077Y-10206174D01*
X5245077Y-10206174D02*
X5292696Y-10206174D01*
X5292696Y-10206174D02*
X5311744Y-10215698D01*
X5311744Y-10215698D02*
X5321268Y-10225222D01*
X5321268Y-10225222D02*
X5330791Y-10244270D01*
X5330791Y-10244270D02*
X5330791Y-10291889D01*
X5330791Y-10291889D02*
X5321268Y-10310936D01*
X5321268Y-10310936D02*
X5311744Y-10320460D01*
X5311744Y-10320460D02*
X5292696Y-10329984D01*
X5292696Y-10329984D02*
X5245077Y-10329984D01*
X5245077Y-10329984D02*
X5226030Y-10320460D01*
X5226030Y-10320460D02*
X5216506Y-10310936D01*
X5568887Y-10329984D02*
X5568887Y-10129984D01*
X5654601Y-10329984D02*
X5654601Y-10225222D01*
X5654601Y-10225222D02*
X5645077Y-10206174D01*
X5645077Y-10206174D02*
X5626030Y-10196650D01*
X5626030Y-10196650D02*
X5597458Y-10196650D01*
X5597458Y-10196650D02*
X5578411Y-10206174D01*
X5578411Y-10206174D02*
X5568887Y-10215698D01*
X5778410Y-10329984D02*
X5759363Y-10320460D01*
X5759363Y-10320460D02*
X5749839Y-10310936D01*
X5749839Y-10310936D02*
X5740315Y-10291889D01*
X5740315Y-10291889D02*
X5740315Y-10234746D01*
X5740315Y-10234746D02*
X5749839Y-10215698D01*
X5749839Y-10215698D02*
X5759363Y-10206174D01*
X5759363Y-10206174D02*
X5778410Y-10196650D01*
X5778410Y-10196650D02*
X5806982Y-10196650D01*
X5806982Y-10196650D02*
X5826030Y-10206174D01*
X5826030Y-10206174D02*
X5835553Y-10215698D01*
X5835553Y-10215698D02*
X5845077Y-10234746D01*
X5845077Y-10234746D02*
X5845077Y-10291889D01*
X5845077Y-10291889D02*
X5835553Y-10310936D01*
X5835553Y-10310936D02*
X5826030Y-10320460D01*
X5826030Y-10320460D02*
X5806982Y-10329984D01*
X5806982Y-10329984D02*
X5778410Y-10329984D01*
X5959363Y-10329984D02*
X5940315Y-10320460D01*
X5940315Y-10320460D02*
X5930791Y-10301412D01*
X5930791Y-10301412D02*
X5930791Y-10129984D01*
X6111744Y-10320460D02*
X6092696Y-10329984D01*
X6092696Y-10329984D02*
X6054601Y-10329984D01*
X6054601Y-10329984D02*
X6035553Y-10320460D01*
X6035553Y-10320460D02*
X6026030Y-10301412D01*
X6026030Y-10301412D02*
X6026030Y-10225222D01*
X6026030Y-10225222D02*
X6035553Y-10206174D01*
X6035553Y-10206174D02*
X6054601Y-10196650D01*
X6054601Y-10196650D02*
X6092696Y-10196650D01*
X6092696Y-10196650D02*
X6111744Y-10206174D01*
X6111744Y-10206174D02*
X6121268Y-10225222D01*
X6121268Y-10225222D02*
X6121268Y-10244270D01*
X6121268Y-10244270D02*
X6026030Y-10263317D01*
X6197458Y-10320460D02*
X6216506Y-10329984D01*
X6216506Y-10329984D02*
X6254601Y-10329984D01*
X6254601Y-10329984D02*
X6273649Y-10320460D01*
X6273649Y-10320460D02*
X6283172Y-10301412D01*
X6283172Y-10301412D02*
X6283172Y-10291889D01*
X6283172Y-10291889D02*
X6273649Y-10272841D01*
X6273649Y-10272841D02*
X6254601Y-10263317D01*
X6254601Y-10263317D02*
X6226030Y-10263317D01*
X6226030Y-10263317D02*
X6206982Y-10253793D01*
X6206982Y-10253793D02*
X6197458Y-10234746D01*
X6197458Y-10234746D02*
X6197458Y-10225222D01*
X6197458Y-10225222D02*
X6206982Y-10206174D01*
X6206982Y-10206174D02*
X6226030Y-10196650D01*
X6226030Y-10196650D02*
X6254601Y-10196650D01*
X6254601Y-10196650D02*
X6273649Y-10206174D01*
X6349839Y-10406174D02*
X6359363Y-10396650D01*
X6359363Y-10396650D02*
X6378411Y-10368079D01*
X6378411Y-10368079D02*
X6387934Y-10349031D01*
X6387934Y-10349031D02*
X6397458Y-10320460D01*
X6397458Y-10320460D02*
X6406982Y-10272841D01*
X6406982Y-10272841D02*
X6406982Y-10234746D01*
X6406982Y-10234746D02*
X6397458Y-10187127D01*
X6397458Y-10187127D02*
X6387934Y-10158555D01*
X6387934Y-10158555D02*
X6378411Y-10139508D01*
X6378411Y-10139508D02*
X6359363Y-10110936D01*
X6359363Y-10110936D02*
X6349839Y-10101412D01*
D12*
X1344300Y-10462500D02*
X1344300Y-10542500D01*
X1304300Y-10502500D02*
X1384300Y-10502500D01*
D11*
X1683172Y-10393984D02*
X1702220Y-10393984D01*
X1702220Y-10393984D02*
X1721267Y-10403508D01*
X1721267Y-10403508D02*
X1730791Y-10413031D01*
X1730791Y-10413031D02*
X1740315Y-10432079D01*
X1740315Y-10432079D02*
X1749839Y-10470174D01*
X1749839Y-10470174D02*
X1749839Y-10517793D01*
X1749839Y-10517793D02*
X1740315Y-10555889D01*
X1740315Y-10555889D02*
X1730791Y-10574936D01*
X1730791Y-10574936D02*
X1721267Y-10584460D01*
X1721267Y-10584460D02*
X1702220Y-10593984D01*
X1702220Y-10593984D02*
X1683172Y-10593984D01*
X1683172Y-10593984D02*
X1664124Y-10584460D01*
X1664124Y-10584460D02*
X1654601Y-10574936D01*
X1654601Y-10574936D02*
X1645077Y-10555889D01*
X1645077Y-10555889D02*
X1635553Y-10517793D01*
X1635553Y-10517793D02*
X1635553Y-10470174D01*
X1635553Y-10470174D02*
X1645077Y-10432079D01*
X1645077Y-10432079D02*
X1654601Y-10413031D01*
X1654601Y-10413031D02*
X1664124Y-10403508D01*
X1664124Y-10403508D02*
X1683172Y-10393984D01*
X1835553Y-10574936D02*
X1845077Y-10584460D01*
X1845077Y-10584460D02*
X1835553Y-10593984D01*
X1835553Y-10593984D02*
X1826029Y-10584460D01*
X1826029Y-10584460D02*
X1835553Y-10574936D01*
X1835553Y-10574936D02*
X1835553Y-10593984D01*
X1959362Y-10479698D02*
X1940315Y-10470174D01*
X1940315Y-10470174D02*
X1930791Y-10460650D01*
X1930791Y-10460650D02*
X1921267Y-10441603D01*
X1921267Y-10441603D02*
X1921267Y-10432079D01*
X1921267Y-10432079D02*
X1930791Y-10413031D01*
X1930791Y-10413031D02*
X1940315Y-10403508D01*
X1940315Y-10403508D02*
X1959362Y-10393984D01*
X1959362Y-10393984D02*
X1997458Y-10393984D01*
X1997458Y-10393984D02*
X2016505Y-10403508D01*
X2016505Y-10403508D02*
X2026029Y-10413031D01*
X2026029Y-10413031D02*
X2035553Y-10432079D01*
X2035553Y-10432079D02*
X2035553Y-10441603D01*
X2035553Y-10441603D02*
X2026029Y-10460650D01*
X2026029Y-10460650D02*
X2016505Y-10470174D01*
X2016505Y-10470174D02*
X1997458Y-10479698D01*
X1997458Y-10479698D02*
X1959362Y-10479698D01*
X1959362Y-10479698D02*
X1940315Y-10489222D01*
X1940315Y-10489222D02*
X1930791Y-10498746D01*
X1930791Y-10498746D02*
X1921267Y-10517793D01*
X1921267Y-10517793D02*
X1921267Y-10555889D01*
X1921267Y-10555889D02*
X1930791Y-10574936D01*
X1930791Y-10574936D02*
X1940315Y-10584460D01*
X1940315Y-10584460D02*
X1959362Y-10593984D01*
X1959362Y-10593984D02*
X1997458Y-10593984D01*
X1997458Y-10593984D02*
X2016505Y-10584460D01*
X2016505Y-10584460D02*
X2026029Y-10574936D01*
X2026029Y-10574936D02*
X2035553Y-10555889D01*
X2035553Y-10555889D02*
X2035553Y-10517793D01*
X2035553Y-10517793D02*
X2026029Y-10498746D01*
X2026029Y-10498746D02*
X2016505Y-10489222D01*
X2016505Y-10489222D02*
X1997458Y-10479698D01*
X2159363Y-10393984D02*
X2178410Y-10393984D01*
X2178410Y-10393984D02*
X2197458Y-10403508D01*
X2197458Y-10403508D02*
X2206982Y-10413031D01*
X2206982Y-10413031D02*
X2216505Y-10432079D01*
X2216505Y-10432079D02*
X2226029Y-10470174D01*
X2226029Y-10470174D02*
X2226029Y-10517793D01*
X2226029Y-10517793D02*
X2216505Y-10555889D01*
X2216505Y-10555889D02*
X2206982Y-10574936D01*
X2206982Y-10574936D02*
X2197458Y-10584460D01*
X2197458Y-10584460D02*
X2178410Y-10593984D01*
X2178410Y-10593984D02*
X2159363Y-10593984D01*
X2159363Y-10593984D02*
X2140315Y-10584460D01*
X2140315Y-10584460D02*
X2130791Y-10574936D01*
X2130791Y-10574936D02*
X2121267Y-10555889D01*
X2121267Y-10555889D02*
X2111744Y-10517793D01*
X2111744Y-10517793D02*
X2111744Y-10470174D01*
X2111744Y-10470174D02*
X2121267Y-10432079D01*
X2121267Y-10432079D02*
X2130791Y-10413031D01*
X2130791Y-10413031D02*
X2140315Y-10403508D01*
X2140315Y-10403508D02*
X2159363Y-10393984D01*
X2349839Y-10393984D02*
X2368886Y-10393984D01*
X2368886Y-10393984D02*
X2387934Y-10403508D01*
X2387934Y-10403508D02*
X2397458Y-10413031D01*
X2397458Y-10413031D02*
X2406982Y-10432079D01*
X2406982Y-10432079D02*
X2416505Y-10470174D01*
X2416505Y-10470174D02*
X2416505Y-10517793D01*
X2416505Y-10517793D02*
X2406982Y-10555889D01*
X2406982Y-10555889D02*
X2397458Y-10574936D01*
X2397458Y-10574936D02*
X2387934Y-10584460D01*
X2387934Y-10584460D02*
X2368886Y-10593984D01*
X2368886Y-10593984D02*
X2349839Y-10593984D01*
X2349839Y-10593984D02*
X2330791Y-10584460D01*
X2330791Y-10584460D02*
X2321267Y-10574936D01*
X2321267Y-10574936D02*
X2311744Y-10555889D01*
X2311744Y-10555889D02*
X2302220Y-10517793D01*
X2302220Y-10517793D02*
X2302220Y-10470174D01*
X2302220Y-10470174D02*
X2311744Y-10432079D01*
X2311744Y-10432079D02*
X2321267Y-10413031D01*
X2321267Y-10413031D02*
X2330791Y-10403508D01*
X2330791Y-10403508D02*
X2349839Y-10393984D01*
X2502220Y-10593984D02*
X2502220Y-10460650D01*
X2502220Y-10479698D02*
X2511744Y-10470174D01*
X2511744Y-10470174D02*
X2530791Y-10460650D01*
X2530791Y-10460650D02*
X2559363Y-10460650D01*
X2559363Y-10460650D02*
X2578410Y-10470174D01*
X2578410Y-10470174D02*
X2587934Y-10489222D01*
X2587934Y-10489222D02*
X2587934Y-10593984D01*
X2587934Y-10489222D02*
X2597458Y-10470174D01*
X2597458Y-10470174D02*
X2616505Y-10460650D01*
X2616505Y-10460650D02*
X2645077Y-10460650D01*
X2645077Y-10460650D02*
X2664125Y-10470174D01*
X2664125Y-10470174D02*
X2673648Y-10489222D01*
X2673648Y-10489222D02*
X2673648Y-10593984D01*
X2768886Y-10593984D02*
X2768886Y-10460650D01*
X2768886Y-10479698D02*
X2778410Y-10470174D01*
X2778410Y-10470174D02*
X2797458Y-10460650D01*
X2797458Y-10460650D02*
X2826029Y-10460650D01*
X2826029Y-10460650D02*
X2845077Y-10470174D01*
X2845077Y-10470174D02*
X2854601Y-10489222D01*
X2854601Y-10489222D02*
X2854601Y-10593984D01*
X2854601Y-10489222D02*
X2864124Y-10470174D01*
X2864124Y-10470174D02*
X2883172Y-10460650D01*
X2883172Y-10460650D02*
X2911743Y-10460650D01*
X2911743Y-10460650D02*
X2930791Y-10470174D01*
X2930791Y-10470174D02*
X2940315Y-10489222D01*
X2940315Y-10489222D02*
X2940315Y-10593984D01*
X3330791Y-10384460D02*
X3159363Y-10641603D01*
X3587934Y-10393984D02*
X3606982Y-10393984D01*
X3606982Y-10393984D02*
X3626029Y-10403508D01*
X3626029Y-10403508D02*
X3635553Y-10413031D01*
X3635553Y-10413031D02*
X3645077Y-10432079D01*
X3645077Y-10432079D02*
X3654601Y-10470174D01*
X3654601Y-10470174D02*
X3654601Y-10517793D01*
X3654601Y-10517793D02*
X3645077Y-10555889D01*
X3645077Y-10555889D02*
X3635553Y-10574936D01*
X3635553Y-10574936D02*
X3626029Y-10584460D01*
X3626029Y-10584460D02*
X3606982Y-10593984D01*
X3606982Y-10593984D02*
X3587934Y-10593984D01*
X3587934Y-10593984D02*
X3568886Y-10584460D01*
X3568886Y-10584460D02*
X3559363Y-10574936D01*
X3559363Y-10574936D02*
X3549839Y-10555889D01*
X3549839Y-10555889D02*
X3540315Y-10517793D01*
X3540315Y-10517793D02*
X3540315Y-10470174D01*
X3540315Y-10470174D02*
X3549839Y-10432079D01*
X3549839Y-10432079D02*
X3559363Y-10413031D01*
X3559363Y-10413031D02*
X3568886Y-10403508D01*
X3568886Y-10403508D02*
X3587934Y-10393984D01*
X3740315Y-10574936D02*
X3749839Y-10584460D01*
X3749839Y-10584460D02*
X3740315Y-10593984D01*
X3740315Y-10593984D02*
X3730791Y-10584460D01*
X3730791Y-10584460D02*
X3740315Y-10574936D01*
X3740315Y-10574936D02*
X3740315Y-10593984D01*
X3873648Y-10393984D02*
X3892696Y-10393984D01*
X3892696Y-10393984D02*
X3911744Y-10403508D01*
X3911744Y-10403508D02*
X3921267Y-10413031D01*
X3921267Y-10413031D02*
X3930791Y-10432079D01*
X3930791Y-10432079D02*
X3940315Y-10470174D01*
X3940315Y-10470174D02*
X3940315Y-10517793D01*
X3940315Y-10517793D02*
X3930791Y-10555889D01*
X3930791Y-10555889D02*
X3921267Y-10574936D01*
X3921267Y-10574936D02*
X3911744Y-10584460D01*
X3911744Y-10584460D02*
X3892696Y-10593984D01*
X3892696Y-10593984D02*
X3873648Y-10593984D01*
X3873648Y-10593984D02*
X3854601Y-10584460D01*
X3854601Y-10584460D02*
X3845077Y-10574936D01*
X3845077Y-10574936D02*
X3835553Y-10555889D01*
X3835553Y-10555889D02*
X3826029Y-10517793D01*
X3826029Y-10517793D02*
X3826029Y-10470174D01*
X3826029Y-10470174D02*
X3835553Y-10432079D01*
X3835553Y-10432079D02*
X3845077Y-10413031D01*
X3845077Y-10413031D02*
X3854601Y-10403508D01*
X3854601Y-10403508D02*
X3873648Y-10393984D01*
X4006982Y-10393984D02*
X4130791Y-10393984D01*
X4130791Y-10393984D02*
X4064125Y-10470174D01*
X4064125Y-10470174D02*
X4092696Y-10470174D01*
X4092696Y-10470174D02*
X4111744Y-10479698D01*
X4111744Y-10479698D02*
X4121267Y-10489222D01*
X4121267Y-10489222D02*
X4130791Y-10508270D01*
X4130791Y-10508270D02*
X4130791Y-10555889D01*
X4130791Y-10555889D02*
X4121267Y-10574936D01*
X4121267Y-10574936D02*
X4111744Y-10584460D01*
X4111744Y-10584460D02*
X4092696Y-10593984D01*
X4092696Y-10593984D02*
X4035553Y-10593984D01*
X4035553Y-10593984D02*
X4016506Y-10584460D01*
X4016506Y-10584460D02*
X4006982Y-10574936D01*
X4321268Y-10593984D02*
X4206982Y-10593984D01*
X4264125Y-10593984D02*
X4264125Y-10393984D01*
X4264125Y-10393984D02*
X4245077Y-10422555D01*
X4245077Y-10422555D02*
X4226029Y-10441603D01*
X4226029Y-10441603D02*
X4206982Y-10451127D01*
X4502220Y-10393984D02*
X4406982Y-10393984D01*
X4406982Y-10393984D02*
X4397458Y-10489222D01*
X4397458Y-10489222D02*
X4406982Y-10479698D01*
X4406982Y-10479698D02*
X4426029Y-10470174D01*
X4426029Y-10470174D02*
X4473649Y-10470174D01*
X4473649Y-10470174D02*
X4492696Y-10479698D01*
X4492696Y-10479698D02*
X4502220Y-10489222D01*
X4502220Y-10489222D02*
X4511744Y-10508270D01*
X4511744Y-10508270D02*
X4511744Y-10555889D01*
X4511744Y-10555889D02*
X4502220Y-10574936D01*
X4502220Y-10574936D02*
X4492696Y-10584460D01*
X4492696Y-10584460D02*
X4473649Y-10593984D01*
X4473649Y-10593984D02*
X4426029Y-10593984D01*
X4426029Y-10593984D02*
X4406982Y-10584460D01*
X4406982Y-10584460D02*
X4397458Y-10574936D01*
X4587934Y-10393984D02*
X4587934Y-10432079D01*
X4664125Y-10393984D02*
X4664125Y-10432079D01*
X4959363Y-10670174D02*
X4949839Y-10660650D01*
X4949839Y-10660650D02*
X4930791Y-10632079D01*
X4930791Y-10632079D02*
X4921268Y-10613031D01*
X4921268Y-10613031D02*
X4911744Y-10584460D01*
X4911744Y-10584460D02*
X4902220Y-10536841D01*
X4902220Y-10536841D02*
X4902220Y-10498746D01*
X4902220Y-10498746D02*
X4911744Y-10451127D01*
X4911744Y-10451127D02*
X4921268Y-10422555D01*
X4921268Y-10422555D02*
X4930791Y-10403508D01*
X4930791Y-10403508D02*
X4949839Y-10374936D01*
X4949839Y-10374936D02*
X4959363Y-10365412D01*
X5016506Y-10393984D02*
X5140315Y-10393984D01*
X5140315Y-10393984D02*
X5073649Y-10470174D01*
X5073649Y-10470174D02*
X5102220Y-10470174D01*
X5102220Y-10470174D02*
X5121268Y-10479698D01*
X5121268Y-10479698D02*
X5130791Y-10489222D01*
X5130791Y-10489222D02*
X5140315Y-10508270D01*
X5140315Y-10508270D02*
X5140315Y-10555889D01*
X5140315Y-10555889D02*
X5130791Y-10574936D01*
X5130791Y-10574936D02*
X5121268Y-10584460D01*
X5121268Y-10584460D02*
X5102220Y-10593984D01*
X5102220Y-10593984D02*
X5045077Y-10593984D01*
X5045077Y-10593984D02*
X5026030Y-10584460D01*
X5026030Y-10584460D02*
X5016506Y-10574936D01*
X5311744Y-10460650D02*
X5311744Y-10593984D01*
X5264125Y-10384460D02*
X5216506Y-10527317D01*
X5216506Y-10527317D02*
X5340315Y-10527317D01*
X5568887Y-10593984D02*
X5568887Y-10393984D01*
X5654601Y-10593984D02*
X5654601Y-10489222D01*
X5654601Y-10489222D02*
X5645077Y-10470174D01*
X5645077Y-10470174D02*
X5626030Y-10460650D01*
X5626030Y-10460650D02*
X5597458Y-10460650D01*
X5597458Y-10460650D02*
X5578411Y-10470174D01*
X5578411Y-10470174D02*
X5568887Y-10479698D01*
X5778410Y-10593984D02*
X5759363Y-10584460D01*
X5759363Y-10584460D02*
X5749839Y-10574936D01*
X5749839Y-10574936D02*
X5740315Y-10555889D01*
X5740315Y-10555889D02*
X5740315Y-10498746D01*
X5740315Y-10498746D02*
X5749839Y-10479698D01*
X5749839Y-10479698D02*
X5759363Y-10470174D01*
X5759363Y-10470174D02*
X5778410Y-10460650D01*
X5778410Y-10460650D02*
X5806982Y-10460650D01*
X5806982Y-10460650D02*
X5826030Y-10470174D01*
X5826030Y-10470174D02*
X5835553Y-10479698D01*
X5835553Y-10479698D02*
X5845077Y-10498746D01*
X5845077Y-10498746D02*
X5845077Y-10555889D01*
X5845077Y-10555889D02*
X5835553Y-10574936D01*
X5835553Y-10574936D02*
X5826030Y-10584460D01*
X5826030Y-10584460D02*
X5806982Y-10593984D01*
X5806982Y-10593984D02*
X5778410Y-10593984D01*
X5959363Y-10593984D02*
X5940315Y-10584460D01*
X5940315Y-10584460D02*
X5930791Y-10565412D01*
X5930791Y-10565412D02*
X5930791Y-10393984D01*
X6111744Y-10584460D02*
X6092696Y-10593984D01*
X6092696Y-10593984D02*
X6054601Y-10593984D01*
X6054601Y-10593984D02*
X6035553Y-10584460D01*
X6035553Y-10584460D02*
X6026030Y-10565412D01*
X6026030Y-10565412D02*
X6026030Y-10489222D01*
X6026030Y-10489222D02*
X6035553Y-10470174D01*
X6035553Y-10470174D02*
X6054601Y-10460650D01*
X6054601Y-10460650D02*
X6092696Y-10460650D01*
X6092696Y-10460650D02*
X6111744Y-10470174D01*
X6111744Y-10470174D02*
X6121268Y-10489222D01*
X6121268Y-10489222D02*
X6121268Y-10508270D01*
X6121268Y-10508270D02*
X6026030Y-10527317D01*
X6197458Y-10584460D02*
X6216506Y-10593984D01*
X6216506Y-10593984D02*
X6254601Y-10593984D01*
X6254601Y-10593984D02*
X6273649Y-10584460D01*
X6273649Y-10584460D02*
X6283172Y-10565412D01*
X6283172Y-10565412D02*
X6283172Y-10555889D01*
X6283172Y-10555889D02*
X6273649Y-10536841D01*
X6273649Y-10536841D02*
X6254601Y-10527317D01*
X6254601Y-10527317D02*
X6226030Y-10527317D01*
X6226030Y-10527317D02*
X6206982Y-10517793D01*
X6206982Y-10517793D02*
X6197458Y-10498746D01*
X6197458Y-10498746D02*
X6197458Y-10489222D01*
X6197458Y-10489222D02*
X6206982Y-10470174D01*
X6206982Y-10470174D02*
X6226030Y-10460650D01*
X6226030Y-10460650D02*
X6254601Y-10460650D01*
X6254601Y-10460650D02*
X6273649Y-10470174D01*
X6349839Y-10670174D02*
X6359363Y-10660650D01*
X6359363Y-10660650D02*
X6378411Y-10632079D01*
X6378411Y-10632079D02*
X6387934Y-10613031D01*
X6387934Y-10613031D02*
X6397458Y-10584460D01*
X6397458Y-10584460D02*
X6406982Y-10536841D01*
X6406982Y-10536841D02*
X6406982Y-10498746D01*
X6406982Y-10498746D02*
X6397458Y-10451127D01*
X6397458Y-10451127D02*
X6387934Y-10422555D01*
X6387934Y-10422555D02*
X6378411Y-10403508D01*
X6378411Y-10403508D02*
X6359363Y-10374936D01*
X6359363Y-10374936D02*
X6349839Y-10365412D01*
D12*
X1369656Y-10801856D02*
X1369656Y-10731144D01*
X1298944Y-10731144D01*
X1298944Y-10801856D01*
X1369656Y-10801856D01*
D11*
X1749839Y-10857984D02*
X1635553Y-10857984D01*
X1692696Y-10857984D02*
X1692696Y-10657984D01*
X1692696Y-10657984D02*
X1673648Y-10686555D01*
X1673648Y-10686555D02*
X1654601Y-10705603D01*
X1654601Y-10705603D02*
X1635553Y-10715127D01*
X1835553Y-10838936D02*
X1845077Y-10848460D01*
X1845077Y-10848460D02*
X1835553Y-10857984D01*
X1835553Y-10857984D02*
X1826029Y-10848460D01*
X1826029Y-10848460D02*
X1835553Y-10838936D01*
X1835553Y-10838936D02*
X1835553Y-10857984D01*
X1968886Y-10657984D02*
X1987934Y-10657984D01*
X1987934Y-10657984D02*
X2006982Y-10667508D01*
X2006982Y-10667508D02*
X2016505Y-10677031D01*
X2016505Y-10677031D02*
X2026029Y-10696079D01*
X2026029Y-10696079D02*
X2035553Y-10734174D01*
X2035553Y-10734174D02*
X2035553Y-10781793D01*
X2035553Y-10781793D02*
X2026029Y-10819889D01*
X2026029Y-10819889D02*
X2016505Y-10838936D01*
X2016505Y-10838936D02*
X2006982Y-10848460D01*
X2006982Y-10848460D02*
X1987934Y-10857984D01*
X1987934Y-10857984D02*
X1968886Y-10857984D01*
X1968886Y-10857984D02*
X1949839Y-10848460D01*
X1949839Y-10848460D02*
X1940315Y-10838936D01*
X1940315Y-10838936D02*
X1930791Y-10819889D01*
X1930791Y-10819889D02*
X1921267Y-10781793D01*
X1921267Y-10781793D02*
X1921267Y-10734174D01*
X1921267Y-10734174D02*
X1930791Y-10696079D01*
X1930791Y-10696079D02*
X1940315Y-10677031D01*
X1940315Y-10677031D02*
X1949839Y-10667508D01*
X1949839Y-10667508D02*
X1968886Y-10657984D01*
X2159363Y-10657984D02*
X2178410Y-10657984D01*
X2178410Y-10657984D02*
X2197458Y-10667508D01*
X2197458Y-10667508D02*
X2206982Y-10677031D01*
X2206982Y-10677031D02*
X2216505Y-10696079D01*
X2216505Y-10696079D02*
X2226029Y-10734174D01*
X2226029Y-10734174D02*
X2226029Y-10781793D01*
X2226029Y-10781793D02*
X2216505Y-10819889D01*
X2216505Y-10819889D02*
X2206982Y-10838936D01*
X2206982Y-10838936D02*
X2197458Y-10848460D01*
X2197458Y-10848460D02*
X2178410Y-10857984D01*
X2178410Y-10857984D02*
X2159363Y-10857984D01*
X2159363Y-10857984D02*
X2140315Y-10848460D01*
X2140315Y-10848460D02*
X2130791Y-10838936D01*
X2130791Y-10838936D02*
X2121267Y-10819889D01*
X2121267Y-10819889D02*
X2111744Y-10781793D01*
X2111744Y-10781793D02*
X2111744Y-10734174D01*
X2111744Y-10734174D02*
X2121267Y-10696079D01*
X2121267Y-10696079D02*
X2130791Y-10677031D01*
X2130791Y-10677031D02*
X2140315Y-10667508D01*
X2140315Y-10667508D02*
X2159363Y-10657984D01*
X2349839Y-10657984D02*
X2368886Y-10657984D01*
X2368886Y-10657984D02*
X2387934Y-10667508D01*
X2387934Y-10667508D02*
X2397458Y-10677031D01*
X2397458Y-10677031D02*
X2406982Y-10696079D01*
X2406982Y-10696079D02*
X2416505Y-10734174D01*
X2416505Y-10734174D02*
X2416505Y-10781793D01*
X2416505Y-10781793D02*
X2406982Y-10819889D01*
X2406982Y-10819889D02*
X2397458Y-10838936D01*
X2397458Y-10838936D02*
X2387934Y-10848460D01*
X2387934Y-10848460D02*
X2368886Y-10857984D01*
X2368886Y-10857984D02*
X2349839Y-10857984D01*
X2349839Y-10857984D02*
X2330791Y-10848460D01*
X2330791Y-10848460D02*
X2321267Y-10838936D01*
X2321267Y-10838936D02*
X2311744Y-10819889D01*
X2311744Y-10819889D02*
X2302220Y-10781793D01*
X2302220Y-10781793D02*
X2302220Y-10734174D01*
X2302220Y-10734174D02*
X2311744Y-10696079D01*
X2311744Y-10696079D02*
X2321267Y-10677031D01*
X2321267Y-10677031D02*
X2330791Y-10667508D01*
X2330791Y-10667508D02*
X2349839Y-10657984D01*
X2502220Y-10857984D02*
X2502220Y-10724650D01*
X2502220Y-10743698D02*
X2511744Y-10734174D01*
X2511744Y-10734174D02*
X2530791Y-10724650D01*
X2530791Y-10724650D02*
X2559363Y-10724650D01*
X2559363Y-10724650D02*
X2578410Y-10734174D01*
X2578410Y-10734174D02*
X2587934Y-10753222D01*
X2587934Y-10753222D02*
X2587934Y-10857984D01*
X2587934Y-10753222D02*
X2597458Y-10734174D01*
X2597458Y-10734174D02*
X2616505Y-10724650D01*
X2616505Y-10724650D02*
X2645077Y-10724650D01*
X2645077Y-10724650D02*
X2664125Y-10734174D01*
X2664125Y-10734174D02*
X2673648Y-10753222D01*
X2673648Y-10753222D02*
X2673648Y-10857984D01*
X2768886Y-10857984D02*
X2768886Y-10724650D01*
X2768886Y-10743698D02*
X2778410Y-10734174D01*
X2778410Y-10734174D02*
X2797458Y-10724650D01*
X2797458Y-10724650D02*
X2826029Y-10724650D01*
X2826029Y-10724650D02*
X2845077Y-10734174D01*
X2845077Y-10734174D02*
X2854601Y-10753222D01*
X2854601Y-10753222D02*
X2854601Y-10857984D01*
X2854601Y-10753222D02*
X2864124Y-10734174D01*
X2864124Y-10734174D02*
X2883172Y-10724650D01*
X2883172Y-10724650D02*
X2911743Y-10724650D01*
X2911743Y-10724650D02*
X2930791Y-10734174D01*
X2930791Y-10734174D02*
X2940315Y-10753222D01*
X2940315Y-10753222D02*
X2940315Y-10857984D01*
X3330791Y-10648460D02*
X3159363Y-10905603D01*
X3587934Y-10657984D02*
X3606982Y-10657984D01*
X3606982Y-10657984D02*
X3626029Y-10667508D01*
X3626029Y-10667508D02*
X3635553Y-10677031D01*
X3635553Y-10677031D02*
X3645077Y-10696079D01*
X3645077Y-10696079D02*
X3654601Y-10734174D01*
X3654601Y-10734174D02*
X3654601Y-10781793D01*
X3654601Y-10781793D02*
X3645077Y-10819889D01*
X3645077Y-10819889D02*
X3635553Y-10838936D01*
X3635553Y-10838936D02*
X3626029Y-10848460D01*
X3626029Y-10848460D02*
X3606982Y-10857984D01*
X3606982Y-10857984D02*
X3587934Y-10857984D01*
X3587934Y-10857984D02*
X3568886Y-10848460D01*
X3568886Y-10848460D02*
X3559363Y-10838936D01*
X3559363Y-10838936D02*
X3549839Y-10819889D01*
X3549839Y-10819889D02*
X3540315Y-10781793D01*
X3540315Y-10781793D02*
X3540315Y-10734174D01*
X3540315Y-10734174D02*
X3549839Y-10696079D01*
X3549839Y-10696079D02*
X3559363Y-10677031D01*
X3559363Y-10677031D02*
X3568886Y-10667508D01*
X3568886Y-10667508D02*
X3587934Y-10657984D01*
X3740315Y-10838936D02*
X3749839Y-10848460D01*
X3749839Y-10848460D02*
X3740315Y-10857984D01*
X3740315Y-10857984D02*
X3730791Y-10848460D01*
X3730791Y-10848460D02*
X3740315Y-10838936D01*
X3740315Y-10838936D02*
X3740315Y-10857984D01*
X3873648Y-10657984D02*
X3892696Y-10657984D01*
X3892696Y-10657984D02*
X3911744Y-10667508D01*
X3911744Y-10667508D02*
X3921267Y-10677031D01*
X3921267Y-10677031D02*
X3930791Y-10696079D01*
X3930791Y-10696079D02*
X3940315Y-10734174D01*
X3940315Y-10734174D02*
X3940315Y-10781793D01*
X3940315Y-10781793D02*
X3930791Y-10819889D01*
X3930791Y-10819889D02*
X3921267Y-10838936D01*
X3921267Y-10838936D02*
X3911744Y-10848460D01*
X3911744Y-10848460D02*
X3892696Y-10857984D01*
X3892696Y-10857984D02*
X3873648Y-10857984D01*
X3873648Y-10857984D02*
X3854601Y-10848460D01*
X3854601Y-10848460D02*
X3845077Y-10838936D01*
X3845077Y-10838936D02*
X3835553Y-10819889D01*
X3835553Y-10819889D02*
X3826029Y-10781793D01*
X3826029Y-10781793D02*
X3826029Y-10734174D01*
X3826029Y-10734174D02*
X3835553Y-10696079D01*
X3835553Y-10696079D02*
X3845077Y-10677031D01*
X3845077Y-10677031D02*
X3854601Y-10667508D01*
X3854601Y-10667508D02*
X3873648Y-10657984D01*
X4006982Y-10657984D02*
X4130791Y-10657984D01*
X4130791Y-10657984D02*
X4064125Y-10734174D01*
X4064125Y-10734174D02*
X4092696Y-10734174D01*
X4092696Y-10734174D02*
X4111744Y-10743698D01*
X4111744Y-10743698D02*
X4121267Y-10753222D01*
X4121267Y-10753222D02*
X4130791Y-10772270D01*
X4130791Y-10772270D02*
X4130791Y-10819889D01*
X4130791Y-10819889D02*
X4121267Y-10838936D01*
X4121267Y-10838936D02*
X4111744Y-10848460D01*
X4111744Y-10848460D02*
X4092696Y-10857984D01*
X4092696Y-10857984D02*
X4035553Y-10857984D01*
X4035553Y-10857984D02*
X4016506Y-10848460D01*
X4016506Y-10848460D02*
X4006982Y-10838936D01*
X4226029Y-10857984D02*
X4264125Y-10857984D01*
X4264125Y-10857984D02*
X4283172Y-10848460D01*
X4283172Y-10848460D02*
X4292696Y-10838936D01*
X4292696Y-10838936D02*
X4311744Y-10810365D01*
X4311744Y-10810365D02*
X4321268Y-10772270D01*
X4321268Y-10772270D02*
X4321268Y-10696079D01*
X4321268Y-10696079D02*
X4311744Y-10677031D01*
X4311744Y-10677031D02*
X4302220Y-10667508D01*
X4302220Y-10667508D02*
X4283172Y-10657984D01*
X4283172Y-10657984D02*
X4245077Y-10657984D01*
X4245077Y-10657984D02*
X4226029Y-10667508D01*
X4226029Y-10667508D02*
X4216506Y-10677031D01*
X4216506Y-10677031D02*
X4206982Y-10696079D01*
X4206982Y-10696079D02*
X4206982Y-10743698D01*
X4206982Y-10743698D02*
X4216506Y-10762746D01*
X4216506Y-10762746D02*
X4226029Y-10772270D01*
X4226029Y-10772270D02*
X4245077Y-10781793D01*
X4245077Y-10781793D02*
X4283172Y-10781793D01*
X4283172Y-10781793D02*
X4302220Y-10772270D01*
X4302220Y-10772270D02*
X4311744Y-10762746D01*
X4311744Y-10762746D02*
X4321268Y-10743698D01*
X4492696Y-10724650D02*
X4492696Y-10857984D01*
X4445077Y-10648460D02*
X4397458Y-10791317D01*
X4397458Y-10791317D02*
X4521268Y-10791317D01*
X4587934Y-10657984D02*
X4587934Y-10696079D01*
X4664125Y-10657984D02*
X4664125Y-10696079D01*
X4959363Y-10934174D02*
X4949839Y-10924650D01*
X4949839Y-10924650D02*
X4930791Y-10896079D01*
X4930791Y-10896079D02*
X4921268Y-10877031D01*
X4921268Y-10877031D02*
X4911744Y-10848460D01*
X4911744Y-10848460D02*
X4902220Y-10800841D01*
X4902220Y-10800841D02*
X4902220Y-10762746D01*
X4902220Y-10762746D02*
X4911744Y-10715127D01*
X4911744Y-10715127D02*
X4921268Y-10686555D01*
X4921268Y-10686555D02*
X4930791Y-10667508D01*
X4930791Y-10667508D02*
X4949839Y-10638936D01*
X4949839Y-10638936D02*
X4959363Y-10629412D01*
X5026030Y-10677031D02*
X5035553Y-10667508D01*
X5035553Y-10667508D02*
X5054601Y-10657984D01*
X5054601Y-10657984D02*
X5102220Y-10657984D01*
X5102220Y-10657984D02*
X5121268Y-10667508D01*
X5121268Y-10667508D02*
X5130791Y-10677031D01*
X5130791Y-10677031D02*
X5140315Y-10696079D01*
X5140315Y-10696079D02*
X5140315Y-10715127D01*
X5140315Y-10715127D02*
X5130791Y-10743698D01*
X5130791Y-10743698D02*
X5016506Y-10857984D01*
X5016506Y-10857984D02*
X5140315Y-10857984D01*
X5321268Y-10657984D02*
X5226030Y-10657984D01*
X5226030Y-10657984D02*
X5216506Y-10753222D01*
X5216506Y-10753222D02*
X5226030Y-10743698D01*
X5226030Y-10743698D02*
X5245077Y-10734174D01*
X5245077Y-10734174D02*
X5292696Y-10734174D01*
X5292696Y-10734174D02*
X5311744Y-10743698D01*
X5311744Y-10743698D02*
X5321268Y-10753222D01*
X5321268Y-10753222D02*
X5330791Y-10772270D01*
X5330791Y-10772270D02*
X5330791Y-10819889D01*
X5330791Y-10819889D02*
X5321268Y-10838936D01*
X5321268Y-10838936D02*
X5311744Y-10848460D01*
X5311744Y-10848460D02*
X5292696Y-10857984D01*
X5292696Y-10857984D02*
X5245077Y-10857984D01*
X5245077Y-10857984D02*
X5226030Y-10848460D01*
X5226030Y-10848460D02*
X5216506Y-10838936D01*
X5568887Y-10857984D02*
X5568887Y-10657984D01*
X5654601Y-10857984D02*
X5654601Y-10753222D01*
X5654601Y-10753222D02*
X5645077Y-10734174D01*
X5645077Y-10734174D02*
X5626030Y-10724650D01*
X5626030Y-10724650D02*
X5597458Y-10724650D01*
X5597458Y-10724650D02*
X5578411Y-10734174D01*
X5578411Y-10734174D02*
X5568887Y-10743698D01*
X5778410Y-10857984D02*
X5759363Y-10848460D01*
X5759363Y-10848460D02*
X5749839Y-10838936D01*
X5749839Y-10838936D02*
X5740315Y-10819889D01*
X5740315Y-10819889D02*
X5740315Y-10762746D01*
X5740315Y-10762746D02*
X5749839Y-10743698D01*
X5749839Y-10743698D02*
X5759363Y-10734174D01*
X5759363Y-10734174D02*
X5778410Y-10724650D01*
X5778410Y-10724650D02*
X5806982Y-10724650D01*
X5806982Y-10724650D02*
X5826030Y-10734174D01*
X5826030Y-10734174D02*
X5835553Y-10743698D01*
X5835553Y-10743698D02*
X5845077Y-10762746D01*
X5845077Y-10762746D02*
X5845077Y-10819889D01*
X5845077Y-10819889D02*
X5835553Y-10838936D01*
X5835553Y-10838936D02*
X5826030Y-10848460D01*
X5826030Y-10848460D02*
X5806982Y-10857984D01*
X5806982Y-10857984D02*
X5778410Y-10857984D01*
X5959363Y-10857984D02*
X5940315Y-10848460D01*
X5940315Y-10848460D02*
X5930791Y-10829412D01*
X5930791Y-10829412D02*
X5930791Y-10657984D01*
X6111744Y-10848460D02*
X6092696Y-10857984D01*
X6092696Y-10857984D02*
X6054601Y-10857984D01*
X6054601Y-10857984D02*
X6035553Y-10848460D01*
X6035553Y-10848460D02*
X6026030Y-10829412D01*
X6026030Y-10829412D02*
X6026030Y-10753222D01*
X6026030Y-10753222D02*
X6035553Y-10734174D01*
X6035553Y-10734174D02*
X6054601Y-10724650D01*
X6054601Y-10724650D02*
X6092696Y-10724650D01*
X6092696Y-10724650D02*
X6111744Y-10734174D01*
X6111744Y-10734174D02*
X6121268Y-10753222D01*
X6121268Y-10753222D02*
X6121268Y-10772270D01*
X6121268Y-10772270D02*
X6026030Y-10791317D01*
X6197458Y-10848460D02*
X6216506Y-10857984D01*
X6216506Y-10857984D02*
X6254601Y-10857984D01*
X6254601Y-10857984D02*
X6273649Y-10848460D01*
X6273649Y-10848460D02*
X6283172Y-10829412D01*
X6283172Y-10829412D02*
X6283172Y-10819889D01*
X6283172Y-10819889D02*
X6273649Y-10800841D01*
X6273649Y-10800841D02*
X6254601Y-10791317D01*
X6254601Y-10791317D02*
X6226030Y-10791317D01*
X6226030Y-10791317D02*
X6206982Y-10781793D01*
X6206982Y-10781793D02*
X6197458Y-10762746D01*
X6197458Y-10762746D02*
X6197458Y-10753222D01*
X6197458Y-10753222D02*
X6206982Y-10734174D01*
X6206982Y-10734174D02*
X6226030Y-10724650D01*
X6226030Y-10724650D02*
X6254601Y-10724650D01*
X6254601Y-10724650D02*
X6273649Y-10734174D01*
X6521268Y-10781793D02*
X6673649Y-10781793D01*
X6597458Y-10857984D02*
X6597458Y-10705603D01*
X6902220Y-10657984D02*
X7026030Y-10657984D01*
X7026030Y-10657984D02*
X6959363Y-10734174D01*
X6959363Y-10734174D02*
X6987934Y-10734174D01*
X6987934Y-10734174D02*
X7006982Y-10743698D01*
X7006982Y-10743698D02*
X7016506Y-10753222D01*
X7016506Y-10753222D02*
X7026030Y-10772270D01*
X7026030Y-10772270D02*
X7026030Y-10819889D01*
X7026030Y-10819889D02*
X7016506Y-10838936D01*
X7016506Y-10838936D02*
X7006982Y-10848460D01*
X7006982Y-10848460D02*
X6987934Y-10857984D01*
X6987934Y-10857984D02*
X6930792Y-10857984D01*
X6930792Y-10857984D02*
X6911744Y-10848460D01*
X6911744Y-10848460D02*
X6902220Y-10838936D01*
X7254601Y-10848460D02*
X7273649Y-10857984D01*
X7273649Y-10857984D02*
X7311744Y-10857984D01*
X7311744Y-10857984D02*
X7330792Y-10848460D01*
X7330792Y-10848460D02*
X7340315Y-10829412D01*
X7340315Y-10829412D02*
X7340315Y-10819889D01*
X7340315Y-10819889D02*
X7330792Y-10800841D01*
X7330792Y-10800841D02*
X7311744Y-10791317D01*
X7311744Y-10791317D02*
X7283173Y-10791317D01*
X7283173Y-10791317D02*
X7264125Y-10781793D01*
X7264125Y-10781793D02*
X7254601Y-10762746D01*
X7254601Y-10762746D02*
X7254601Y-10753222D01*
X7254601Y-10753222D02*
X7264125Y-10734174D01*
X7264125Y-10734174D02*
X7283173Y-10724650D01*
X7283173Y-10724650D02*
X7311744Y-10724650D01*
X7311744Y-10724650D02*
X7330792Y-10734174D01*
X7454601Y-10857984D02*
X7435554Y-10848460D01*
X7435554Y-10848460D02*
X7426030Y-10829412D01*
X7426030Y-10829412D02*
X7426030Y-10657984D01*
X7559363Y-10857984D02*
X7540315Y-10848460D01*
X7540315Y-10848460D02*
X7530792Y-10838936D01*
X7530792Y-10838936D02*
X7521268Y-10819889D01*
X7521268Y-10819889D02*
X7521268Y-10762746D01*
X7521268Y-10762746D02*
X7530792Y-10743698D01*
X7530792Y-10743698D02*
X7540315Y-10734174D01*
X7540315Y-10734174D02*
X7559363Y-10724650D01*
X7559363Y-10724650D02*
X7587935Y-10724650D01*
X7587935Y-10724650D02*
X7606982Y-10734174D01*
X7606982Y-10734174D02*
X7616506Y-10743698D01*
X7616506Y-10743698D02*
X7626030Y-10762746D01*
X7626030Y-10762746D02*
X7626030Y-10819889D01*
X7626030Y-10819889D02*
X7616506Y-10838936D01*
X7616506Y-10838936D02*
X7606982Y-10848460D01*
X7606982Y-10848460D02*
X7587935Y-10857984D01*
X7587935Y-10857984D02*
X7559363Y-10857984D01*
X7683173Y-10724650D02*
X7759363Y-10724650D01*
X7711744Y-10657984D02*
X7711744Y-10829412D01*
X7711744Y-10829412D02*
X7721268Y-10848460D01*
X7721268Y-10848460D02*
X7740315Y-10857984D01*
X7740315Y-10857984D02*
X7759363Y-10857984D01*
X7816506Y-10848460D02*
X7835554Y-10857984D01*
X7835554Y-10857984D02*
X7873649Y-10857984D01*
X7873649Y-10857984D02*
X7892696Y-10848460D01*
X7892696Y-10848460D02*
X7902220Y-10829412D01*
X7902220Y-10829412D02*
X7902220Y-10819889D01*
X7902220Y-10819889D02*
X7892696Y-10800841D01*
X7892696Y-10800841D02*
X7873649Y-10791317D01*
X7873649Y-10791317D02*
X7845077Y-10791317D01*
X7845077Y-10791317D02*
X7826030Y-10781793D01*
X7826030Y-10781793D02*
X7816506Y-10762746D01*
X7816506Y-10762746D02*
X7816506Y-10753222D01*
X7816506Y-10753222D02*
X7826030Y-10734174D01*
X7826030Y-10734174D02*
X7845077Y-10724650D01*
X7845077Y-10724650D02*
X7873649Y-10724650D01*
X7873649Y-10724650D02*
X7892696Y-10734174D01*
X7968887Y-10934174D02*
X7978411Y-10924650D01*
X7978411Y-10924650D02*
X7997458Y-10896079D01*
X7997458Y-10896079D02*
X8006982Y-10877031D01*
X8006982Y-10877031D02*
X8016506Y-10848460D01*
X8016506Y-10848460D02*
X8026030Y-10800841D01*
X8026030Y-10800841D02*
X8026030Y-10762746D01*
X8026030Y-10762746D02*
X8016506Y-10715127D01*
X8016506Y-10715127D02*
X8006982Y-10686555D01*
X8006982Y-10686555D02*
X7997458Y-10667508D01*
X7997458Y-10667508D02*
X7978411Y-10638936D01*
X7978411Y-10638936D02*
X7968887Y-10629412D01*
D13*
X1333300Y-11081500D02*
X1384300Y-11030500D01*
X1333300Y-10979500D01*
X1282300Y-11030500D01*
X1333300Y-11081500D01*
D11*
X1749839Y-11121984D02*
X1635553Y-11121984D01*
X1692696Y-11121984D02*
X1692696Y-10921984D01*
X1692696Y-10921984D02*
X1673648Y-10950555D01*
X1673648Y-10950555D02*
X1654601Y-10969603D01*
X1654601Y-10969603D02*
X1635553Y-10979127D01*
X1835553Y-11102936D02*
X1845077Y-11112460D01*
X1845077Y-11112460D02*
X1835553Y-11121984D01*
X1835553Y-11121984D02*
X1826029Y-11112460D01*
X1826029Y-11112460D02*
X1835553Y-11102936D01*
X1835553Y-11102936D02*
X1835553Y-11121984D01*
X1968886Y-10921984D02*
X1987934Y-10921984D01*
X1987934Y-10921984D02*
X2006982Y-10931508D01*
X2006982Y-10931508D02*
X2016505Y-10941031D01*
X2016505Y-10941031D02*
X2026029Y-10960079D01*
X2026029Y-10960079D02*
X2035553Y-10998174D01*
X2035553Y-10998174D02*
X2035553Y-11045793D01*
X2035553Y-11045793D02*
X2026029Y-11083889D01*
X2026029Y-11083889D02*
X2016505Y-11102936D01*
X2016505Y-11102936D02*
X2006982Y-11112460D01*
X2006982Y-11112460D02*
X1987934Y-11121984D01*
X1987934Y-11121984D02*
X1968886Y-11121984D01*
X1968886Y-11121984D02*
X1949839Y-11112460D01*
X1949839Y-11112460D02*
X1940315Y-11102936D01*
X1940315Y-11102936D02*
X1930791Y-11083889D01*
X1930791Y-11083889D02*
X1921267Y-11045793D01*
X1921267Y-11045793D02*
X1921267Y-10998174D01*
X1921267Y-10998174D02*
X1930791Y-10960079D01*
X1930791Y-10960079D02*
X1940315Y-10941031D01*
X1940315Y-10941031D02*
X1949839Y-10931508D01*
X1949839Y-10931508D02*
X1968886Y-10921984D01*
X2111744Y-10941031D02*
X2121267Y-10931508D01*
X2121267Y-10931508D02*
X2140315Y-10921984D01*
X2140315Y-10921984D02*
X2187934Y-10921984D01*
X2187934Y-10921984D02*
X2206982Y-10931508D01*
X2206982Y-10931508D02*
X2216505Y-10941031D01*
X2216505Y-10941031D02*
X2226029Y-10960079D01*
X2226029Y-10960079D02*
X2226029Y-10979127D01*
X2226029Y-10979127D02*
X2216505Y-11007698D01*
X2216505Y-11007698D02*
X2102220Y-11121984D01*
X2102220Y-11121984D02*
X2226029Y-11121984D01*
X2349839Y-10921984D02*
X2368886Y-10921984D01*
X2368886Y-10921984D02*
X2387934Y-10931508D01*
X2387934Y-10931508D02*
X2397458Y-10941031D01*
X2397458Y-10941031D02*
X2406982Y-10960079D01*
X2406982Y-10960079D02*
X2416505Y-10998174D01*
X2416505Y-10998174D02*
X2416505Y-11045793D01*
X2416505Y-11045793D02*
X2406982Y-11083889D01*
X2406982Y-11083889D02*
X2397458Y-11102936D01*
X2397458Y-11102936D02*
X2387934Y-11112460D01*
X2387934Y-11112460D02*
X2368886Y-11121984D01*
X2368886Y-11121984D02*
X2349839Y-11121984D01*
X2349839Y-11121984D02*
X2330791Y-11112460D01*
X2330791Y-11112460D02*
X2321267Y-11102936D01*
X2321267Y-11102936D02*
X2311744Y-11083889D01*
X2311744Y-11083889D02*
X2302220Y-11045793D01*
X2302220Y-11045793D02*
X2302220Y-10998174D01*
X2302220Y-10998174D02*
X2311744Y-10960079D01*
X2311744Y-10960079D02*
X2321267Y-10941031D01*
X2321267Y-10941031D02*
X2330791Y-10931508D01*
X2330791Y-10931508D02*
X2349839Y-10921984D01*
X2502220Y-11121984D02*
X2502220Y-10988650D01*
X2502220Y-11007698D02*
X2511744Y-10998174D01*
X2511744Y-10998174D02*
X2530791Y-10988650D01*
X2530791Y-10988650D02*
X2559363Y-10988650D01*
X2559363Y-10988650D02*
X2578410Y-10998174D01*
X2578410Y-10998174D02*
X2587934Y-11017222D01*
X2587934Y-11017222D02*
X2587934Y-11121984D01*
X2587934Y-11017222D02*
X2597458Y-10998174D01*
X2597458Y-10998174D02*
X2616505Y-10988650D01*
X2616505Y-10988650D02*
X2645077Y-10988650D01*
X2645077Y-10988650D02*
X2664125Y-10998174D01*
X2664125Y-10998174D02*
X2673648Y-11017222D01*
X2673648Y-11017222D02*
X2673648Y-11121984D01*
X2768886Y-11121984D02*
X2768886Y-10988650D01*
X2768886Y-11007698D02*
X2778410Y-10998174D01*
X2778410Y-10998174D02*
X2797458Y-10988650D01*
X2797458Y-10988650D02*
X2826029Y-10988650D01*
X2826029Y-10988650D02*
X2845077Y-10998174D01*
X2845077Y-10998174D02*
X2854601Y-11017222D01*
X2854601Y-11017222D02*
X2854601Y-11121984D01*
X2854601Y-11017222D02*
X2864124Y-10998174D01*
X2864124Y-10998174D02*
X2883172Y-10988650D01*
X2883172Y-10988650D02*
X2911743Y-10988650D01*
X2911743Y-10988650D02*
X2930791Y-10998174D01*
X2930791Y-10998174D02*
X2940315Y-11017222D01*
X2940315Y-11017222D02*
X2940315Y-11121984D01*
X3330791Y-10912460D02*
X3159363Y-11169603D01*
X3587934Y-10921984D02*
X3606982Y-10921984D01*
X3606982Y-10921984D02*
X3626029Y-10931508D01*
X3626029Y-10931508D02*
X3635553Y-10941031D01*
X3635553Y-10941031D02*
X3645077Y-10960079D01*
X3645077Y-10960079D02*
X3654601Y-10998174D01*
X3654601Y-10998174D02*
X3654601Y-11045793D01*
X3654601Y-11045793D02*
X3645077Y-11083889D01*
X3645077Y-11083889D02*
X3635553Y-11102936D01*
X3635553Y-11102936D02*
X3626029Y-11112460D01*
X3626029Y-11112460D02*
X3606982Y-11121984D01*
X3606982Y-11121984D02*
X3587934Y-11121984D01*
X3587934Y-11121984D02*
X3568886Y-11112460D01*
X3568886Y-11112460D02*
X3559363Y-11102936D01*
X3559363Y-11102936D02*
X3549839Y-11083889D01*
X3549839Y-11083889D02*
X3540315Y-11045793D01*
X3540315Y-11045793D02*
X3540315Y-10998174D01*
X3540315Y-10998174D02*
X3549839Y-10960079D01*
X3549839Y-10960079D02*
X3559363Y-10941031D01*
X3559363Y-10941031D02*
X3568886Y-10931508D01*
X3568886Y-10931508D02*
X3587934Y-10921984D01*
X3740315Y-11102936D02*
X3749839Y-11112460D01*
X3749839Y-11112460D02*
X3740315Y-11121984D01*
X3740315Y-11121984D02*
X3730791Y-11112460D01*
X3730791Y-11112460D02*
X3740315Y-11102936D01*
X3740315Y-11102936D02*
X3740315Y-11121984D01*
X3873648Y-10921984D02*
X3892696Y-10921984D01*
X3892696Y-10921984D02*
X3911744Y-10931508D01*
X3911744Y-10931508D02*
X3921267Y-10941031D01*
X3921267Y-10941031D02*
X3930791Y-10960079D01*
X3930791Y-10960079D02*
X3940315Y-10998174D01*
X3940315Y-10998174D02*
X3940315Y-11045793D01*
X3940315Y-11045793D02*
X3930791Y-11083889D01*
X3930791Y-11083889D02*
X3921267Y-11102936D01*
X3921267Y-11102936D02*
X3911744Y-11112460D01*
X3911744Y-11112460D02*
X3892696Y-11121984D01*
X3892696Y-11121984D02*
X3873648Y-11121984D01*
X3873648Y-11121984D02*
X3854601Y-11112460D01*
X3854601Y-11112460D02*
X3845077Y-11102936D01*
X3845077Y-11102936D02*
X3835553Y-11083889D01*
X3835553Y-11083889D02*
X3826029Y-11045793D01*
X3826029Y-11045793D02*
X3826029Y-10998174D01*
X3826029Y-10998174D02*
X3835553Y-10960079D01*
X3835553Y-10960079D02*
X3845077Y-10941031D01*
X3845077Y-10941031D02*
X3854601Y-10931508D01*
X3854601Y-10931508D02*
X3873648Y-10921984D01*
X4111744Y-10988650D02*
X4111744Y-11121984D01*
X4064125Y-10912460D02*
X4016506Y-11055317D01*
X4016506Y-11055317D02*
X4140315Y-11055317D01*
X4254601Y-10921984D02*
X4273649Y-10921984D01*
X4273649Y-10921984D02*
X4292696Y-10931508D01*
X4292696Y-10931508D02*
X4302220Y-10941031D01*
X4302220Y-10941031D02*
X4311744Y-10960079D01*
X4311744Y-10960079D02*
X4321268Y-10998174D01*
X4321268Y-10998174D02*
X4321268Y-11045793D01*
X4321268Y-11045793D02*
X4311744Y-11083889D01*
X4311744Y-11083889D02*
X4302220Y-11102936D01*
X4302220Y-11102936D02*
X4292696Y-11112460D01*
X4292696Y-11112460D02*
X4273649Y-11121984D01*
X4273649Y-11121984D02*
X4254601Y-11121984D01*
X4254601Y-11121984D02*
X4235553Y-11112460D01*
X4235553Y-11112460D02*
X4226029Y-11102936D01*
X4226029Y-11102936D02*
X4216506Y-11083889D01*
X4216506Y-11083889D02*
X4206982Y-11045793D01*
X4206982Y-11045793D02*
X4206982Y-10998174D01*
X4206982Y-10998174D02*
X4216506Y-10960079D01*
X4216506Y-10960079D02*
X4226029Y-10941031D01*
X4226029Y-10941031D02*
X4235553Y-10931508D01*
X4235553Y-10931508D02*
X4254601Y-10921984D01*
X4397458Y-10941031D02*
X4406982Y-10931508D01*
X4406982Y-10931508D02*
X4426029Y-10921984D01*
X4426029Y-10921984D02*
X4473649Y-10921984D01*
X4473649Y-10921984D02*
X4492696Y-10931508D01*
X4492696Y-10931508D02*
X4502220Y-10941031D01*
X4502220Y-10941031D02*
X4511744Y-10960079D01*
X4511744Y-10960079D02*
X4511744Y-10979127D01*
X4511744Y-10979127D02*
X4502220Y-11007698D01*
X4502220Y-11007698D02*
X4387934Y-11121984D01*
X4387934Y-11121984D02*
X4511744Y-11121984D01*
X4587934Y-10921984D02*
X4587934Y-10960079D01*
X4664125Y-10921984D02*
X4664125Y-10960079D01*
X4959363Y-11198174D02*
X4949839Y-11188650D01*
X4949839Y-11188650D02*
X4930791Y-11160079D01*
X4930791Y-11160079D02*
X4921268Y-11141031D01*
X4921268Y-11141031D02*
X4911744Y-11112460D01*
X4911744Y-11112460D02*
X4902220Y-11064841D01*
X4902220Y-11064841D02*
X4902220Y-11026746D01*
X4902220Y-11026746D02*
X4911744Y-10979127D01*
X4911744Y-10979127D02*
X4921268Y-10950555D01*
X4921268Y-10950555D02*
X4930791Y-10931508D01*
X4930791Y-10931508D02*
X4949839Y-10902936D01*
X4949839Y-10902936D02*
X4959363Y-10893412D01*
X5016506Y-10921984D02*
X5140315Y-10921984D01*
X5140315Y-10921984D02*
X5073649Y-10998174D01*
X5073649Y-10998174D02*
X5102220Y-10998174D01*
X5102220Y-10998174D02*
X5121268Y-11007698D01*
X5121268Y-11007698D02*
X5130791Y-11017222D01*
X5130791Y-11017222D02*
X5140315Y-11036270D01*
X5140315Y-11036270D02*
X5140315Y-11083889D01*
X5140315Y-11083889D02*
X5130791Y-11102936D01*
X5130791Y-11102936D02*
X5121268Y-11112460D01*
X5121268Y-11112460D02*
X5102220Y-11121984D01*
X5102220Y-11121984D02*
X5045077Y-11121984D01*
X5045077Y-11121984D02*
X5026030Y-11112460D01*
X5026030Y-11112460D02*
X5016506Y-11102936D01*
X5264125Y-10921984D02*
X5283172Y-10921984D01*
X5283172Y-10921984D02*
X5302220Y-10931508D01*
X5302220Y-10931508D02*
X5311744Y-10941031D01*
X5311744Y-10941031D02*
X5321268Y-10960079D01*
X5321268Y-10960079D02*
X5330791Y-10998174D01*
X5330791Y-10998174D02*
X5330791Y-11045793D01*
X5330791Y-11045793D02*
X5321268Y-11083889D01*
X5321268Y-11083889D02*
X5311744Y-11102936D01*
X5311744Y-11102936D02*
X5302220Y-11112460D01*
X5302220Y-11112460D02*
X5283172Y-11121984D01*
X5283172Y-11121984D02*
X5264125Y-11121984D01*
X5264125Y-11121984D02*
X5245077Y-11112460D01*
X5245077Y-11112460D02*
X5235553Y-11102936D01*
X5235553Y-11102936D02*
X5226030Y-11083889D01*
X5226030Y-11083889D02*
X5216506Y-11045793D01*
X5216506Y-11045793D02*
X5216506Y-10998174D01*
X5216506Y-10998174D02*
X5226030Y-10960079D01*
X5226030Y-10960079D02*
X5235553Y-10941031D01*
X5235553Y-10941031D02*
X5245077Y-10931508D01*
X5245077Y-10931508D02*
X5264125Y-10921984D01*
X5568887Y-11121984D02*
X5568887Y-10921984D01*
X5654601Y-11121984D02*
X5654601Y-11017222D01*
X5654601Y-11017222D02*
X5645077Y-10998174D01*
X5645077Y-10998174D02*
X5626030Y-10988650D01*
X5626030Y-10988650D02*
X5597458Y-10988650D01*
X5597458Y-10988650D02*
X5578411Y-10998174D01*
X5578411Y-10998174D02*
X5568887Y-11007698D01*
X5778410Y-11121984D02*
X5759363Y-11112460D01*
X5759363Y-11112460D02*
X5749839Y-11102936D01*
X5749839Y-11102936D02*
X5740315Y-11083889D01*
X5740315Y-11083889D02*
X5740315Y-11026746D01*
X5740315Y-11026746D02*
X5749839Y-11007698D01*
X5749839Y-11007698D02*
X5759363Y-10998174D01*
X5759363Y-10998174D02*
X5778410Y-10988650D01*
X5778410Y-10988650D02*
X5806982Y-10988650D01*
X5806982Y-10988650D02*
X5826030Y-10998174D01*
X5826030Y-10998174D02*
X5835553Y-11007698D01*
X5835553Y-11007698D02*
X5845077Y-11026746D01*
X5845077Y-11026746D02*
X5845077Y-11083889D01*
X5845077Y-11083889D02*
X5835553Y-11102936D01*
X5835553Y-11102936D02*
X5826030Y-11112460D01*
X5826030Y-11112460D02*
X5806982Y-11121984D01*
X5806982Y-11121984D02*
X5778410Y-11121984D01*
X5959363Y-11121984D02*
X5940315Y-11112460D01*
X5940315Y-11112460D02*
X5930791Y-11093412D01*
X5930791Y-11093412D02*
X5930791Y-10921984D01*
X6111744Y-11112460D02*
X6092696Y-11121984D01*
X6092696Y-11121984D02*
X6054601Y-11121984D01*
X6054601Y-11121984D02*
X6035553Y-11112460D01*
X6035553Y-11112460D02*
X6026030Y-11093412D01*
X6026030Y-11093412D02*
X6026030Y-11017222D01*
X6026030Y-11017222D02*
X6035553Y-10998174D01*
X6035553Y-10998174D02*
X6054601Y-10988650D01*
X6054601Y-10988650D02*
X6092696Y-10988650D01*
X6092696Y-10988650D02*
X6111744Y-10998174D01*
X6111744Y-10998174D02*
X6121268Y-11017222D01*
X6121268Y-11017222D02*
X6121268Y-11036270D01*
X6121268Y-11036270D02*
X6026030Y-11055317D01*
X6197458Y-11112460D02*
X6216506Y-11121984D01*
X6216506Y-11121984D02*
X6254601Y-11121984D01*
X6254601Y-11121984D02*
X6273649Y-11112460D01*
X6273649Y-11112460D02*
X6283172Y-11093412D01*
X6283172Y-11093412D02*
X6283172Y-11083889D01*
X6283172Y-11083889D02*
X6273649Y-11064841D01*
X6273649Y-11064841D02*
X6254601Y-11055317D01*
X6254601Y-11055317D02*
X6226030Y-11055317D01*
X6226030Y-11055317D02*
X6206982Y-11045793D01*
X6206982Y-11045793D02*
X6197458Y-11026746D01*
X6197458Y-11026746D02*
X6197458Y-11017222D01*
X6197458Y-11017222D02*
X6206982Y-10998174D01*
X6206982Y-10998174D02*
X6226030Y-10988650D01*
X6226030Y-10988650D02*
X6254601Y-10988650D01*
X6254601Y-10988650D02*
X6273649Y-10998174D01*
X6349839Y-11198174D02*
X6359363Y-11188650D01*
X6359363Y-11188650D02*
X6378411Y-11160079D01*
X6378411Y-11160079D02*
X6387934Y-11141031D01*
X6387934Y-11141031D02*
X6397458Y-11112460D01*
X6397458Y-11112460D02*
X6406982Y-11064841D01*
X6406982Y-11064841D02*
X6406982Y-11026746D01*
X6406982Y-11026746D02*
X6397458Y-10979127D01*
X6397458Y-10979127D02*
X6387934Y-10950555D01*
X6387934Y-10950555D02*
X6378411Y-10931508D01*
X6378411Y-10931508D02*
X6359363Y-10902936D01*
X6359363Y-10902936D02*
X6349839Y-10893412D01*
D14*
X1254300Y-11229500D02*
X1384300Y-11359500D01*
X1384300Y-11229500D02*
X1254300Y-11359500D01*
X1384300Y-11294500D02*
G75*
G02*
X1254300Y-11294500I-65000J0D01*
G01*
X1254300Y-11294500D02*
G75*
G02*
X1384300Y-11294500I65000J0D01*
G01*
D11*
X1749839Y-11385984D02*
X1635553Y-11385984D01*
X1692696Y-11385984D02*
X1692696Y-11185984D01*
X1692696Y-11185984D02*
X1673648Y-11214555D01*
X1673648Y-11214555D02*
X1654601Y-11233603D01*
X1654601Y-11233603D02*
X1635553Y-11243127D01*
X1835553Y-11366936D02*
X1845077Y-11376460D01*
X1845077Y-11376460D02*
X1835553Y-11385984D01*
X1835553Y-11385984D02*
X1826029Y-11376460D01*
X1826029Y-11376460D02*
X1835553Y-11366936D01*
X1835553Y-11366936D02*
X1835553Y-11385984D01*
X1911743Y-11185984D02*
X2035553Y-11185984D01*
X2035553Y-11185984D02*
X1968886Y-11262174D01*
X1968886Y-11262174D02*
X1997458Y-11262174D01*
X1997458Y-11262174D02*
X2016505Y-11271698D01*
X2016505Y-11271698D02*
X2026029Y-11281222D01*
X2026029Y-11281222D02*
X2035553Y-11300269D01*
X2035553Y-11300269D02*
X2035553Y-11347888D01*
X2035553Y-11347888D02*
X2026029Y-11366936D01*
X2026029Y-11366936D02*
X2016505Y-11376460D01*
X2016505Y-11376460D02*
X1997458Y-11385984D01*
X1997458Y-11385984D02*
X1940315Y-11385984D01*
X1940315Y-11385984D02*
X1921267Y-11376460D01*
X1921267Y-11376460D02*
X1911743Y-11366936D01*
X2159363Y-11185984D02*
X2178410Y-11185984D01*
X2178410Y-11185984D02*
X2197458Y-11195508D01*
X2197458Y-11195508D02*
X2206982Y-11205031D01*
X2206982Y-11205031D02*
X2216505Y-11224079D01*
X2216505Y-11224079D02*
X2226029Y-11262174D01*
X2226029Y-11262174D02*
X2226029Y-11309793D01*
X2226029Y-11309793D02*
X2216505Y-11347888D01*
X2216505Y-11347888D02*
X2206982Y-11366936D01*
X2206982Y-11366936D02*
X2197458Y-11376460D01*
X2197458Y-11376460D02*
X2178410Y-11385984D01*
X2178410Y-11385984D02*
X2159363Y-11385984D01*
X2159363Y-11385984D02*
X2140315Y-11376460D01*
X2140315Y-11376460D02*
X2130791Y-11366936D01*
X2130791Y-11366936D02*
X2121267Y-11347888D01*
X2121267Y-11347888D02*
X2111744Y-11309793D01*
X2111744Y-11309793D02*
X2111744Y-11262174D01*
X2111744Y-11262174D02*
X2121267Y-11224079D01*
X2121267Y-11224079D02*
X2130791Y-11205031D01*
X2130791Y-11205031D02*
X2140315Y-11195508D01*
X2140315Y-11195508D02*
X2159363Y-11185984D01*
X2349839Y-11185984D02*
X2368886Y-11185984D01*
X2368886Y-11185984D02*
X2387934Y-11195508D01*
X2387934Y-11195508D02*
X2397458Y-11205031D01*
X2397458Y-11205031D02*
X2406982Y-11224079D01*
X2406982Y-11224079D02*
X2416505Y-11262174D01*
X2416505Y-11262174D02*
X2416505Y-11309793D01*
X2416505Y-11309793D02*
X2406982Y-11347888D01*
X2406982Y-11347888D02*
X2397458Y-11366936D01*
X2397458Y-11366936D02*
X2387934Y-11376460D01*
X2387934Y-11376460D02*
X2368886Y-11385984D01*
X2368886Y-11385984D02*
X2349839Y-11385984D01*
X2349839Y-11385984D02*
X2330791Y-11376460D01*
X2330791Y-11376460D02*
X2321267Y-11366936D01*
X2321267Y-11366936D02*
X2311744Y-11347888D01*
X2311744Y-11347888D02*
X2302220Y-11309793D01*
X2302220Y-11309793D02*
X2302220Y-11262174D01*
X2302220Y-11262174D02*
X2311744Y-11224079D01*
X2311744Y-11224079D02*
X2321267Y-11205031D01*
X2321267Y-11205031D02*
X2330791Y-11195508D01*
X2330791Y-11195508D02*
X2349839Y-11185984D01*
X2502220Y-11385984D02*
X2502220Y-11252650D01*
X2502220Y-11271698D02*
X2511744Y-11262174D01*
X2511744Y-11262174D02*
X2530791Y-11252650D01*
X2530791Y-11252650D02*
X2559363Y-11252650D01*
X2559363Y-11252650D02*
X2578410Y-11262174D01*
X2578410Y-11262174D02*
X2587934Y-11281222D01*
X2587934Y-11281222D02*
X2587934Y-11385984D01*
X2587934Y-11281222D02*
X2597458Y-11262174D01*
X2597458Y-11262174D02*
X2616505Y-11252650D01*
X2616505Y-11252650D02*
X2645077Y-11252650D01*
X2645077Y-11252650D02*
X2664125Y-11262174D01*
X2664125Y-11262174D02*
X2673648Y-11281222D01*
X2673648Y-11281222D02*
X2673648Y-11385984D01*
X2768886Y-11385984D02*
X2768886Y-11252650D01*
X2768886Y-11271698D02*
X2778410Y-11262174D01*
X2778410Y-11262174D02*
X2797458Y-11252650D01*
X2797458Y-11252650D02*
X2826029Y-11252650D01*
X2826029Y-11252650D02*
X2845077Y-11262174D01*
X2845077Y-11262174D02*
X2854601Y-11281222D01*
X2854601Y-11281222D02*
X2854601Y-11385984D01*
X2854601Y-11281222D02*
X2864124Y-11262174D01*
X2864124Y-11262174D02*
X2883172Y-11252650D01*
X2883172Y-11252650D02*
X2911743Y-11252650D01*
X2911743Y-11252650D02*
X2930791Y-11262174D01*
X2930791Y-11262174D02*
X2940315Y-11281222D01*
X2940315Y-11281222D02*
X2940315Y-11385984D01*
X3330791Y-11176460D02*
X3159363Y-11433603D01*
X3587934Y-11185984D02*
X3606982Y-11185984D01*
X3606982Y-11185984D02*
X3626029Y-11195508D01*
X3626029Y-11195508D02*
X3635553Y-11205031D01*
X3635553Y-11205031D02*
X3645077Y-11224079D01*
X3645077Y-11224079D02*
X3654601Y-11262174D01*
X3654601Y-11262174D02*
X3654601Y-11309793D01*
X3654601Y-11309793D02*
X3645077Y-11347888D01*
X3645077Y-11347888D02*
X3635553Y-11366936D01*
X3635553Y-11366936D02*
X3626029Y-11376460D01*
X3626029Y-11376460D02*
X3606982Y-11385984D01*
X3606982Y-11385984D02*
X3587934Y-11385984D01*
X3587934Y-11385984D02*
X3568886Y-11376460D01*
X3568886Y-11376460D02*
X3559363Y-11366936D01*
X3559363Y-11366936D02*
X3549839Y-11347888D01*
X3549839Y-11347888D02*
X3540315Y-11309793D01*
X3540315Y-11309793D02*
X3540315Y-11262174D01*
X3540315Y-11262174D02*
X3549839Y-11224079D01*
X3549839Y-11224079D02*
X3559363Y-11205031D01*
X3559363Y-11205031D02*
X3568886Y-11195508D01*
X3568886Y-11195508D02*
X3587934Y-11185984D01*
X3740315Y-11366936D02*
X3749839Y-11376460D01*
X3749839Y-11376460D02*
X3740315Y-11385984D01*
X3740315Y-11385984D02*
X3730791Y-11376460D01*
X3730791Y-11376460D02*
X3740315Y-11366936D01*
X3740315Y-11366936D02*
X3740315Y-11385984D01*
X3873648Y-11185984D02*
X3892696Y-11185984D01*
X3892696Y-11185984D02*
X3911744Y-11195508D01*
X3911744Y-11195508D02*
X3921267Y-11205031D01*
X3921267Y-11205031D02*
X3930791Y-11224079D01*
X3930791Y-11224079D02*
X3940315Y-11262174D01*
X3940315Y-11262174D02*
X3940315Y-11309793D01*
X3940315Y-11309793D02*
X3930791Y-11347888D01*
X3930791Y-11347888D02*
X3921267Y-11366936D01*
X3921267Y-11366936D02*
X3911744Y-11376460D01*
X3911744Y-11376460D02*
X3892696Y-11385984D01*
X3892696Y-11385984D02*
X3873648Y-11385984D01*
X3873648Y-11385984D02*
X3854601Y-11376460D01*
X3854601Y-11376460D02*
X3845077Y-11366936D01*
X3845077Y-11366936D02*
X3835553Y-11347888D01*
X3835553Y-11347888D02*
X3826029Y-11309793D01*
X3826029Y-11309793D02*
X3826029Y-11262174D01*
X3826029Y-11262174D02*
X3835553Y-11224079D01*
X3835553Y-11224079D02*
X3845077Y-11205031D01*
X3845077Y-11205031D02*
X3854601Y-11195508D01*
X3854601Y-11195508D02*
X3873648Y-11185984D01*
X4121267Y-11185984D02*
X4026029Y-11185984D01*
X4026029Y-11185984D02*
X4016506Y-11281222D01*
X4016506Y-11281222D02*
X4026029Y-11271698D01*
X4026029Y-11271698D02*
X4045077Y-11262174D01*
X4045077Y-11262174D02*
X4092696Y-11262174D01*
X4092696Y-11262174D02*
X4111744Y-11271698D01*
X4111744Y-11271698D02*
X4121267Y-11281222D01*
X4121267Y-11281222D02*
X4130791Y-11300269D01*
X4130791Y-11300269D02*
X4130791Y-11347888D01*
X4130791Y-11347888D02*
X4121267Y-11366936D01*
X4121267Y-11366936D02*
X4111744Y-11376460D01*
X4111744Y-11376460D02*
X4092696Y-11385984D01*
X4092696Y-11385984D02*
X4045077Y-11385984D01*
X4045077Y-11385984D02*
X4026029Y-11376460D01*
X4026029Y-11376460D02*
X4016506Y-11366936D01*
X4321268Y-11385984D02*
X4206982Y-11385984D01*
X4264125Y-11385984D02*
X4264125Y-11185984D01*
X4264125Y-11185984D02*
X4245077Y-11214555D01*
X4245077Y-11214555D02*
X4226029Y-11233603D01*
X4226029Y-11233603D02*
X4206982Y-11243127D01*
X4397458Y-11205031D02*
X4406982Y-11195508D01*
X4406982Y-11195508D02*
X4426029Y-11185984D01*
X4426029Y-11185984D02*
X4473649Y-11185984D01*
X4473649Y-11185984D02*
X4492696Y-11195508D01*
X4492696Y-11195508D02*
X4502220Y-11205031D01*
X4502220Y-11205031D02*
X4511744Y-11224079D01*
X4511744Y-11224079D02*
X4511744Y-11243127D01*
X4511744Y-11243127D02*
X4502220Y-11271698D01*
X4502220Y-11271698D02*
X4387934Y-11385984D01*
X4387934Y-11385984D02*
X4511744Y-11385984D01*
X4587934Y-11185984D02*
X4587934Y-11224079D01*
X4664125Y-11185984D02*
X4664125Y-11224079D01*
X4959363Y-11462174D02*
X4949839Y-11452650D01*
X4949839Y-11452650D02*
X4930791Y-11424079D01*
X4930791Y-11424079D02*
X4921268Y-11405031D01*
X4921268Y-11405031D02*
X4911744Y-11376460D01*
X4911744Y-11376460D02*
X4902220Y-11328841D01*
X4902220Y-11328841D02*
X4902220Y-11290746D01*
X4902220Y-11290746D02*
X4911744Y-11243127D01*
X4911744Y-11243127D02*
X4921268Y-11214555D01*
X4921268Y-11214555D02*
X4930791Y-11195508D01*
X4930791Y-11195508D02*
X4949839Y-11166936D01*
X4949839Y-11166936D02*
X4959363Y-11157412D01*
X5140315Y-11385984D02*
X5026030Y-11385984D01*
X5083172Y-11385984D02*
X5083172Y-11185984D01*
X5083172Y-11185984D02*
X5064125Y-11214555D01*
X5064125Y-11214555D02*
X5045077Y-11233603D01*
X5045077Y-11233603D02*
X5026030Y-11243127D01*
X5330791Y-11385984D02*
X5216506Y-11385984D01*
X5273649Y-11385984D02*
X5273649Y-11185984D01*
X5273649Y-11185984D02*
X5254601Y-11214555D01*
X5254601Y-11214555D02*
X5235553Y-11233603D01*
X5235553Y-11233603D02*
X5216506Y-11243127D01*
X5568887Y-11385984D02*
X5568887Y-11185984D01*
X5654601Y-11385984D02*
X5654601Y-11281222D01*
X5654601Y-11281222D02*
X5645077Y-11262174D01*
X5645077Y-11262174D02*
X5626030Y-11252650D01*
X5626030Y-11252650D02*
X5597458Y-11252650D01*
X5597458Y-11252650D02*
X5578411Y-11262174D01*
X5578411Y-11262174D02*
X5568887Y-11271698D01*
X5778410Y-11385984D02*
X5759363Y-11376460D01*
X5759363Y-11376460D02*
X5749839Y-11366936D01*
X5749839Y-11366936D02*
X5740315Y-11347888D01*
X5740315Y-11347888D02*
X5740315Y-11290746D01*
X5740315Y-11290746D02*
X5749839Y-11271698D01*
X5749839Y-11271698D02*
X5759363Y-11262174D01*
X5759363Y-11262174D02*
X5778410Y-11252650D01*
X5778410Y-11252650D02*
X5806982Y-11252650D01*
X5806982Y-11252650D02*
X5826030Y-11262174D01*
X5826030Y-11262174D02*
X5835553Y-11271698D01*
X5835553Y-11271698D02*
X5845077Y-11290746D01*
X5845077Y-11290746D02*
X5845077Y-11347888D01*
X5845077Y-11347888D02*
X5835553Y-11366936D01*
X5835553Y-11366936D02*
X5826030Y-11376460D01*
X5826030Y-11376460D02*
X5806982Y-11385984D01*
X5806982Y-11385984D02*
X5778410Y-11385984D01*
X5959363Y-11385984D02*
X5940315Y-11376460D01*
X5940315Y-11376460D02*
X5930791Y-11357412D01*
X5930791Y-11357412D02*
X5930791Y-11185984D01*
X6111744Y-11376460D02*
X6092696Y-11385984D01*
X6092696Y-11385984D02*
X6054601Y-11385984D01*
X6054601Y-11385984D02*
X6035553Y-11376460D01*
X6035553Y-11376460D02*
X6026030Y-11357412D01*
X6026030Y-11357412D02*
X6026030Y-11281222D01*
X6026030Y-11281222D02*
X6035553Y-11262174D01*
X6035553Y-11262174D02*
X6054601Y-11252650D01*
X6054601Y-11252650D02*
X6092696Y-11252650D01*
X6092696Y-11252650D02*
X6111744Y-11262174D01*
X6111744Y-11262174D02*
X6121268Y-11281222D01*
X6121268Y-11281222D02*
X6121268Y-11300269D01*
X6121268Y-11300269D02*
X6026030Y-11319317D01*
X6197458Y-11376460D02*
X6216506Y-11385984D01*
X6216506Y-11385984D02*
X6254601Y-11385984D01*
X6254601Y-11385984D02*
X6273649Y-11376460D01*
X6273649Y-11376460D02*
X6283172Y-11357412D01*
X6283172Y-11357412D02*
X6283172Y-11347888D01*
X6283172Y-11347888D02*
X6273649Y-11328841D01*
X6273649Y-11328841D02*
X6254601Y-11319317D01*
X6254601Y-11319317D02*
X6226030Y-11319317D01*
X6226030Y-11319317D02*
X6206982Y-11309793D01*
X6206982Y-11309793D02*
X6197458Y-11290746D01*
X6197458Y-11290746D02*
X6197458Y-11281222D01*
X6197458Y-11281222D02*
X6206982Y-11262174D01*
X6206982Y-11262174D02*
X6226030Y-11252650D01*
X6226030Y-11252650D02*
X6254601Y-11252650D01*
X6254601Y-11252650D02*
X6273649Y-11262174D01*
X6349839Y-11462174D02*
X6359363Y-11452650D01*
X6359363Y-11452650D02*
X6378411Y-11424079D01*
X6378411Y-11424079D02*
X6387934Y-11405031D01*
X6387934Y-11405031D02*
X6397458Y-11376460D01*
X6397458Y-11376460D02*
X6406982Y-11328841D01*
X6406982Y-11328841D02*
X6406982Y-11290746D01*
X6406982Y-11290746D02*
X6397458Y-11243127D01*
X6397458Y-11243127D02*
X6387934Y-11214555D01*
X6387934Y-11214555D02*
X6378411Y-11195508D01*
X6378411Y-11195508D02*
X6359363Y-11166936D01*
X6359363Y-11166936D02*
X6349839Y-11157412D01*
M02*
