G04 #@! TF.GenerationSoftware,KiCad,Pcbnew,9.0.4*
G04 #@! TF.CreationDate,2025-10-26T21:23:09-06:00*
G04 #@! TF.ProjectId,Conveyor,436f6e76-6579-46f7-922e-6b696361645f,rev?*
G04 #@! TF.SameCoordinates,Original*
G04 #@! TF.FileFunction,Soldermask,Top*
G04 #@! TF.FilePolarity,Negative*
%FSLAX46Y46*%
G04 Gerber Fmt 4.6, Leading zero omitted, Abs format (unit mm)*
G04 Created by KiCad (PCBNEW 9.0.4) date 2025-10-26 21:23:09*
%MOMM*%
%LPD*%
G01*
G04 APERTURE LIST*
G04 APERTURE END LIST*
G36*
X86779116Y-87317618D02*
G01*
X86830379Y-87323566D01*
X86847892Y-87331299D01*
X86870671Y-87335830D01*
X86895057Y-87352124D01*
X86915788Y-87361278D01*
X86929946Y-87375436D01*
X86951777Y-87390023D01*
X86966363Y-87411853D01*
X86980521Y-87426011D01*
X86989673Y-87446739D01*
X87005970Y-87471129D01*
X87010501Y-87493909D01*
X87018233Y-87511420D01*
X87024178Y-87562672D01*
X87025000Y-87566800D01*
X87025000Y-89666800D01*
X87024178Y-89670928D01*
X87018233Y-89722179D01*
X87010501Y-89739688D01*
X87005970Y-89762471D01*
X86989672Y-89786862D01*
X86980521Y-89807588D01*
X86966365Y-89821743D01*
X86951777Y-89843577D01*
X86929943Y-89858165D01*
X86915788Y-89872321D01*
X86895062Y-89881472D01*
X86870671Y-89897770D01*
X86847888Y-89902301D01*
X86830379Y-89910033D01*
X86779129Y-89915978D01*
X86775000Y-89916800D01*
X84675000Y-89916800D01*
X84670873Y-89915979D01*
X84619620Y-89910033D01*
X84602109Y-89902301D01*
X84579329Y-89897770D01*
X84554939Y-89881473D01*
X84534211Y-89872321D01*
X84520053Y-89858163D01*
X84498223Y-89843577D01*
X84483636Y-89821746D01*
X84469478Y-89807588D01*
X84460324Y-89786857D01*
X84444030Y-89762471D01*
X84439499Y-89739692D01*
X84431766Y-89722179D01*
X84425818Y-89670917D01*
X84425000Y-89666800D01*
X84425000Y-87566800D01*
X84425818Y-87562685D01*
X84431766Y-87511420D01*
X84439499Y-87493905D01*
X84444030Y-87471129D01*
X84460323Y-87446744D01*
X84469478Y-87426011D01*
X84483638Y-87411850D01*
X84498223Y-87390023D01*
X84520050Y-87375438D01*
X84534211Y-87361278D01*
X84554944Y-87352123D01*
X84579329Y-87335830D01*
X84602105Y-87331299D01*
X84619620Y-87323566D01*
X84670884Y-87317618D01*
X84675000Y-87316800D01*
X86775000Y-87316800D01*
X86779116Y-87317618D01*
G37*
G36*
X25378228Y-86784448D02*
G01*
X25523117Y-86844463D01*
X25653515Y-86931592D01*
X25764408Y-87042485D01*
X25851537Y-87172883D01*
X25911552Y-87317772D01*
X25942148Y-87471586D01*
X25942148Y-87628414D01*
X25911552Y-87782228D01*
X25851537Y-87927117D01*
X25764408Y-88057515D01*
X25653515Y-88168408D01*
X25523117Y-88255537D01*
X25378228Y-88315552D01*
X25224414Y-88346148D01*
X25067586Y-88346148D01*
X24913772Y-88315552D01*
X24768883Y-88255537D01*
X24638485Y-88168408D01*
X24527592Y-88057515D01*
X24440463Y-87927117D01*
X24380448Y-87782228D01*
X24349852Y-87628414D01*
X24349852Y-87471586D01*
X24380448Y-87317772D01*
X24440463Y-87172883D01*
X24527592Y-87042485D01*
X24638485Y-86931592D01*
X24768883Y-86844463D01*
X24913772Y-86784448D01*
X25067586Y-86753852D01*
X25224414Y-86753852D01*
X25378228Y-86784448D01*
G37*
G36*
X54062228Y-86259448D02*
G01*
X54207117Y-86319463D01*
X54337515Y-86406592D01*
X54448408Y-86517485D01*
X54535537Y-86647883D01*
X54595552Y-86792772D01*
X54626148Y-86946586D01*
X54626148Y-87103414D01*
X54595552Y-87257228D01*
X54535537Y-87402117D01*
X54448408Y-87532515D01*
X54337515Y-87643408D01*
X54207117Y-87730537D01*
X54062228Y-87790552D01*
X53908414Y-87821148D01*
X53751586Y-87821148D01*
X53597772Y-87790552D01*
X53452883Y-87730537D01*
X53322485Y-87643408D01*
X53211592Y-87532515D01*
X53124463Y-87402117D01*
X53064448Y-87257228D01*
X53033852Y-87103414D01*
X53033852Y-86946586D01*
X53064448Y-86792772D01*
X53124463Y-86647883D01*
X53211592Y-86517485D01*
X53322485Y-86406592D01*
X53452883Y-86319463D01*
X53597772Y-86259448D01*
X53751586Y-86228852D01*
X53908414Y-86228852D01*
X54062228Y-86259448D01*
G37*
G36*
X37964116Y-83790818D02*
G01*
X38015379Y-83796766D01*
X38032892Y-83804499D01*
X38055671Y-83809030D01*
X38080057Y-83825324D01*
X38100788Y-83834478D01*
X38114946Y-83848636D01*
X38136777Y-83863223D01*
X38151363Y-83885053D01*
X38165521Y-83899211D01*
X38174673Y-83919939D01*
X38190970Y-83944329D01*
X38195501Y-83967109D01*
X38203233Y-83984620D01*
X38209178Y-84035872D01*
X38210000Y-84040000D01*
X38210000Y-86140000D01*
X38209178Y-86144128D01*
X38203233Y-86195379D01*
X38195501Y-86212888D01*
X38190970Y-86235671D01*
X38174672Y-86260062D01*
X38165521Y-86280788D01*
X38151365Y-86294943D01*
X38136777Y-86316777D01*
X38114943Y-86331365D01*
X38100788Y-86345521D01*
X38080062Y-86354672D01*
X38055671Y-86370970D01*
X38032888Y-86375501D01*
X38015379Y-86383233D01*
X37964129Y-86389178D01*
X37960000Y-86390000D01*
X35860000Y-86390000D01*
X35855873Y-86389179D01*
X35804620Y-86383233D01*
X35787109Y-86375501D01*
X35764329Y-86370970D01*
X35739939Y-86354673D01*
X35719211Y-86345521D01*
X35705053Y-86331363D01*
X35683223Y-86316777D01*
X35668636Y-86294946D01*
X35654478Y-86280788D01*
X35645324Y-86260057D01*
X35629030Y-86235671D01*
X35624499Y-86212892D01*
X35616766Y-86195379D01*
X35610818Y-86144117D01*
X35610000Y-86140000D01*
X35610000Y-84040000D01*
X35610818Y-84035885D01*
X35616766Y-83984620D01*
X35624499Y-83967105D01*
X35629030Y-83944329D01*
X35645323Y-83919944D01*
X35654478Y-83899211D01*
X35668638Y-83885050D01*
X35683223Y-83863223D01*
X35705050Y-83848638D01*
X35719211Y-83834478D01*
X35739944Y-83825323D01*
X35764329Y-83809030D01*
X35787105Y-83804499D01*
X35804620Y-83796766D01*
X35855884Y-83790818D01*
X35860000Y-83790000D01*
X37960000Y-83790000D01*
X37964116Y-83790818D01*
G37*
G36*
X42213479Y-83825919D02*
G01*
X42407488Y-83888957D01*
X42589248Y-83981568D01*
X42754282Y-84101472D01*
X42898528Y-84245718D01*
X43018432Y-84410752D01*
X43111043Y-84592512D01*
X43174081Y-84786521D01*
X43205993Y-84988003D01*
X43205993Y-85191997D01*
X43174081Y-85393479D01*
X43111043Y-85587488D01*
X43018432Y-85769248D01*
X42898528Y-85934282D01*
X42754282Y-86078528D01*
X42589248Y-86198432D01*
X42407488Y-86291043D01*
X42213479Y-86354081D01*
X42011997Y-86385993D01*
X41808003Y-86385993D01*
X41606521Y-86354081D01*
X41412512Y-86291043D01*
X41230752Y-86198432D01*
X41065718Y-86078528D01*
X40921472Y-85934282D01*
X40801568Y-85769248D01*
X40708957Y-85587488D01*
X40645919Y-85393479D01*
X40614007Y-85191997D01*
X40614007Y-84988003D01*
X40645919Y-84786521D01*
X40708957Y-84592512D01*
X40801568Y-84410752D01*
X40921472Y-84245718D01*
X41065718Y-84101472D01*
X41230752Y-83981568D01*
X41412512Y-83888957D01*
X41606521Y-83825919D01*
X41808003Y-83794007D01*
X42011997Y-83794007D01*
X42213479Y-83825919D01*
G37*
G36*
X47213479Y-83825919D02*
G01*
X47407488Y-83888957D01*
X47589248Y-83981568D01*
X47754282Y-84101472D01*
X47898528Y-84245718D01*
X48018432Y-84410752D01*
X48111043Y-84592512D01*
X48174081Y-84786521D01*
X48205993Y-84988003D01*
X48205993Y-85191997D01*
X48174081Y-85393479D01*
X48111043Y-85587488D01*
X48018432Y-85769248D01*
X47898528Y-85934282D01*
X47754282Y-86078528D01*
X47589248Y-86198432D01*
X47407488Y-86291043D01*
X47213479Y-86354081D01*
X47011997Y-86385993D01*
X46808003Y-86385993D01*
X46606521Y-86354081D01*
X46412512Y-86291043D01*
X46230752Y-86198432D01*
X46065718Y-86078528D01*
X45921472Y-85934282D01*
X45801568Y-85769248D01*
X45708957Y-85587488D01*
X45645919Y-85393479D01*
X45614007Y-85191997D01*
X45614007Y-84988003D01*
X45645919Y-84786521D01*
X45708957Y-84592512D01*
X45801568Y-84410752D01*
X45921472Y-84245718D01*
X46065718Y-84101472D01*
X46230752Y-83981568D01*
X46412512Y-83888957D01*
X46606521Y-83825919D01*
X46808003Y-83794007D01*
X47011997Y-83794007D01*
X47213479Y-83825919D01*
G37*
G36*
X29456742Y-84276601D02*
G01*
X29610687Y-84340367D01*
X29749234Y-84432941D01*
X29867059Y-84550766D01*
X29959633Y-84689313D01*
X30023399Y-84843258D01*
X30055907Y-85006685D01*
X30055907Y-85173315D01*
X30023399Y-85336742D01*
X29959633Y-85490687D01*
X29867059Y-85629234D01*
X29749234Y-85747059D01*
X29610687Y-85839633D01*
X29456742Y-85903399D01*
X29293315Y-85935907D01*
X29126685Y-85935907D01*
X28963258Y-85903399D01*
X28809313Y-85839633D01*
X28670766Y-85747059D01*
X28552941Y-85629234D01*
X28460367Y-85490687D01*
X28396601Y-85336742D01*
X28364093Y-85173315D01*
X28364093Y-85006685D01*
X28396601Y-84843258D01*
X28460367Y-84689313D01*
X28552941Y-84550766D01*
X28670766Y-84432941D01*
X28809313Y-84340367D01*
X28963258Y-84276601D01*
X29126685Y-84244093D01*
X29293315Y-84244093D01*
X29456742Y-84276601D01*
G37*
G36*
X57253372Y-84349448D02*
G01*
X57398261Y-84409463D01*
X57528659Y-84496592D01*
X57639552Y-84607485D01*
X57726681Y-84737883D01*
X57786696Y-84882772D01*
X57817292Y-85036586D01*
X57817292Y-85193414D01*
X57786696Y-85347228D01*
X57726681Y-85492117D01*
X57639552Y-85622515D01*
X57528659Y-85733408D01*
X57398261Y-85820537D01*
X57253372Y-85880552D01*
X57099558Y-85911148D01*
X56942730Y-85911148D01*
X56788916Y-85880552D01*
X56644027Y-85820537D01*
X56513629Y-85733408D01*
X56402736Y-85622515D01*
X56315607Y-85492117D01*
X56255592Y-85347228D01*
X56224996Y-85193414D01*
X56224996Y-85036586D01*
X56255592Y-84882772D01*
X56315607Y-84737883D01*
X56402736Y-84607485D01*
X56513629Y-84496592D01*
X56644027Y-84409463D01*
X56788916Y-84349448D01*
X56942730Y-84318852D01*
X57099558Y-84318852D01*
X57253372Y-84349448D01*
G37*
G36*
X67413372Y-84349448D02*
G01*
X67558261Y-84409463D01*
X67688659Y-84496592D01*
X67799552Y-84607485D01*
X67886681Y-84737883D01*
X67946696Y-84882772D01*
X67977292Y-85036586D01*
X67977292Y-85193414D01*
X67946696Y-85347228D01*
X67886681Y-85492117D01*
X67799552Y-85622515D01*
X67688659Y-85733408D01*
X67558261Y-85820537D01*
X67413372Y-85880552D01*
X67259558Y-85911148D01*
X67102730Y-85911148D01*
X66948916Y-85880552D01*
X66804027Y-85820537D01*
X66673629Y-85733408D01*
X66562736Y-85622515D01*
X66475607Y-85492117D01*
X66415592Y-85347228D01*
X66384996Y-85193414D01*
X66384996Y-85036586D01*
X66415592Y-84882772D01*
X66475607Y-84737883D01*
X66562736Y-84607485D01*
X66673629Y-84496592D01*
X66804027Y-84409463D01*
X66948916Y-84349448D01*
X67102730Y-84318852D01*
X67259558Y-84318852D01*
X67413372Y-84349448D01*
G37*
G36*
X86028479Y-82352719D02*
G01*
X86222488Y-82415757D01*
X86404248Y-82508368D01*
X86569282Y-82628272D01*
X86713528Y-82772518D01*
X86833432Y-82937552D01*
X86926043Y-83119312D01*
X86989081Y-83313321D01*
X87020993Y-83514803D01*
X87020993Y-83718797D01*
X86989081Y-83920279D01*
X86926043Y-84114288D01*
X86833432Y-84296048D01*
X86713528Y-84461082D01*
X86569282Y-84605328D01*
X86404248Y-84725232D01*
X86222488Y-84817843D01*
X86028479Y-84880881D01*
X85826997Y-84912793D01*
X85623003Y-84912793D01*
X85421521Y-84880881D01*
X85227512Y-84817843D01*
X85045752Y-84725232D01*
X84880718Y-84605328D01*
X84736472Y-84461082D01*
X84616568Y-84296048D01*
X84523957Y-84114288D01*
X84460919Y-83920279D01*
X84429007Y-83718797D01*
X84429007Y-83514803D01*
X84460919Y-83313321D01*
X84523957Y-83119312D01*
X84616568Y-82937552D01*
X84736472Y-82772518D01*
X84880718Y-82628272D01*
X85045752Y-82508368D01*
X85227512Y-82415757D01*
X85421521Y-82352719D01*
X85623003Y-82320807D01*
X85826997Y-82320807D01*
X86028479Y-82352719D01*
G37*
G36*
X18153513Y-80624208D02*
G01*
X18392293Y-80701793D01*
X18615998Y-80815776D01*
X18819117Y-80963350D01*
X18996650Y-81140883D01*
X19144224Y-81344002D01*
X19258207Y-81567707D01*
X19335792Y-81806487D01*
X19375068Y-82054465D01*
X19375068Y-82305535D01*
X19335792Y-82553513D01*
X19258207Y-82792293D01*
X19144224Y-83015998D01*
X18996650Y-83219117D01*
X18819117Y-83396650D01*
X18615998Y-83544224D01*
X18392293Y-83658207D01*
X18153513Y-83735792D01*
X17905535Y-83775068D01*
X17654465Y-83775068D01*
X17406487Y-83735792D01*
X17167707Y-83658207D01*
X16944002Y-83544224D01*
X16740883Y-83396650D01*
X16563350Y-83219117D01*
X16415776Y-83015998D01*
X16301793Y-82792293D01*
X16224208Y-82553513D01*
X16184932Y-82305535D01*
X16184932Y-82054465D01*
X16224208Y-81806487D01*
X16301793Y-81567707D01*
X16415776Y-81344002D01*
X16563350Y-81140883D01*
X16740883Y-80963350D01*
X16944002Y-80815776D01*
X17167707Y-80701793D01*
X17406487Y-80624208D01*
X17654465Y-80584932D01*
X17905535Y-80584932D01*
X18153513Y-80624208D01*
G37*
G36*
X29456742Y-81736601D02*
G01*
X29610687Y-81800367D01*
X29749234Y-81892941D01*
X29867059Y-82010766D01*
X29959633Y-82149313D01*
X30023399Y-82303258D01*
X30055907Y-82466685D01*
X30055907Y-82633315D01*
X30023399Y-82796742D01*
X29959633Y-82950687D01*
X29867059Y-83089234D01*
X29749234Y-83207059D01*
X29610687Y-83299633D01*
X29456742Y-83363399D01*
X29293315Y-83395907D01*
X29126685Y-83395907D01*
X28963258Y-83363399D01*
X28809313Y-83299633D01*
X28670766Y-83207059D01*
X28552941Y-83089234D01*
X28460367Y-82950687D01*
X28396601Y-82796742D01*
X28364093Y-82633315D01*
X28364093Y-82466685D01*
X28396601Y-82303258D01*
X28460367Y-82149313D01*
X28552941Y-82010766D01*
X28670766Y-81892941D01*
X28809313Y-81800367D01*
X28963258Y-81736601D01*
X29126685Y-81704093D01*
X29293315Y-81704093D01*
X29456742Y-81736601D01*
G37*
G36*
X25378228Y-81784448D02*
G01*
X25523117Y-81844463D01*
X25653515Y-81931592D01*
X25764408Y-82042485D01*
X25851537Y-82172883D01*
X25911552Y-82317772D01*
X25942148Y-82471586D01*
X25942148Y-82628414D01*
X25911552Y-82782228D01*
X25851537Y-82927117D01*
X25764408Y-83057515D01*
X25653515Y-83168408D01*
X25523117Y-83255537D01*
X25378228Y-83315552D01*
X25224414Y-83346148D01*
X25067586Y-83346148D01*
X24913772Y-83315552D01*
X24768883Y-83255537D01*
X24638485Y-83168408D01*
X24527592Y-83057515D01*
X24440463Y-82927117D01*
X24380448Y-82782228D01*
X24349852Y-82628414D01*
X24349852Y-82471586D01*
X24380448Y-82317772D01*
X24440463Y-82172883D01*
X24527592Y-82042485D01*
X24638485Y-81931592D01*
X24768883Y-81844463D01*
X24913772Y-81784448D01*
X25067586Y-81753852D01*
X25224414Y-81753852D01*
X25378228Y-81784448D01*
G37*
G36*
X54062228Y-81259448D02*
G01*
X54207117Y-81319463D01*
X54337515Y-81406592D01*
X54448408Y-81517485D01*
X54535537Y-81647883D01*
X54595552Y-81792772D01*
X54626148Y-81946586D01*
X54626148Y-82103414D01*
X54595552Y-82257228D01*
X54535537Y-82402117D01*
X54448408Y-82532515D01*
X54337515Y-82643408D01*
X54207117Y-82730537D01*
X54062228Y-82790552D01*
X53908414Y-82821148D01*
X53751586Y-82821148D01*
X53597772Y-82790552D01*
X53452883Y-82730537D01*
X53322485Y-82643408D01*
X53211592Y-82532515D01*
X53124463Y-82402117D01*
X53064448Y-82257228D01*
X53033852Y-82103414D01*
X53033852Y-81946586D01*
X53064448Y-81792772D01*
X53124463Y-81647883D01*
X53211592Y-81517485D01*
X53322485Y-81406592D01*
X53452883Y-81319463D01*
X53597772Y-81259448D01*
X53751586Y-81228852D01*
X53908414Y-81228852D01*
X54062228Y-81259448D01*
G37*
G36*
X57253372Y-81199448D02*
G01*
X57398261Y-81259463D01*
X57528659Y-81346592D01*
X57639552Y-81457485D01*
X57726681Y-81587883D01*
X57786696Y-81732772D01*
X57817292Y-81886586D01*
X57817292Y-82043414D01*
X57786696Y-82197228D01*
X57726681Y-82342117D01*
X57639552Y-82472515D01*
X57528659Y-82583408D01*
X57398261Y-82670537D01*
X57253372Y-82730552D01*
X57099558Y-82761148D01*
X56942730Y-82761148D01*
X56788916Y-82730552D01*
X56644027Y-82670537D01*
X56513629Y-82583408D01*
X56402736Y-82472515D01*
X56315607Y-82342117D01*
X56255592Y-82197228D01*
X56224996Y-82043414D01*
X56224996Y-81886586D01*
X56255592Y-81732772D01*
X56315607Y-81587883D01*
X56402736Y-81457485D01*
X56513629Y-81346592D01*
X56644027Y-81259463D01*
X56788916Y-81199448D01*
X56942730Y-81168852D01*
X57099558Y-81168852D01*
X57253372Y-81199448D01*
G37*
G36*
X67413372Y-81199448D02*
G01*
X67558261Y-81259463D01*
X67688659Y-81346592D01*
X67799552Y-81457485D01*
X67886681Y-81587883D01*
X67946696Y-81732772D01*
X67977292Y-81886586D01*
X67977292Y-82043414D01*
X67946696Y-82197228D01*
X67886681Y-82342117D01*
X67799552Y-82472515D01*
X67688659Y-82583408D01*
X67558261Y-82670537D01*
X67413372Y-82730552D01*
X67259558Y-82761148D01*
X67102730Y-82761148D01*
X66948916Y-82730552D01*
X66804027Y-82670537D01*
X66673629Y-82583408D01*
X66562736Y-82472515D01*
X66475607Y-82342117D01*
X66415592Y-82197228D01*
X66384996Y-82043414D01*
X66384996Y-81886586D01*
X66415592Y-81732772D01*
X66475607Y-81587883D01*
X66562736Y-81457485D01*
X66673629Y-81346592D01*
X66804027Y-81259463D01*
X66948916Y-81199448D01*
X67102730Y-81168852D01*
X67259558Y-81168852D01*
X67413372Y-81199448D01*
G37*
G36*
X71406742Y-80426601D02*
G01*
X71560687Y-80490367D01*
X71699234Y-80582941D01*
X71817059Y-80700766D01*
X71909633Y-80839313D01*
X71973399Y-80993258D01*
X72005907Y-81156685D01*
X72005907Y-81323315D01*
X71973399Y-81486742D01*
X71909633Y-81640687D01*
X71817059Y-81779234D01*
X71699234Y-81897059D01*
X71560687Y-81989633D01*
X71406742Y-82053399D01*
X71243315Y-82085907D01*
X71076685Y-82085907D01*
X70913258Y-82053399D01*
X70759313Y-81989633D01*
X70620766Y-81897059D01*
X70502941Y-81779234D01*
X70410367Y-81640687D01*
X70346601Y-81486742D01*
X70314093Y-81323315D01*
X70314093Y-81156685D01*
X70346601Y-80993258D01*
X70410367Y-80839313D01*
X70502941Y-80700766D01*
X70620766Y-80582941D01*
X70759313Y-80490367D01*
X70913258Y-80426601D01*
X71076685Y-80394093D01*
X71243315Y-80394093D01*
X71406742Y-80426601D01*
G37*
G36*
X73946742Y-80426601D02*
G01*
X74100687Y-80490367D01*
X74239234Y-80582941D01*
X74357059Y-80700766D01*
X74449633Y-80839313D01*
X74513399Y-80993258D01*
X74545907Y-81156685D01*
X74545907Y-81323315D01*
X74513399Y-81486742D01*
X74449633Y-81640687D01*
X74357059Y-81779234D01*
X74239234Y-81897059D01*
X74100687Y-81989633D01*
X73946742Y-82053399D01*
X73783315Y-82085907D01*
X73616685Y-82085907D01*
X73453258Y-82053399D01*
X73299313Y-81989633D01*
X73160766Y-81897059D01*
X73042941Y-81779234D01*
X72950367Y-81640687D01*
X72886601Y-81486742D01*
X72854093Y-81323315D01*
X72854093Y-81156685D01*
X72886601Y-80993258D01*
X72950367Y-80839313D01*
X73042941Y-80700766D01*
X73160766Y-80582941D01*
X73299313Y-80490367D01*
X73453258Y-80426601D01*
X73616685Y-80394093D01*
X73783315Y-80394093D01*
X73946742Y-80426601D01*
G37*
G36*
X30060000Y-80860000D02*
G01*
X28360000Y-80860000D01*
X28360000Y-79160000D01*
X30060000Y-79160000D01*
X30060000Y-80860000D01*
G37*
G36*
X54062228Y-78709448D02*
G01*
X54207117Y-78769463D01*
X54337515Y-78856592D01*
X54448408Y-78967485D01*
X54535537Y-79097883D01*
X54595552Y-79242772D01*
X54626148Y-79396586D01*
X54626148Y-79553414D01*
X54595552Y-79707228D01*
X54535537Y-79852117D01*
X54448408Y-79982515D01*
X54337515Y-80093408D01*
X54207117Y-80180537D01*
X54062228Y-80240552D01*
X53908414Y-80271148D01*
X53751586Y-80271148D01*
X53597772Y-80240552D01*
X53452883Y-80180537D01*
X53322485Y-80093408D01*
X53211592Y-79982515D01*
X53124463Y-79852117D01*
X53064448Y-79707228D01*
X53033852Y-79553414D01*
X53033852Y-79396586D01*
X53064448Y-79242772D01*
X53124463Y-79097883D01*
X53211592Y-78967485D01*
X53322485Y-78856592D01*
X53452883Y-78769463D01*
X53597772Y-78709448D01*
X53751586Y-78678852D01*
X53908414Y-78678852D01*
X54062228Y-78709448D01*
G37*
G36*
X72010000Y-79550000D02*
G01*
X70310000Y-79550000D01*
X70310000Y-77850000D01*
X72010000Y-77850000D01*
X72010000Y-79550000D01*
G37*
G36*
X73946742Y-77886601D02*
G01*
X74100687Y-77950367D01*
X74239234Y-78042941D01*
X74357059Y-78160766D01*
X74449633Y-78299313D01*
X74513399Y-78453258D01*
X74545907Y-78616685D01*
X74545907Y-78783315D01*
X74513399Y-78946742D01*
X74449633Y-79100687D01*
X74357059Y-79239234D01*
X74239234Y-79357059D01*
X74100687Y-79449633D01*
X73946742Y-79513399D01*
X73783315Y-79545907D01*
X73616685Y-79545907D01*
X73453258Y-79513399D01*
X73299313Y-79449633D01*
X73160766Y-79357059D01*
X73042941Y-79239234D01*
X72950367Y-79100687D01*
X72886601Y-78946742D01*
X72854093Y-78783315D01*
X72854093Y-78616685D01*
X72886601Y-78453258D01*
X72950367Y-78299313D01*
X73042941Y-78160766D01*
X73160766Y-78042941D01*
X73299313Y-77950367D01*
X73453258Y-77886601D01*
X73616685Y-77854093D01*
X73783315Y-77854093D01*
X73946742Y-77886601D01*
G37*
G36*
X57412228Y-77609448D02*
G01*
X57557117Y-77669463D01*
X57687515Y-77756592D01*
X57798408Y-77867485D01*
X57885537Y-77997883D01*
X57945552Y-78142772D01*
X57976148Y-78296586D01*
X57976148Y-78453414D01*
X57945552Y-78607228D01*
X57885537Y-78752117D01*
X57798408Y-78882515D01*
X57687515Y-78993408D01*
X57557117Y-79080537D01*
X57412228Y-79140552D01*
X57258414Y-79171148D01*
X57101586Y-79171148D01*
X56947772Y-79140552D01*
X56802883Y-79080537D01*
X56672485Y-78993408D01*
X56561592Y-78882515D01*
X56474463Y-78752117D01*
X56414448Y-78607228D01*
X56383852Y-78453414D01*
X56383852Y-78296586D01*
X56414448Y-78142772D01*
X56474463Y-77997883D01*
X56561592Y-77867485D01*
X56672485Y-77756592D01*
X56802883Y-77669463D01*
X56947772Y-77609448D01*
X57101586Y-77578852D01*
X57258414Y-77578852D01*
X57412228Y-77609448D01*
G37*
G36*
X67572228Y-77609448D02*
G01*
X67717117Y-77669463D01*
X67847515Y-77756592D01*
X67958408Y-77867485D01*
X68045537Y-77997883D01*
X68105552Y-78142772D01*
X68136148Y-78296586D01*
X68136148Y-78453414D01*
X68105552Y-78607228D01*
X68045537Y-78752117D01*
X67958408Y-78882515D01*
X67847515Y-78993408D01*
X67717117Y-79080537D01*
X67572228Y-79140552D01*
X67418414Y-79171148D01*
X67261586Y-79171148D01*
X67107772Y-79140552D01*
X66962883Y-79080537D01*
X66832485Y-78993408D01*
X66721592Y-78882515D01*
X66634463Y-78752117D01*
X66574448Y-78607228D01*
X66543852Y-78453414D01*
X66543852Y-78296586D01*
X66574448Y-78142772D01*
X66634463Y-77997883D01*
X66721592Y-77867485D01*
X66832485Y-77756592D01*
X66962883Y-77669463D01*
X67107772Y-77609448D01*
X67261586Y-77578852D01*
X67418414Y-77578852D01*
X67572228Y-77609448D01*
G37*
G36*
X86781616Y-76130818D02*
G01*
X86832879Y-76136766D01*
X86850392Y-76144499D01*
X86873171Y-76149030D01*
X86897557Y-76165324D01*
X86918288Y-76174478D01*
X86932446Y-76188636D01*
X86954277Y-76203223D01*
X86968863Y-76225053D01*
X86983021Y-76239211D01*
X86992173Y-76259939D01*
X87008470Y-76284329D01*
X87013001Y-76307109D01*
X87020733Y-76324620D01*
X87026678Y-76375872D01*
X87027500Y-76380000D01*
X87027500Y-78480000D01*
X87026678Y-78484128D01*
X87020733Y-78535379D01*
X87013001Y-78552888D01*
X87008470Y-78575671D01*
X86992172Y-78600062D01*
X86983021Y-78620788D01*
X86968865Y-78634943D01*
X86954277Y-78656777D01*
X86932443Y-78671365D01*
X86918288Y-78685521D01*
X86897562Y-78694672D01*
X86873171Y-78710970D01*
X86850388Y-78715501D01*
X86832879Y-78723233D01*
X86781629Y-78729178D01*
X86777500Y-78730000D01*
X84677500Y-78730000D01*
X84673373Y-78729179D01*
X84622120Y-78723233D01*
X84604609Y-78715501D01*
X84581829Y-78710970D01*
X84557439Y-78694673D01*
X84536711Y-78685521D01*
X84522553Y-78671363D01*
X84500723Y-78656777D01*
X84486136Y-78634946D01*
X84471978Y-78620788D01*
X84462824Y-78600057D01*
X84446530Y-78575671D01*
X84441999Y-78552892D01*
X84434266Y-78535379D01*
X84428318Y-78484117D01*
X84427500Y-78480000D01*
X84427500Y-76380000D01*
X84428318Y-76375885D01*
X84434266Y-76324620D01*
X84441999Y-76307105D01*
X84446530Y-76284329D01*
X84462823Y-76259944D01*
X84471978Y-76239211D01*
X84486138Y-76225050D01*
X84500723Y-76203223D01*
X84522550Y-76188638D01*
X84536711Y-76174478D01*
X84557444Y-76165323D01*
X84581829Y-76149030D01*
X84604605Y-76144499D01*
X84622120Y-76136766D01*
X84673384Y-76130818D01*
X84677500Y-76130000D01*
X86777500Y-76130000D01*
X86781616Y-76130818D01*
G37*
G36*
X42182228Y-76704448D02*
G01*
X42327117Y-76764463D01*
X42457515Y-76851592D01*
X42568408Y-76962485D01*
X42655537Y-77092883D01*
X42715552Y-77237772D01*
X42746148Y-77391586D01*
X42746148Y-77548414D01*
X42715552Y-77702228D01*
X42655537Y-77847117D01*
X42568408Y-77977515D01*
X42457515Y-78088408D01*
X42327117Y-78175537D01*
X42182228Y-78235552D01*
X42028414Y-78266148D01*
X41871586Y-78266148D01*
X41717772Y-78235552D01*
X41572883Y-78175537D01*
X41442485Y-78088408D01*
X41331592Y-77977515D01*
X41244463Y-77847117D01*
X41184448Y-77702228D01*
X41153852Y-77548414D01*
X41153852Y-77391586D01*
X41184448Y-77237772D01*
X41244463Y-77092883D01*
X41331592Y-76962485D01*
X41442485Y-76851592D01*
X41572883Y-76764463D01*
X41717772Y-76704448D01*
X41871586Y-76673852D01*
X42028414Y-76673852D01*
X42182228Y-76704448D01*
G37*
G36*
X47182228Y-76704448D02*
G01*
X47327117Y-76764463D01*
X47457515Y-76851592D01*
X47568408Y-76962485D01*
X47655537Y-77092883D01*
X47715552Y-77237772D01*
X47746148Y-77391586D01*
X47746148Y-77548414D01*
X47715552Y-77702228D01*
X47655537Y-77847117D01*
X47568408Y-77977515D01*
X47457515Y-78088408D01*
X47327117Y-78175537D01*
X47182228Y-78235552D01*
X47028414Y-78266148D01*
X46871586Y-78266148D01*
X46717772Y-78235552D01*
X46572883Y-78175537D01*
X46442485Y-78088408D01*
X46331592Y-77977515D01*
X46244463Y-77847117D01*
X46184448Y-77702228D01*
X46153852Y-77548414D01*
X46153852Y-77391586D01*
X46184448Y-77237772D01*
X46244463Y-77092883D01*
X46331592Y-76962485D01*
X46442485Y-76851592D01*
X46572883Y-76764463D01*
X46717772Y-76704448D01*
X46871586Y-76673852D01*
X47028414Y-76673852D01*
X47182228Y-76704448D01*
G37*
G36*
X57412228Y-74459448D02*
G01*
X57557117Y-74519463D01*
X57687515Y-74606592D01*
X57798408Y-74717485D01*
X57885537Y-74847883D01*
X57945552Y-74992772D01*
X57976148Y-75146586D01*
X57976148Y-75303414D01*
X57945552Y-75457228D01*
X57885537Y-75602117D01*
X57798408Y-75732515D01*
X57687515Y-75843408D01*
X57557117Y-75930537D01*
X57412228Y-75990552D01*
X57258414Y-76021148D01*
X57101586Y-76021148D01*
X56947772Y-75990552D01*
X56802883Y-75930537D01*
X56672485Y-75843408D01*
X56561592Y-75732515D01*
X56474463Y-75602117D01*
X56414448Y-75457228D01*
X56383852Y-75303414D01*
X56383852Y-75146586D01*
X56414448Y-74992772D01*
X56474463Y-74847883D01*
X56561592Y-74717485D01*
X56672485Y-74606592D01*
X56802883Y-74519463D01*
X56947772Y-74459448D01*
X57101586Y-74428852D01*
X57258414Y-74428852D01*
X57412228Y-74459448D01*
G37*
G36*
X67572228Y-74459448D02*
G01*
X67717117Y-74519463D01*
X67847515Y-74606592D01*
X67958408Y-74717485D01*
X68045537Y-74847883D01*
X68105552Y-74992772D01*
X68136148Y-75146586D01*
X68136148Y-75303414D01*
X68105552Y-75457228D01*
X68045537Y-75602117D01*
X67958408Y-75732515D01*
X67847515Y-75843408D01*
X67717117Y-75930537D01*
X67572228Y-75990552D01*
X67418414Y-76021148D01*
X67261586Y-76021148D01*
X67107772Y-75990552D01*
X66962883Y-75930537D01*
X66832485Y-75843408D01*
X66721592Y-75732515D01*
X66634463Y-75602117D01*
X66574448Y-75457228D01*
X66543852Y-75303414D01*
X66543852Y-75146586D01*
X66574448Y-74992772D01*
X66634463Y-74847883D01*
X66721592Y-74717485D01*
X66832485Y-74606592D01*
X66962883Y-74519463D01*
X67107772Y-74459448D01*
X67261586Y-74428852D01*
X67418414Y-74428852D01*
X67572228Y-74459448D01*
G37*
G36*
X54062228Y-73709448D02*
G01*
X54207117Y-73769463D01*
X54337515Y-73856592D01*
X54448408Y-73967485D01*
X54535537Y-74097883D01*
X54595552Y-74242772D01*
X54626148Y-74396586D01*
X54626148Y-74553414D01*
X54595552Y-74707228D01*
X54535537Y-74852117D01*
X54448408Y-74982515D01*
X54337515Y-75093408D01*
X54207117Y-75180537D01*
X54062228Y-75240552D01*
X53908414Y-75271148D01*
X53751586Y-75271148D01*
X53597772Y-75240552D01*
X53452883Y-75180537D01*
X53322485Y-75093408D01*
X53211592Y-74982515D01*
X53124463Y-74852117D01*
X53064448Y-74707228D01*
X53033852Y-74553414D01*
X53033852Y-74396586D01*
X53064448Y-74242772D01*
X53124463Y-74097883D01*
X53211592Y-73967485D01*
X53322485Y-73856592D01*
X53452883Y-73769463D01*
X53597772Y-73709448D01*
X53751586Y-73678852D01*
X53908414Y-73678852D01*
X54062228Y-73709448D01*
G37*
G36*
X86030979Y-71165919D02*
G01*
X86224988Y-71228957D01*
X86406748Y-71321568D01*
X86571782Y-71441472D01*
X86716028Y-71585718D01*
X86835932Y-71750752D01*
X86928543Y-71932512D01*
X86991581Y-72126521D01*
X87023493Y-72328003D01*
X87023493Y-72531997D01*
X86991581Y-72733479D01*
X86928543Y-72927488D01*
X86835932Y-73109248D01*
X86716028Y-73274282D01*
X86571782Y-73418528D01*
X86406748Y-73538432D01*
X86224988Y-73631043D01*
X86030979Y-73694081D01*
X85829497Y-73725993D01*
X85625503Y-73725993D01*
X85424021Y-73694081D01*
X85230012Y-73631043D01*
X85048252Y-73538432D01*
X84883218Y-73418528D01*
X84738972Y-73274282D01*
X84619068Y-73109248D01*
X84526457Y-72927488D01*
X84463419Y-72733479D01*
X84431507Y-72531997D01*
X84431507Y-72328003D01*
X84463419Y-72126521D01*
X84526457Y-71932512D01*
X84619068Y-71750752D01*
X84738972Y-71585718D01*
X84883218Y-71441472D01*
X85048252Y-71321568D01*
X85230012Y-71228957D01*
X85424021Y-71165919D01*
X85625503Y-71134007D01*
X85829497Y-71134007D01*
X86030979Y-71165919D01*
G37*
G36*
X20852257Y-68778448D02*
G01*
X21016717Y-68831885D01*
X21170793Y-68910391D01*
X21310692Y-69012033D01*
X21432967Y-69134308D01*
X21534609Y-69274207D01*
X21613115Y-69428283D01*
X21666552Y-69592743D01*
X21693603Y-69763538D01*
X21693603Y-69936462D01*
X21666552Y-70107257D01*
X21613115Y-70271717D01*
X21534609Y-70425793D01*
X21432967Y-70565692D01*
X21310692Y-70687967D01*
X21170793Y-70789609D01*
X21016717Y-70868115D01*
X20852257Y-70921552D01*
X20681462Y-70948603D01*
X20508538Y-70948603D01*
X20337743Y-70921552D01*
X20173283Y-70868115D01*
X20019207Y-70789609D01*
X19879308Y-70687967D01*
X19757033Y-70565692D01*
X19655391Y-70425793D01*
X19576885Y-70271717D01*
X19523448Y-70107257D01*
X19496397Y-69936462D01*
X19496397Y-69763538D01*
X19523448Y-69592743D01*
X19576885Y-69428283D01*
X19655391Y-69274207D01*
X19757033Y-69134308D01*
X19879308Y-69012033D01*
X20019207Y-68910391D01*
X20173283Y-68831885D01*
X20337743Y-68778448D01*
X20508538Y-68751397D01*
X20681462Y-68751397D01*
X20852257Y-68778448D01*
G37*
G36*
X23392257Y-68778448D02*
G01*
X23556717Y-68831885D01*
X23710793Y-68910391D01*
X23850692Y-69012033D01*
X23972967Y-69134308D01*
X24074609Y-69274207D01*
X24153115Y-69428283D01*
X24206552Y-69592743D01*
X24233603Y-69763538D01*
X24233603Y-69936462D01*
X24206552Y-70107257D01*
X24153115Y-70271717D01*
X24074609Y-70425793D01*
X23972967Y-70565692D01*
X23850692Y-70687967D01*
X23710793Y-70789609D01*
X23556717Y-70868115D01*
X23392257Y-70921552D01*
X23221462Y-70948603D01*
X23048538Y-70948603D01*
X22877743Y-70921552D01*
X22713283Y-70868115D01*
X22559207Y-70789609D01*
X22419308Y-70687967D01*
X22297033Y-70565692D01*
X22195391Y-70425793D01*
X22116885Y-70271717D01*
X22063448Y-70107257D01*
X22036397Y-69936462D01*
X22036397Y-69763538D01*
X22063448Y-69592743D01*
X22116885Y-69428283D01*
X22195391Y-69274207D01*
X22297033Y-69134308D01*
X22419308Y-69012033D01*
X22559207Y-68910391D01*
X22713283Y-68831885D01*
X22877743Y-68778448D01*
X23048538Y-68751397D01*
X23221462Y-68751397D01*
X23392257Y-68778448D01*
G37*
G36*
X25932257Y-68778448D02*
G01*
X26096717Y-68831885D01*
X26250793Y-68910391D01*
X26390692Y-69012033D01*
X26512967Y-69134308D01*
X26614609Y-69274207D01*
X26693115Y-69428283D01*
X26746552Y-69592743D01*
X26773603Y-69763538D01*
X26773603Y-69936462D01*
X26746552Y-70107257D01*
X26693115Y-70271717D01*
X26614609Y-70425793D01*
X26512967Y-70565692D01*
X26390692Y-70687967D01*
X26250793Y-70789609D01*
X26096717Y-70868115D01*
X25932257Y-70921552D01*
X25761462Y-70948603D01*
X25588538Y-70948603D01*
X25417743Y-70921552D01*
X25253283Y-70868115D01*
X25099207Y-70789609D01*
X24959308Y-70687967D01*
X24837033Y-70565692D01*
X24735391Y-70425793D01*
X24656885Y-70271717D01*
X24603448Y-70107257D01*
X24576397Y-69936462D01*
X24576397Y-69763538D01*
X24603448Y-69592743D01*
X24656885Y-69428283D01*
X24735391Y-69274207D01*
X24837033Y-69134308D01*
X24959308Y-69012033D01*
X25099207Y-68910391D01*
X25253283Y-68831885D01*
X25417743Y-68778448D01*
X25588538Y-68751397D01*
X25761462Y-68751397D01*
X25932257Y-68778448D01*
G37*
G36*
X28472257Y-68778448D02*
G01*
X28636717Y-68831885D01*
X28790793Y-68910391D01*
X28930692Y-69012033D01*
X29052967Y-69134308D01*
X29154609Y-69274207D01*
X29233115Y-69428283D01*
X29286552Y-69592743D01*
X29313603Y-69763538D01*
X29313603Y-69936462D01*
X29286552Y-70107257D01*
X29233115Y-70271717D01*
X29154609Y-70425793D01*
X29052967Y-70565692D01*
X28930692Y-70687967D01*
X28790793Y-70789609D01*
X28636717Y-70868115D01*
X28472257Y-70921552D01*
X28301462Y-70948603D01*
X28128538Y-70948603D01*
X27957743Y-70921552D01*
X27793283Y-70868115D01*
X27639207Y-70789609D01*
X27499308Y-70687967D01*
X27377033Y-70565692D01*
X27275391Y-70425793D01*
X27196885Y-70271717D01*
X27143448Y-70107257D01*
X27116397Y-69936462D01*
X27116397Y-69763538D01*
X27143448Y-69592743D01*
X27196885Y-69428283D01*
X27275391Y-69274207D01*
X27377033Y-69134308D01*
X27499308Y-69012033D01*
X27639207Y-68910391D01*
X27793283Y-68831885D01*
X27957743Y-68778448D01*
X28128538Y-68751397D01*
X28301462Y-68751397D01*
X28472257Y-68778448D01*
G37*
G36*
X31012257Y-68778448D02*
G01*
X31176717Y-68831885D01*
X31330793Y-68910391D01*
X31470692Y-69012033D01*
X31592967Y-69134308D01*
X31694609Y-69274207D01*
X31773115Y-69428283D01*
X31826552Y-69592743D01*
X31853603Y-69763538D01*
X31853603Y-69936462D01*
X31826552Y-70107257D01*
X31773115Y-70271717D01*
X31694609Y-70425793D01*
X31592967Y-70565692D01*
X31470692Y-70687967D01*
X31330793Y-70789609D01*
X31176717Y-70868115D01*
X31012257Y-70921552D01*
X30841462Y-70948603D01*
X30668538Y-70948603D01*
X30497743Y-70921552D01*
X30333283Y-70868115D01*
X30179207Y-70789609D01*
X30039308Y-70687967D01*
X29917033Y-70565692D01*
X29815391Y-70425793D01*
X29736885Y-70271717D01*
X29683448Y-70107257D01*
X29656397Y-69936462D01*
X29656397Y-69763538D01*
X29683448Y-69592743D01*
X29736885Y-69428283D01*
X29815391Y-69274207D01*
X29917033Y-69134308D01*
X30039308Y-69012033D01*
X30179207Y-68910391D01*
X30333283Y-68831885D01*
X30497743Y-68778448D01*
X30668538Y-68751397D01*
X30841462Y-68751397D01*
X31012257Y-68778448D01*
G37*
G36*
X33552257Y-68778448D02*
G01*
X33716717Y-68831885D01*
X33870793Y-68910391D01*
X34010692Y-69012033D01*
X34132967Y-69134308D01*
X34234609Y-69274207D01*
X34313115Y-69428283D01*
X34366552Y-69592743D01*
X34393603Y-69763538D01*
X34393603Y-69936462D01*
X34366552Y-70107257D01*
X34313115Y-70271717D01*
X34234609Y-70425793D01*
X34132967Y-70565692D01*
X34010692Y-70687967D01*
X33870793Y-70789609D01*
X33716717Y-70868115D01*
X33552257Y-70921552D01*
X33381462Y-70948603D01*
X33208538Y-70948603D01*
X33037743Y-70921552D01*
X32873283Y-70868115D01*
X32719207Y-70789609D01*
X32579308Y-70687967D01*
X32457033Y-70565692D01*
X32355391Y-70425793D01*
X32276885Y-70271717D01*
X32223448Y-70107257D01*
X32196397Y-69936462D01*
X32196397Y-69763538D01*
X32223448Y-69592743D01*
X32276885Y-69428283D01*
X32355391Y-69274207D01*
X32457033Y-69134308D01*
X32579308Y-69012033D01*
X32719207Y-68910391D01*
X32873283Y-68831885D01*
X33037743Y-68778448D01*
X33208538Y-68751397D01*
X33381462Y-68751397D01*
X33552257Y-68778448D01*
G37*
G36*
X36092257Y-68778448D02*
G01*
X36256717Y-68831885D01*
X36410793Y-68910391D01*
X36550692Y-69012033D01*
X36672967Y-69134308D01*
X36774609Y-69274207D01*
X36853115Y-69428283D01*
X36906552Y-69592743D01*
X36933603Y-69763538D01*
X36933603Y-69936462D01*
X36906552Y-70107257D01*
X36853115Y-70271717D01*
X36774609Y-70425793D01*
X36672967Y-70565692D01*
X36550692Y-70687967D01*
X36410793Y-70789609D01*
X36256717Y-70868115D01*
X36092257Y-70921552D01*
X35921462Y-70948603D01*
X35748538Y-70948603D01*
X35577743Y-70921552D01*
X35413283Y-70868115D01*
X35259207Y-70789609D01*
X35119308Y-70687967D01*
X34997033Y-70565692D01*
X34895391Y-70425793D01*
X34816885Y-70271717D01*
X34763448Y-70107257D01*
X34736397Y-69936462D01*
X34736397Y-69763538D01*
X34763448Y-69592743D01*
X34816885Y-69428283D01*
X34895391Y-69274207D01*
X34997033Y-69134308D01*
X35119308Y-69012033D01*
X35259207Y-68910391D01*
X35413283Y-68831885D01*
X35577743Y-68778448D01*
X35748538Y-68751397D01*
X35921462Y-68751397D01*
X36092257Y-68778448D01*
G37*
G36*
X38632257Y-68778448D02*
G01*
X38796717Y-68831885D01*
X38950793Y-68910391D01*
X39090692Y-69012033D01*
X39212967Y-69134308D01*
X39314609Y-69274207D01*
X39393115Y-69428283D01*
X39446552Y-69592743D01*
X39473603Y-69763538D01*
X39473603Y-69936462D01*
X39446552Y-70107257D01*
X39393115Y-70271717D01*
X39314609Y-70425793D01*
X39212967Y-70565692D01*
X39090692Y-70687967D01*
X38950793Y-70789609D01*
X38796717Y-70868115D01*
X38632257Y-70921552D01*
X38461462Y-70948603D01*
X38288538Y-70948603D01*
X38117743Y-70921552D01*
X37953283Y-70868115D01*
X37799207Y-70789609D01*
X37659308Y-70687967D01*
X37537033Y-70565692D01*
X37435391Y-70425793D01*
X37356885Y-70271717D01*
X37303448Y-70107257D01*
X37276397Y-69936462D01*
X37276397Y-69763538D01*
X37303448Y-69592743D01*
X37356885Y-69428283D01*
X37435391Y-69274207D01*
X37537033Y-69134308D01*
X37659308Y-69012033D01*
X37799207Y-68910391D01*
X37953283Y-68831885D01*
X38117743Y-68778448D01*
X38288538Y-68751397D01*
X38461462Y-68751397D01*
X38632257Y-68778448D01*
G37*
G36*
X41172257Y-68778448D02*
G01*
X41336717Y-68831885D01*
X41490793Y-68910391D01*
X41630692Y-69012033D01*
X41752967Y-69134308D01*
X41854609Y-69274207D01*
X41933115Y-69428283D01*
X41986552Y-69592743D01*
X42013603Y-69763538D01*
X42013603Y-69936462D01*
X41986552Y-70107257D01*
X41933115Y-70271717D01*
X41854609Y-70425793D01*
X41752967Y-70565692D01*
X41630692Y-70687967D01*
X41490793Y-70789609D01*
X41336717Y-70868115D01*
X41172257Y-70921552D01*
X41001462Y-70948603D01*
X40828538Y-70948603D01*
X40657743Y-70921552D01*
X40493283Y-70868115D01*
X40339207Y-70789609D01*
X40199308Y-70687967D01*
X40077033Y-70565692D01*
X39975391Y-70425793D01*
X39896885Y-70271717D01*
X39843448Y-70107257D01*
X39816397Y-69936462D01*
X39816397Y-69763538D01*
X39843448Y-69592743D01*
X39896885Y-69428283D01*
X39975391Y-69274207D01*
X40077033Y-69134308D01*
X40199308Y-69012033D01*
X40339207Y-68910391D01*
X40493283Y-68831885D01*
X40657743Y-68778448D01*
X40828538Y-68751397D01*
X41001462Y-68751397D01*
X41172257Y-68778448D01*
G37*
G36*
X43712257Y-68778448D02*
G01*
X43876717Y-68831885D01*
X44030793Y-68910391D01*
X44170692Y-69012033D01*
X44292967Y-69134308D01*
X44394609Y-69274207D01*
X44473115Y-69428283D01*
X44526552Y-69592743D01*
X44553603Y-69763538D01*
X44553603Y-69936462D01*
X44526552Y-70107257D01*
X44473115Y-70271717D01*
X44394609Y-70425793D01*
X44292967Y-70565692D01*
X44170692Y-70687967D01*
X44030793Y-70789609D01*
X43876717Y-70868115D01*
X43712257Y-70921552D01*
X43541462Y-70948603D01*
X43368538Y-70948603D01*
X43197743Y-70921552D01*
X43033283Y-70868115D01*
X42879207Y-70789609D01*
X42739308Y-70687967D01*
X42617033Y-70565692D01*
X42515391Y-70425793D01*
X42436885Y-70271717D01*
X42383448Y-70107257D01*
X42356397Y-69936462D01*
X42356397Y-69763538D01*
X42383448Y-69592743D01*
X42436885Y-69428283D01*
X42515391Y-69274207D01*
X42617033Y-69134308D01*
X42739308Y-69012033D01*
X42879207Y-68910391D01*
X43033283Y-68831885D01*
X43197743Y-68778448D01*
X43368538Y-68751397D01*
X43541462Y-68751397D01*
X43712257Y-68778448D01*
G37*
G36*
X46252257Y-68778448D02*
G01*
X46416717Y-68831885D01*
X46570793Y-68910391D01*
X46710692Y-69012033D01*
X46832967Y-69134308D01*
X46934609Y-69274207D01*
X47013115Y-69428283D01*
X47066552Y-69592743D01*
X47093603Y-69763538D01*
X47093603Y-69936462D01*
X47066552Y-70107257D01*
X47013115Y-70271717D01*
X46934609Y-70425793D01*
X46832967Y-70565692D01*
X46710692Y-70687967D01*
X46570793Y-70789609D01*
X46416717Y-70868115D01*
X46252257Y-70921552D01*
X46081462Y-70948603D01*
X45908538Y-70948603D01*
X45737743Y-70921552D01*
X45573283Y-70868115D01*
X45419207Y-70789609D01*
X45279308Y-70687967D01*
X45157033Y-70565692D01*
X45055391Y-70425793D01*
X44976885Y-70271717D01*
X44923448Y-70107257D01*
X44896397Y-69936462D01*
X44896397Y-69763538D01*
X44923448Y-69592743D01*
X44976885Y-69428283D01*
X45055391Y-69274207D01*
X45157033Y-69134308D01*
X45279308Y-69012033D01*
X45419207Y-68910391D01*
X45573283Y-68831885D01*
X45737743Y-68778448D01*
X45908538Y-68751397D01*
X46081462Y-68751397D01*
X46252257Y-68778448D01*
G37*
G36*
X48792257Y-68778448D02*
G01*
X48956717Y-68831885D01*
X49110793Y-68910391D01*
X49250692Y-69012033D01*
X49372967Y-69134308D01*
X49474609Y-69274207D01*
X49553115Y-69428283D01*
X49606552Y-69592743D01*
X49633603Y-69763538D01*
X49633603Y-69936462D01*
X49606552Y-70107257D01*
X49553115Y-70271717D01*
X49474609Y-70425793D01*
X49372967Y-70565692D01*
X49250692Y-70687967D01*
X49110793Y-70789609D01*
X48956717Y-70868115D01*
X48792257Y-70921552D01*
X48621462Y-70948603D01*
X48448538Y-70948603D01*
X48277743Y-70921552D01*
X48113283Y-70868115D01*
X47959207Y-70789609D01*
X47819308Y-70687967D01*
X47697033Y-70565692D01*
X47595391Y-70425793D01*
X47516885Y-70271717D01*
X47463448Y-70107257D01*
X47436397Y-69936462D01*
X47436397Y-69763538D01*
X47463448Y-69592743D01*
X47516885Y-69428283D01*
X47595391Y-69274207D01*
X47697033Y-69134308D01*
X47819308Y-69012033D01*
X47959207Y-68910391D01*
X48113283Y-68831885D01*
X48277743Y-68778448D01*
X48448538Y-68751397D01*
X48621462Y-68751397D01*
X48792257Y-68778448D01*
G37*
G36*
X51332257Y-68778448D02*
G01*
X51496717Y-68831885D01*
X51650793Y-68910391D01*
X51790692Y-69012033D01*
X51912967Y-69134308D01*
X52014609Y-69274207D01*
X52093115Y-69428283D01*
X52146552Y-69592743D01*
X52173603Y-69763538D01*
X52173603Y-69936462D01*
X52146552Y-70107257D01*
X52093115Y-70271717D01*
X52014609Y-70425793D01*
X51912967Y-70565692D01*
X51790692Y-70687967D01*
X51650793Y-70789609D01*
X51496717Y-70868115D01*
X51332257Y-70921552D01*
X51161462Y-70948603D01*
X50988538Y-70948603D01*
X50817743Y-70921552D01*
X50653283Y-70868115D01*
X50499207Y-70789609D01*
X50359308Y-70687967D01*
X50237033Y-70565692D01*
X50135391Y-70425793D01*
X50056885Y-70271717D01*
X50003448Y-70107257D01*
X49976397Y-69936462D01*
X49976397Y-69763538D01*
X50003448Y-69592743D01*
X50056885Y-69428283D01*
X50135391Y-69274207D01*
X50237033Y-69134308D01*
X50359308Y-69012033D01*
X50499207Y-68910391D01*
X50653283Y-68831885D01*
X50817743Y-68778448D01*
X50988538Y-68751397D01*
X51161462Y-68751397D01*
X51332257Y-68778448D01*
G37*
G36*
X53872257Y-68778448D02*
G01*
X54036717Y-68831885D01*
X54190793Y-68910391D01*
X54330692Y-69012033D01*
X54452967Y-69134308D01*
X54554609Y-69274207D01*
X54633115Y-69428283D01*
X54686552Y-69592743D01*
X54713603Y-69763538D01*
X54713603Y-69936462D01*
X54686552Y-70107257D01*
X54633115Y-70271717D01*
X54554609Y-70425793D01*
X54452967Y-70565692D01*
X54330692Y-70687967D01*
X54190793Y-70789609D01*
X54036717Y-70868115D01*
X53872257Y-70921552D01*
X53701462Y-70948603D01*
X53528538Y-70948603D01*
X53357743Y-70921552D01*
X53193283Y-70868115D01*
X53039207Y-70789609D01*
X52899308Y-70687967D01*
X52777033Y-70565692D01*
X52675391Y-70425793D01*
X52596885Y-70271717D01*
X52543448Y-70107257D01*
X52516397Y-69936462D01*
X52516397Y-69763538D01*
X52543448Y-69592743D01*
X52596885Y-69428283D01*
X52675391Y-69274207D01*
X52777033Y-69134308D01*
X52899308Y-69012033D01*
X53039207Y-68910391D01*
X53193283Y-68831885D01*
X53357743Y-68778448D01*
X53528538Y-68751397D01*
X53701462Y-68751397D01*
X53872257Y-68778448D01*
G37*
G36*
X56412257Y-68778448D02*
G01*
X56576717Y-68831885D01*
X56730793Y-68910391D01*
X56870692Y-69012033D01*
X56992967Y-69134308D01*
X57094609Y-69274207D01*
X57173115Y-69428283D01*
X57226552Y-69592743D01*
X57253603Y-69763538D01*
X57253603Y-69936462D01*
X57226552Y-70107257D01*
X57173115Y-70271717D01*
X57094609Y-70425793D01*
X56992967Y-70565692D01*
X56870692Y-70687967D01*
X56730793Y-70789609D01*
X56576717Y-70868115D01*
X56412257Y-70921552D01*
X56241462Y-70948603D01*
X56068538Y-70948603D01*
X55897743Y-70921552D01*
X55733283Y-70868115D01*
X55579207Y-70789609D01*
X55439308Y-70687967D01*
X55317033Y-70565692D01*
X55215391Y-70425793D01*
X55136885Y-70271717D01*
X55083448Y-70107257D01*
X55056397Y-69936462D01*
X55056397Y-69763538D01*
X55083448Y-69592743D01*
X55136885Y-69428283D01*
X55215391Y-69274207D01*
X55317033Y-69134308D01*
X55439308Y-69012033D01*
X55579207Y-68910391D01*
X55733283Y-68831885D01*
X55897743Y-68778448D01*
X56068538Y-68751397D01*
X56241462Y-68751397D01*
X56412257Y-68778448D01*
G37*
G36*
X17515168Y-67921445D02*
G01*
X17739025Y-67994181D01*
X17948748Y-68101040D01*
X18139172Y-68239391D01*
X18305609Y-68405828D01*
X18443960Y-68596252D01*
X18550819Y-68805975D01*
X18623555Y-69029832D01*
X18660376Y-69262311D01*
X18660376Y-69497689D01*
X18623555Y-69730168D01*
X18550819Y-69954025D01*
X18443960Y-70163748D01*
X18305609Y-70354172D01*
X18139172Y-70520609D01*
X17948748Y-70658960D01*
X17739025Y-70765819D01*
X17515168Y-70838555D01*
X17282689Y-70875376D01*
X17047311Y-70875376D01*
X16814832Y-70838555D01*
X16590975Y-70765819D01*
X16381252Y-70658960D01*
X16190828Y-70520609D01*
X16024391Y-70354172D01*
X15886040Y-70163748D01*
X15779181Y-69954025D01*
X15706445Y-69730168D01*
X15669624Y-69497689D01*
X15669624Y-69262311D01*
X15706445Y-69029832D01*
X15779181Y-68805975D01*
X15886040Y-68596252D01*
X16024391Y-68405828D01*
X16190828Y-68239391D01*
X16381252Y-68101040D01*
X16590975Y-67994181D01*
X16814832Y-67921445D01*
X17047311Y-67884624D01*
X17282689Y-67884624D01*
X17515168Y-67921445D01*
G37*
G36*
X64465168Y-67921445D02*
G01*
X64689025Y-67994181D01*
X64898748Y-68101040D01*
X65089172Y-68239391D01*
X65255609Y-68405828D01*
X65393960Y-68596252D01*
X65500819Y-68805975D01*
X65573555Y-69029832D01*
X65610376Y-69262311D01*
X65610376Y-69497689D01*
X65573555Y-69730168D01*
X65500819Y-69954025D01*
X65393960Y-70163748D01*
X65255609Y-70354172D01*
X65089172Y-70520609D01*
X64898748Y-70658960D01*
X64689025Y-70765819D01*
X64465168Y-70838555D01*
X64232689Y-70875376D01*
X63997311Y-70875376D01*
X63764832Y-70838555D01*
X63540975Y-70765819D01*
X63331252Y-70658960D01*
X63140828Y-70520609D01*
X62974391Y-70354172D01*
X62836040Y-70163748D01*
X62729181Y-69954025D01*
X62656445Y-69730168D01*
X62619624Y-69497689D01*
X62619624Y-69262311D01*
X62656445Y-69029832D01*
X62729181Y-68805975D01*
X62836040Y-68596252D01*
X62974391Y-68405828D01*
X63140828Y-68239391D01*
X63331252Y-68101040D01*
X63540975Y-67994181D01*
X63764832Y-67921445D01*
X63997311Y-67884624D01*
X64232689Y-67884624D01*
X64465168Y-67921445D01*
G37*
G36*
X74033513Y-64484208D02*
G01*
X74272293Y-64561793D01*
X74495998Y-64675776D01*
X74699117Y-64823350D01*
X74876650Y-65000883D01*
X75024224Y-65204002D01*
X75138207Y-65427707D01*
X75215792Y-65666487D01*
X75255068Y-65914465D01*
X75255068Y-66165535D01*
X75215792Y-66413513D01*
X75138207Y-66652293D01*
X75024224Y-66875998D01*
X74876650Y-67079117D01*
X74699117Y-67256650D01*
X74495998Y-67404224D01*
X74272293Y-67518207D01*
X74033513Y-67595792D01*
X73785535Y-67635068D01*
X73534465Y-67635068D01*
X73286487Y-67595792D01*
X73047707Y-67518207D01*
X72824002Y-67404224D01*
X72620883Y-67256650D01*
X72443350Y-67079117D01*
X72295776Y-66875998D01*
X72181793Y-66652293D01*
X72104208Y-66413513D01*
X72064932Y-66165535D01*
X72064932Y-65914465D01*
X72104208Y-65666487D01*
X72181793Y-65427707D01*
X72295776Y-65204002D01*
X72443350Y-65000883D01*
X72620883Y-64823350D01*
X72824002Y-64675776D01*
X73047707Y-64561793D01*
X73286487Y-64484208D01*
X73534465Y-64444932D01*
X73785535Y-64444932D01*
X74033513Y-64484208D01*
G37*
G36*
X90724116Y-65240818D02*
G01*
X90775379Y-65246766D01*
X90792892Y-65254499D01*
X90815671Y-65259030D01*
X90840057Y-65275324D01*
X90860788Y-65284478D01*
X90874946Y-65298636D01*
X90896777Y-65313223D01*
X90911363Y-65335053D01*
X90925521Y-65349211D01*
X90934673Y-65369939D01*
X90950970Y-65394329D01*
X90955501Y-65417109D01*
X90963233Y-65434620D01*
X90969178Y-65485872D01*
X90970000Y-65490000D01*
X90970000Y-66590000D01*
X90969178Y-66594128D01*
X90963233Y-66645379D01*
X90955501Y-66662888D01*
X90950970Y-66685671D01*
X90934672Y-66710062D01*
X90925521Y-66730788D01*
X90911365Y-66744943D01*
X90896777Y-66766777D01*
X90874943Y-66781365D01*
X90860788Y-66795521D01*
X90840062Y-66804672D01*
X90815671Y-66820970D01*
X90792888Y-66825501D01*
X90775379Y-66833233D01*
X90724129Y-66839178D01*
X90720000Y-66840000D01*
X89620000Y-66840000D01*
X89615873Y-66839179D01*
X89564620Y-66833233D01*
X89547109Y-66825501D01*
X89524329Y-66820970D01*
X89499939Y-66804673D01*
X89479211Y-66795521D01*
X89465053Y-66781363D01*
X89443223Y-66766777D01*
X89428636Y-66744946D01*
X89414478Y-66730788D01*
X89405324Y-66710057D01*
X89389030Y-66685671D01*
X89384499Y-66662892D01*
X89376766Y-66645379D01*
X89370818Y-66594117D01*
X89370000Y-66590000D01*
X89370000Y-65490000D01*
X89370818Y-65485885D01*
X89376766Y-65434620D01*
X89384499Y-65417105D01*
X89389030Y-65394329D01*
X89405323Y-65369944D01*
X89414478Y-65349211D01*
X89428638Y-65335050D01*
X89443223Y-65313223D01*
X89465050Y-65298638D01*
X89479211Y-65284478D01*
X89499944Y-65275323D01*
X89524329Y-65259030D01*
X89547105Y-65254499D01*
X89564620Y-65246766D01*
X89615884Y-65240818D01*
X89620000Y-65240000D01*
X90720000Y-65240000D01*
X90724116Y-65240818D01*
G37*
G36*
X82782228Y-65274448D02*
G01*
X82927117Y-65334463D01*
X83057515Y-65421592D01*
X83168408Y-65532485D01*
X83255537Y-65662883D01*
X83315552Y-65807772D01*
X83346148Y-65961586D01*
X83346148Y-66118414D01*
X83315552Y-66272228D01*
X83255537Y-66417117D01*
X83168408Y-66547515D01*
X83057515Y-66658408D01*
X82927117Y-66745537D01*
X82782228Y-66805552D01*
X82628414Y-66836148D01*
X82471586Y-66836148D01*
X82317772Y-66805552D01*
X82172883Y-66745537D01*
X82042485Y-66658408D01*
X81931592Y-66547515D01*
X81844463Y-66417117D01*
X81784448Y-66272228D01*
X81753852Y-66118414D01*
X81753852Y-65961586D01*
X81784448Y-65807772D01*
X81844463Y-65662883D01*
X81931592Y-65532485D01*
X82042485Y-65421592D01*
X82172883Y-65334463D01*
X82317772Y-65274448D01*
X82471586Y-65243852D01*
X82628414Y-65243852D01*
X82782228Y-65274448D01*
G37*
G36*
X82782228Y-62734448D02*
G01*
X82927117Y-62794463D01*
X83057515Y-62881592D01*
X83168408Y-62992485D01*
X83255537Y-63122883D01*
X83315552Y-63267772D01*
X83346148Y-63421586D01*
X83346148Y-63578414D01*
X83315552Y-63732228D01*
X83255537Y-63877117D01*
X83168408Y-64007515D01*
X83057515Y-64118408D01*
X82927117Y-64205537D01*
X82782228Y-64265552D01*
X82628414Y-64296148D01*
X82471586Y-64296148D01*
X82317772Y-64265552D01*
X82172883Y-64205537D01*
X82042485Y-64118408D01*
X81931592Y-64007515D01*
X81844463Y-63877117D01*
X81784448Y-63732228D01*
X81753852Y-63578414D01*
X81753852Y-63421586D01*
X81784448Y-63267772D01*
X81844463Y-63122883D01*
X81931592Y-62992485D01*
X82042485Y-62881592D01*
X82172883Y-62794463D01*
X82317772Y-62734448D01*
X82471586Y-62703852D01*
X82628414Y-62703852D01*
X82782228Y-62734448D01*
G37*
G36*
X90402228Y-62734448D02*
G01*
X90547117Y-62794463D01*
X90677515Y-62881592D01*
X90788408Y-62992485D01*
X90875537Y-63122883D01*
X90935552Y-63267772D01*
X90966148Y-63421586D01*
X90966148Y-63578414D01*
X90935552Y-63732228D01*
X90875537Y-63877117D01*
X90788408Y-64007515D01*
X90677515Y-64118408D01*
X90547117Y-64205537D01*
X90402228Y-64265552D01*
X90248414Y-64296148D01*
X90091586Y-64296148D01*
X89937772Y-64265552D01*
X89792883Y-64205537D01*
X89662485Y-64118408D01*
X89551592Y-64007515D01*
X89464463Y-63877117D01*
X89404448Y-63732228D01*
X89373852Y-63578414D01*
X89373852Y-63421586D01*
X89404448Y-63267772D01*
X89464463Y-63122883D01*
X89551592Y-62992485D01*
X89662485Y-62881592D01*
X89792883Y-62794463D01*
X89937772Y-62734448D01*
X90091586Y-62703852D01*
X90248414Y-62703852D01*
X90402228Y-62734448D01*
G37*
G36*
X82782228Y-60194448D02*
G01*
X82927117Y-60254463D01*
X83057515Y-60341592D01*
X83168408Y-60452485D01*
X83255537Y-60582883D01*
X83315552Y-60727772D01*
X83346148Y-60881586D01*
X83346148Y-61038414D01*
X83315552Y-61192228D01*
X83255537Y-61337117D01*
X83168408Y-61467515D01*
X83057515Y-61578408D01*
X82927117Y-61665537D01*
X82782228Y-61725552D01*
X82628414Y-61756148D01*
X82471586Y-61756148D01*
X82317772Y-61725552D01*
X82172883Y-61665537D01*
X82042485Y-61578408D01*
X81931592Y-61467515D01*
X81844463Y-61337117D01*
X81784448Y-61192228D01*
X81753852Y-61038414D01*
X81753852Y-60881586D01*
X81784448Y-60727772D01*
X81844463Y-60582883D01*
X81931592Y-60452485D01*
X82042485Y-60341592D01*
X82172883Y-60254463D01*
X82317772Y-60194448D01*
X82471586Y-60163852D01*
X82628414Y-60163852D01*
X82782228Y-60194448D01*
G37*
G36*
X90402228Y-60194448D02*
G01*
X90547117Y-60254463D01*
X90677515Y-60341592D01*
X90788408Y-60452485D01*
X90875537Y-60582883D01*
X90935552Y-60727772D01*
X90966148Y-60881586D01*
X90966148Y-61038414D01*
X90935552Y-61192228D01*
X90875537Y-61337117D01*
X90788408Y-61467515D01*
X90677515Y-61578408D01*
X90547117Y-61665537D01*
X90402228Y-61725552D01*
X90248414Y-61756148D01*
X90091586Y-61756148D01*
X89937772Y-61725552D01*
X89792883Y-61665537D01*
X89662485Y-61578408D01*
X89551592Y-61467515D01*
X89464463Y-61337117D01*
X89404448Y-61192228D01*
X89373852Y-61038414D01*
X89373852Y-60881586D01*
X89404448Y-60727772D01*
X89464463Y-60582883D01*
X89551592Y-60452485D01*
X89662485Y-60341592D01*
X89792883Y-60254463D01*
X89937772Y-60194448D01*
X90091586Y-60163852D01*
X90248414Y-60163852D01*
X90402228Y-60194448D01*
G37*
G36*
X82782228Y-57654448D02*
G01*
X82927117Y-57714463D01*
X83057515Y-57801592D01*
X83168408Y-57912485D01*
X83255537Y-58042883D01*
X83315552Y-58187772D01*
X83346148Y-58341586D01*
X83346148Y-58498414D01*
X83315552Y-58652228D01*
X83255537Y-58797117D01*
X83168408Y-58927515D01*
X83057515Y-59038408D01*
X82927117Y-59125537D01*
X82782228Y-59185552D01*
X82628414Y-59216148D01*
X82471586Y-59216148D01*
X82317772Y-59185552D01*
X82172883Y-59125537D01*
X82042485Y-59038408D01*
X81931592Y-58927515D01*
X81844463Y-58797117D01*
X81784448Y-58652228D01*
X81753852Y-58498414D01*
X81753852Y-58341586D01*
X81784448Y-58187772D01*
X81844463Y-58042883D01*
X81931592Y-57912485D01*
X82042485Y-57801592D01*
X82172883Y-57714463D01*
X82317772Y-57654448D01*
X82471586Y-57623852D01*
X82628414Y-57623852D01*
X82782228Y-57654448D01*
G37*
G36*
X90402228Y-57654448D02*
G01*
X90547117Y-57714463D01*
X90677515Y-57801592D01*
X90788408Y-57912485D01*
X90875537Y-58042883D01*
X90935552Y-58187772D01*
X90966148Y-58341586D01*
X90966148Y-58498414D01*
X90935552Y-58652228D01*
X90875537Y-58797117D01*
X90788408Y-58927515D01*
X90677515Y-59038408D01*
X90547117Y-59125537D01*
X90402228Y-59185552D01*
X90248414Y-59216148D01*
X90091586Y-59216148D01*
X89937772Y-59185552D01*
X89792883Y-59125537D01*
X89662485Y-59038408D01*
X89551592Y-58927515D01*
X89464463Y-58797117D01*
X89404448Y-58652228D01*
X89373852Y-58498414D01*
X89373852Y-58341586D01*
X89404448Y-58187772D01*
X89464463Y-58042883D01*
X89551592Y-57912485D01*
X89662485Y-57801592D01*
X89792883Y-57714463D01*
X89937772Y-57654448D01*
X90091586Y-57623852D01*
X90248414Y-57623852D01*
X90402228Y-57654448D01*
G37*
G36*
X74414116Y-56070818D02*
G01*
X74465379Y-56076766D01*
X74482892Y-56084499D01*
X74505671Y-56089030D01*
X74530057Y-56105324D01*
X74550788Y-56114478D01*
X74564946Y-56128636D01*
X74586777Y-56143223D01*
X74601363Y-56165053D01*
X74615521Y-56179211D01*
X74624673Y-56199939D01*
X74640970Y-56224329D01*
X74645501Y-56247109D01*
X74653233Y-56264620D01*
X74659178Y-56315872D01*
X74660000Y-56320000D01*
X74660000Y-57820000D01*
X74659178Y-57824128D01*
X74653233Y-57875379D01*
X74645501Y-57892888D01*
X74640970Y-57915671D01*
X74624672Y-57940062D01*
X74615521Y-57960788D01*
X74601365Y-57974943D01*
X74586777Y-57996777D01*
X74564943Y-58011365D01*
X74550788Y-58025521D01*
X74530062Y-58034672D01*
X74505671Y-58050970D01*
X74482888Y-58055501D01*
X74465379Y-58063233D01*
X74414129Y-58069178D01*
X74410000Y-58070000D01*
X72910000Y-58070000D01*
X72905873Y-58069179D01*
X72854620Y-58063233D01*
X72837109Y-58055501D01*
X72814329Y-58050970D01*
X72789939Y-58034673D01*
X72769211Y-58025521D01*
X72755053Y-58011363D01*
X72733223Y-57996777D01*
X72718636Y-57974946D01*
X72704478Y-57960788D01*
X72695324Y-57940057D01*
X72679030Y-57915671D01*
X72674499Y-57892892D01*
X72666766Y-57875379D01*
X72660818Y-57824117D01*
X72660000Y-57820000D01*
X72660000Y-56320000D01*
X72660818Y-56315885D01*
X72666766Y-56264620D01*
X72674499Y-56247105D01*
X72679030Y-56224329D01*
X72695323Y-56199944D01*
X72704478Y-56179211D01*
X72718638Y-56165050D01*
X72733223Y-56143223D01*
X72755050Y-56128638D01*
X72769211Y-56114478D01*
X72789944Y-56105323D01*
X72814329Y-56089030D01*
X72837105Y-56084499D01*
X72854620Y-56076766D01*
X72905884Y-56070818D01*
X72910000Y-56070000D01*
X74410000Y-56070000D01*
X74414116Y-56070818D01*
G37*
G36*
X82782228Y-55114448D02*
G01*
X82927117Y-55174463D01*
X83057515Y-55261592D01*
X83168408Y-55372485D01*
X83255537Y-55502883D01*
X83315552Y-55647772D01*
X83346148Y-55801586D01*
X83346148Y-55958414D01*
X83315552Y-56112228D01*
X83255537Y-56257117D01*
X83168408Y-56387515D01*
X83057515Y-56498408D01*
X82927117Y-56585537D01*
X82782228Y-56645552D01*
X82628414Y-56676148D01*
X82471586Y-56676148D01*
X82317772Y-56645552D01*
X82172883Y-56585537D01*
X82042485Y-56498408D01*
X81931592Y-56387515D01*
X81844463Y-56257117D01*
X81784448Y-56112228D01*
X81753852Y-55958414D01*
X81753852Y-55801586D01*
X81784448Y-55647772D01*
X81844463Y-55502883D01*
X81931592Y-55372485D01*
X82042485Y-55261592D01*
X82172883Y-55174463D01*
X82317772Y-55114448D01*
X82471586Y-55083852D01*
X82628414Y-55083852D01*
X82782228Y-55114448D01*
G37*
G36*
X90402228Y-55114448D02*
G01*
X90547117Y-55174463D01*
X90677515Y-55261592D01*
X90788408Y-55372485D01*
X90875537Y-55502883D01*
X90935552Y-55647772D01*
X90966148Y-55801586D01*
X90966148Y-55958414D01*
X90935552Y-56112228D01*
X90875537Y-56257117D01*
X90788408Y-56387515D01*
X90677515Y-56498408D01*
X90547117Y-56585537D01*
X90402228Y-56645552D01*
X90248414Y-56676148D01*
X90091586Y-56676148D01*
X89937772Y-56645552D01*
X89792883Y-56585537D01*
X89662485Y-56498408D01*
X89551592Y-56387515D01*
X89464463Y-56257117D01*
X89404448Y-56112228D01*
X89373852Y-55958414D01*
X89373852Y-55801586D01*
X89404448Y-55647772D01*
X89464463Y-55502883D01*
X89551592Y-55372485D01*
X89662485Y-55261592D01*
X89792883Y-55174463D01*
X89937772Y-55114448D01*
X90091586Y-55083852D01*
X90248414Y-55083852D01*
X90402228Y-55114448D01*
G37*
G36*
X82782228Y-52574448D02*
G01*
X82927117Y-52634463D01*
X83057515Y-52721592D01*
X83168408Y-52832485D01*
X83255537Y-52962883D01*
X83315552Y-53107772D01*
X83346148Y-53261586D01*
X83346148Y-53418414D01*
X83315552Y-53572228D01*
X83255537Y-53717117D01*
X83168408Y-53847515D01*
X83057515Y-53958408D01*
X82927117Y-54045537D01*
X82782228Y-54105552D01*
X82628414Y-54136148D01*
X82471586Y-54136148D01*
X82317772Y-54105552D01*
X82172883Y-54045537D01*
X82042485Y-53958408D01*
X81931592Y-53847515D01*
X81844463Y-53717117D01*
X81784448Y-53572228D01*
X81753852Y-53418414D01*
X81753852Y-53261586D01*
X81784448Y-53107772D01*
X81844463Y-52962883D01*
X81931592Y-52832485D01*
X82042485Y-52721592D01*
X82172883Y-52634463D01*
X82317772Y-52574448D01*
X82471586Y-52543852D01*
X82628414Y-52543852D01*
X82782228Y-52574448D01*
G37*
G36*
X90402228Y-52574448D02*
G01*
X90547117Y-52634463D01*
X90677515Y-52721592D01*
X90788408Y-52832485D01*
X90875537Y-52962883D01*
X90935552Y-53107772D01*
X90966148Y-53261586D01*
X90966148Y-53418414D01*
X90935552Y-53572228D01*
X90875537Y-53717117D01*
X90788408Y-53847515D01*
X90677515Y-53958408D01*
X90547117Y-54045537D01*
X90402228Y-54105552D01*
X90248414Y-54136148D01*
X90091586Y-54136148D01*
X89937772Y-54105552D01*
X89792883Y-54045537D01*
X89662485Y-53958408D01*
X89551592Y-53847515D01*
X89464463Y-53717117D01*
X89404448Y-53572228D01*
X89373852Y-53418414D01*
X89373852Y-53261586D01*
X89404448Y-53107772D01*
X89464463Y-52962883D01*
X89551592Y-52832485D01*
X89662485Y-52721592D01*
X89792883Y-52634463D01*
X89937772Y-52574448D01*
X90091586Y-52543852D01*
X90248414Y-52543852D01*
X90402228Y-52574448D01*
G37*
G36*
X73950285Y-51113060D02*
G01*
X74131397Y-51188079D01*
X74294393Y-51296990D01*
X74433010Y-51435607D01*
X74541921Y-51598603D01*
X74616940Y-51779715D01*
X74655185Y-51971983D01*
X74655185Y-52168017D01*
X74616940Y-52360285D01*
X74541921Y-52541397D01*
X74433010Y-52704393D01*
X74294393Y-52843010D01*
X74131397Y-52951921D01*
X73950285Y-53026940D01*
X73758017Y-53065185D01*
X73561983Y-53065185D01*
X73369715Y-53026940D01*
X73188603Y-52951921D01*
X73025607Y-52843010D01*
X72886990Y-52704393D01*
X72778079Y-52541397D01*
X72703060Y-52360285D01*
X72664815Y-52168017D01*
X72664815Y-51971983D01*
X72703060Y-51779715D01*
X72778079Y-51598603D01*
X72886990Y-51435607D01*
X73025607Y-51296990D01*
X73188603Y-51188079D01*
X73369715Y-51113060D01*
X73561983Y-51074815D01*
X73758017Y-51074815D01*
X73950285Y-51113060D01*
G37*
G36*
X82782228Y-50034448D02*
G01*
X82927117Y-50094463D01*
X83057515Y-50181592D01*
X83168408Y-50292485D01*
X83255537Y-50422883D01*
X83315552Y-50567772D01*
X83346148Y-50721586D01*
X83346148Y-50878414D01*
X83315552Y-51032228D01*
X83255537Y-51177117D01*
X83168408Y-51307515D01*
X83057515Y-51418408D01*
X82927117Y-51505537D01*
X82782228Y-51565552D01*
X82628414Y-51596148D01*
X82471586Y-51596148D01*
X82317772Y-51565552D01*
X82172883Y-51505537D01*
X82042485Y-51418408D01*
X81931592Y-51307515D01*
X81844463Y-51177117D01*
X81784448Y-51032228D01*
X81753852Y-50878414D01*
X81753852Y-50721586D01*
X81784448Y-50567772D01*
X81844463Y-50422883D01*
X81931592Y-50292485D01*
X82042485Y-50181592D01*
X82172883Y-50094463D01*
X82317772Y-50034448D01*
X82471586Y-50003852D01*
X82628414Y-50003852D01*
X82782228Y-50034448D01*
G37*
G36*
X90402228Y-50034448D02*
G01*
X90547117Y-50094463D01*
X90677515Y-50181592D01*
X90788408Y-50292485D01*
X90875537Y-50422883D01*
X90935552Y-50567772D01*
X90966148Y-50721586D01*
X90966148Y-50878414D01*
X90935552Y-51032228D01*
X90875537Y-51177117D01*
X90788408Y-51307515D01*
X90677515Y-51418408D01*
X90547117Y-51505537D01*
X90402228Y-51565552D01*
X90248414Y-51596148D01*
X90091586Y-51596148D01*
X89937772Y-51565552D01*
X89792883Y-51505537D01*
X89662485Y-51418408D01*
X89551592Y-51307515D01*
X89464463Y-51177117D01*
X89404448Y-51032228D01*
X89373852Y-50878414D01*
X89373852Y-50721586D01*
X89404448Y-50567772D01*
X89464463Y-50422883D01*
X89551592Y-50292485D01*
X89662485Y-50181592D01*
X89792883Y-50094463D01*
X89937772Y-50034448D01*
X90091586Y-50003852D01*
X90248414Y-50003852D01*
X90402228Y-50034448D01*
G37*
G36*
X82782228Y-47494448D02*
G01*
X82927117Y-47554463D01*
X83057515Y-47641592D01*
X83168408Y-47752485D01*
X83255537Y-47882883D01*
X83315552Y-48027772D01*
X83346148Y-48181586D01*
X83346148Y-48338414D01*
X83315552Y-48492228D01*
X83255537Y-48637117D01*
X83168408Y-48767515D01*
X83057515Y-48878408D01*
X82927117Y-48965537D01*
X82782228Y-49025552D01*
X82628414Y-49056148D01*
X82471586Y-49056148D01*
X82317772Y-49025552D01*
X82172883Y-48965537D01*
X82042485Y-48878408D01*
X81931592Y-48767515D01*
X81844463Y-48637117D01*
X81784448Y-48492228D01*
X81753852Y-48338414D01*
X81753852Y-48181586D01*
X81784448Y-48027772D01*
X81844463Y-47882883D01*
X81931592Y-47752485D01*
X82042485Y-47641592D01*
X82172883Y-47554463D01*
X82317772Y-47494448D01*
X82471586Y-47463852D01*
X82628414Y-47463852D01*
X82782228Y-47494448D01*
G37*
G36*
X90402228Y-47494448D02*
G01*
X90547117Y-47554463D01*
X90677515Y-47641592D01*
X90788408Y-47752485D01*
X90875537Y-47882883D01*
X90935552Y-48027772D01*
X90966148Y-48181586D01*
X90966148Y-48338414D01*
X90935552Y-48492228D01*
X90875537Y-48637117D01*
X90788408Y-48767515D01*
X90677515Y-48878408D01*
X90547117Y-48965537D01*
X90402228Y-49025552D01*
X90248414Y-49056148D01*
X90091586Y-49056148D01*
X89937772Y-49025552D01*
X89792883Y-48965537D01*
X89662485Y-48878408D01*
X89551592Y-48767515D01*
X89464463Y-48637117D01*
X89404448Y-48492228D01*
X89373852Y-48338414D01*
X89373852Y-48181586D01*
X89404448Y-48027772D01*
X89464463Y-47882883D01*
X89551592Y-47752485D01*
X89662485Y-47641592D01*
X89792883Y-47554463D01*
X89937772Y-47494448D01*
X90091586Y-47463852D01*
X90248414Y-47463852D01*
X90402228Y-47494448D01*
G37*
G36*
X17515168Y-43411445D02*
G01*
X17739025Y-43484181D01*
X17948748Y-43591040D01*
X18139172Y-43729391D01*
X18305609Y-43895828D01*
X18443960Y-44086252D01*
X18550819Y-44295975D01*
X18623555Y-44519832D01*
X18660376Y-44752311D01*
X18660376Y-44987689D01*
X18623555Y-45220168D01*
X18550819Y-45444025D01*
X18443960Y-45653748D01*
X18305609Y-45844172D01*
X18139172Y-46010609D01*
X17948748Y-46148960D01*
X17739025Y-46255819D01*
X17515168Y-46328555D01*
X17282689Y-46365376D01*
X17047311Y-46365376D01*
X16814832Y-46328555D01*
X16590975Y-46255819D01*
X16381252Y-46148960D01*
X16190828Y-46010609D01*
X16024391Y-45844172D01*
X15886040Y-45653748D01*
X15779181Y-45444025D01*
X15706445Y-45220168D01*
X15669624Y-44987689D01*
X15669624Y-44752311D01*
X15706445Y-44519832D01*
X15779181Y-44295975D01*
X15886040Y-44086252D01*
X16024391Y-43895828D01*
X16190828Y-43729391D01*
X16381252Y-43591040D01*
X16590975Y-43484181D01*
X16814832Y-43411445D01*
X17047311Y-43374624D01*
X17282689Y-43374624D01*
X17515168Y-43411445D01*
G37*
G36*
X64465168Y-43411445D02*
G01*
X64689025Y-43484181D01*
X64898748Y-43591040D01*
X65089172Y-43729391D01*
X65255609Y-43895828D01*
X65393960Y-44086252D01*
X65500819Y-44295975D01*
X65573555Y-44519832D01*
X65610376Y-44752311D01*
X65610376Y-44987689D01*
X65573555Y-45220168D01*
X65500819Y-45444025D01*
X65393960Y-45653748D01*
X65255609Y-45844172D01*
X65089172Y-46010609D01*
X64898748Y-46148960D01*
X64689025Y-46255819D01*
X64465168Y-46328555D01*
X64232689Y-46365376D01*
X63997311Y-46365376D01*
X63764832Y-46328555D01*
X63540975Y-46255819D01*
X63331252Y-46148960D01*
X63140828Y-46010609D01*
X62974391Y-45844172D01*
X62836040Y-45653748D01*
X62729181Y-45444025D01*
X62656445Y-45220168D01*
X62619624Y-44987689D01*
X62619624Y-44752311D01*
X62656445Y-44519832D01*
X62729181Y-44295975D01*
X62836040Y-44086252D01*
X62974391Y-43895828D01*
X63140828Y-43729391D01*
X63331252Y-43591040D01*
X63540975Y-43484181D01*
X63764832Y-43411445D01*
X63997311Y-43374624D01*
X64232689Y-43374624D01*
X64465168Y-43411445D01*
G37*
G36*
X57194034Y-43355764D02*
G01*
X57227125Y-43377875D01*
X57249236Y-43410966D01*
X57257000Y-43450000D01*
X57257000Y-45450000D01*
X57249236Y-45489034D01*
X57227125Y-45522125D01*
X57194034Y-45544236D01*
X57155000Y-45552000D01*
X55155000Y-45552000D01*
X55115966Y-45544236D01*
X55082875Y-45522125D01*
X55060764Y-45489034D01*
X55053000Y-45450000D01*
X55053000Y-43450000D01*
X55060764Y-43410966D01*
X55082875Y-43377875D01*
X55115966Y-43355764D01*
X55155000Y-43348000D01*
X57155000Y-43348000D01*
X57194034Y-43355764D01*
G37*
G36*
X20852257Y-43378448D02*
G01*
X21016717Y-43431885D01*
X21170793Y-43510391D01*
X21310692Y-43612033D01*
X21432967Y-43734308D01*
X21534609Y-43874207D01*
X21613115Y-44028283D01*
X21666552Y-44192743D01*
X21693603Y-44363538D01*
X21693603Y-44536462D01*
X21666552Y-44707257D01*
X21613115Y-44871717D01*
X21534609Y-45025793D01*
X21432967Y-45165692D01*
X21310692Y-45287967D01*
X21170793Y-45389609D01*
X21016717Y-45468115D01*
X20852257Y-45521552D01*
X20681462Y-45548603D01*
X20508538Y-45548603D01*
X20337743Y-45521552D01*
X20173283Y-45468115D01*
X20019207Y-45389609D01*
X19879308Y-45287967D01*
X19757033Y-45165692D01*
X19655391Y-45025793D01*
X19576885Y-44871717D01*
X19523448Y-44707257D01*
X19496397Y-44536462D01*
X19496397Y-44363538D01*
X19523448Y-44192743D01*
X19576885Y-44028283D01*
X19655391Y-43874207D01*
X19757033Y-43734308D01*
X19879308Y-43612033D01*
X20019207Y-43510391D01*
X20173283Y-43431885D01*
X20337743Y-43378448D01*
X20508538Y-43351397D01*
X20681462Y-43351397D01*
X20852257Y-43378448D01*
G37*
G36*
X23392257Y-43378448D02*
G01*
X23556717Y-43431885D01*
X23710793Y-43510391D01*
X23850692Y-43612033D01*
X23972967Y-43734308D01*
X24074609Y-43874207D01*
X24153115Y-44028283D01*
X24206552Y-44192743D01*
X24233603Y-44363538D01*
X24233603Y-44536462D01*
X24206552Y-44707257D01*
X24153115Y-44871717D01*
X24074609Y-45025793D01*
X23972967Y-45165692D01*
X23850692Y-45287967D01*
X23710793Y-45389609D01*
X23556717Y-45468115D01*
X23392257Y-45521552D01*
X23221462Y-45548603D01*
X23048538Y-45548603D01*
X22877743Y-45521552D01*
X22713283Y-45468115D01*
X22559207Y-45389609D01*
X22419308Y-45287967D01*
X22297033Y-45165692D01*
X22195391Y-45025793D01*
X22116885Y-44871717D01*
X22063448Y-44707257D01*
X22036397Y-44536462D01*
X22036397Y-44363538D01*
X22063448Y-44192743D01*
X22116885Y-44028283D01*
X22195391Y-43874207D01*
X22297033Y-43734308D01*
X22419308Y-43612033D01*
X22559207Y-43510391D01*
X22713283Y-43431885D01*
X22877743Y-43378448D01*
X23048538Y-43351397D01*
X23221462Y-43351397D01*
X23392257Y-43378448D01*
G37*
G36*
X25932257Y-43378448D02*
G01*
X26096717Y-43431885D01*
X26250793Y-43510391D01*
X26390692Y-43612033D01*
X26512967Y-43734308D01*
X26614609Y-43874207D01*
X26693115Y-44028283D01*
X26746552Y-44192743D01*
X26773603Y-44363538D01*
X26773603Y-44536462D01*
X26746552Y-44707257D01*
X26693115Y-44871717D01*
X26614609Y-45025793D01*
X26512967Y-45165692D01*
X26390692Y-45287967D01*
X26250793Y-45389609D01*
X26096717Y-45468115D01*
X25932257Y-45521552D01*
X25761462Y-45548603D01*
X25588538Y-45548603D01*
X25417743Y-45521552D01*
X25253283Y-45468115D01*
X25099207Y-45389609D01*
X24959308Y-45287967D01*
X24837033Y-45165692D01*
X24735391Y-45025793D01*
X24656885Y-44871717D01*
X24603448Y-44707257D01*
X24576397Y-44536462D01*
X24576397Y-44363538D01*
X24603448Y-44192743D01*
X24656885Y-44028283D01*
X24735391Y-43874207D01*
X24837033Y-43734308D01*
X24959308Y-43612033D01*
X25099207Y-43510391D01*
X25253283Y-43431885D01*
X25417743Y-43378448D01*
X25588538Y-43351397D01*
X25761462Y-43351397D01*
X25932257Y-43378448D01*
G37*
G36*
X28472257Y-43378448D02*
G01*
X28636717Y-43431885D01*
X28790793Y-43510391D01*
X28930692Y-43612033D01*
X29052967Y-43734308D01*
X29154609Y-43874207D01*
X29233115Y-44028283D01*
X29286552Y-44192743D01*
X29313603Y-44363538D01*
X29313603Y-44536462D01*
X29286552Y-44707257D01*
X29233115Y-44871717D01*
X29154609Y-45025793D01*
X29052967Y-45165692D01*
X28930692Y-45287967D01*
X28790793Y-45389609D01*
X28636717Y-45468115D01*
X28472257Y-45521552D01*
X28301462Y-45548603D01*
X28128538Y-45548603D01*
X27957743Y-45521552D01*
X27793283Y-45468115D01*
X27639207Y-45389609D01*
X27499308Y-45287967D01*
X27377033Y-45165692D01*
X27275391Y-45025793D01*
X27196885Y-44871717D01*
X27143448Y-44707257D01*
X27116397Y-44536462D01*
X27116397Y-44363538D01*
X27143448Y-44192743D01*
X27196885Y-44028283D01*
X27275391Y-43874207D01*
X27377033Y-43734308D01*
X27499308Y-43612033D01*
X27639207Y-43510391D01*
X27793283Y-43431885D01*
X27957743Y-43378448D01*
X28128538Y-43351397D01*
X28301462Y-43351397D01*
X28472257Y-43378448D01*
G37*
G36*
X31012257Y-43378448D02*
G01*
X31176717Y-43431885D01*
X31330793Y-43510391D01*
X31470692Y-43612033D01*
X31592967Y-43734308D01*
X31694609Y-43874207D01*
X31773115Y-44028283D01*
X31826552Y-44192743D01*
X31853603Y-44363538D01*
X31853603Y-44536462D01*
X31826552Y-44707257D01*
X31773115Y-44871717D01*
X31694609Y-45025793D01*
X31592967Y-45165692D01*
X31470692Y-45287967D01*
X31330793Y-45389609D01*
X31176717Y-45468115D01*
X31012257Y-45521552D01*
X30841462Y-45548603D01*
X30668538Y-45548603D01*
X30497743Y-45521552D01*
X30333283Y-45468115D01*
X30179207Y-45389609D01*
X30039308Y-45287967D01*
X29917033Y-45165692D01*
X29815391Y-45025793D01*
X29736885Y-44871717D01*
X29683448Y-44707257D01*
X29656397Y-44536462D01*
X29656397Y-44363538D01*
X29683448Y-44192743D01*
X29736885Y-44028283D01*
X29815391Y-43874207D01*
X29917033Y-43734308D01*
X30039308Y-43612033D01*
X30179207Y-43510391D01*
X30333283Y-43431885D01*
X30497743Y-43378448D01*
X30668538Y-43351397D01*
X30841462Y-43351397D01*
X31012257Y-43378448D01*
G37*
G36*
X33552257Y-43378448D02*
G01*
X33716717Y-43431885D01*
X33870793Y-43510391D01*
X34010692Y-43612033D01*
X34132967Y-43734308D01*
X34234609Y-43874207D01*
X34313115Y-44028283D01*
X34366552Y-44192743D01*
X34393603Y-44363538D01*
X34393603Y-44536462D01*
X34366552Y-44707257D01*
X34313115Y-44871717D01*
X34234609Y-45025793D01*
X34132967Y-45165692D01*
X34010692Y-45287967D01*
X33870793Y-45389609D01*
X33716717Y-45468115D01*
X33552257Y-45521552D01*
X33381462Y-45548603D01*
X33208538Y-45548603D01*
X33037743Y-45521552D01*
X32873283Y-45468115D01*
X32719207Y-45389609D01*
X32579308Y-45287967D01*
X32457033Y-45165692D01*
X32355391Y-45025793D01*
X32276885Y-44871717D01*
X32223448Y-44707257D01*
X32196397Y-44536462D01*
X32196397Y-44363538D01*
X32223448Y-44192743D01*
X32276885Y-44028283D01*
X32355391Y-43874207D01*
X32457033Y-43734308D01*
X32579308Y-43612033D01*
X32719207Y-43510391D01*
X32873283Y-43431885D01*
X33037743Y-43378448D01*
X33208538Y-43351397D01*
X33381462Y-43351397D01*
X33552257Y-43378448D01*
G37*
G36*
X36092257Y-43378448D02*
G01*
X36256717Y-43431885D01*
X36410793Y-43510391D01*
X36550692Y-43612033D01*
X36672967Y-43734308D01*
X36774609Y-43874207D01*
X36853115Y-44028283D01*
X36906552Y-44192743D01*
X36933603Y-44363538D01*
X36933603Y-44536462D01*
X36906552Y-44707257D01*
X36853115Y-44871717D01*
X36774609Y-45025793D01*
X36672967Y-45165692D01*
X36550692Y-45287967D01*
X36410793Y-45389609D01*
X36256717Y-45468115D01*
X36092257Y-45521552D01*
X35921462Y-45548603D01*
X35748538Y-45548603D01*
X35577743Y-45521552D01*
X35413283Y-45468115D01*
X35259207Y-45389609D01*
X35119308Y-45287967D01*
X34997033Y-45165692D01*
X34895391Y-45025793D01*
X34816885Y-44871717D01*
X34763448Y-44707257D01*
X34736397Y-44536462D01*
X34736397Y-44363538D01*
X34763448Y-44192743D01*
X34816885Y-44028283D01*
X34895391Y-43874207D01*
X34997033Y-43734308D01*
X35119308Y-43612033D01*
X35259207Y-43510391D01*
X35413283Y-43431885D01*
X35577743Y-43378448D01*
X35748538Y-43351397D01*
X35921462Y-43351397D01*
X36092257Y-43378448D01*
G37*
G36*
X38632257Y-43378448D02*
G01*
X38796717Y-43431885D01*
X38950793Y-43510391D01*
X39090692Y-43612033D01*
X39212967Y-43734308D01*
X39314609Y-43874207D01*
X39393115Y-44028283D01*
X39446552Y-44192743D01*
X39473603Y-44363538D01*
X39473603Y-44536462D01*
X39446552Y-44707257D01*
X39393115Y-44871717D01*
X39314609Y-45025793D01*
X39212967Y-45165692D01*
X39090692Y-45287967D01*
X38950793Y-45389609D01*
X38796717Y-45468115D01*
X38632257Y-45521552D01*
X38461462Y-45548603D01*
X38288538Y-45548603D01*
X38117743Y-45521552D01*
X37953283Y-45468115D01*
X37799207Y-45389609D01*
X37659308Y-45287967D01*
X37537033Y-45165692D01*
X37435391Y-45025793D01*
X37356885Y-44871717D01*
X37303448Y-44707257D01*
X37276397Y-44536462D01*
X37276397Y-44363538D01*
X37303448Y-44192743D01*
X37356885Y-44028283D01*
X37435391Y-43874207D01*
X37537033Y-43734308D01*
X37659308Y-43612033D01*
X37799207Y-43510391D01*
X37953283Y-43431885D01*
X38117743Y-43378448D01*
X38288538Y-43351397D01*
X38461462Y-43351397D01*
X38632257Y-43378448D01*
G37*
G36*
X41172257Y-43378448D02*
G01*
X41336717Y-43431885D01*
X41490793Y-43510391D01*
X41630692Y-43612033D01*
X41752967Y-43734308D01*
X41854609Y-43874207D01*
X41933115Y-44028283D01*
X41986552Y-44192743D01*
X42013603Y-44363538D01*
X42013603Y-44536462D01*
X41986552Y-44707257D01*
X41933115Y-44871717D01*
X41854609Y-45025793D01*
X41752967Y-45165692D01*
X41630692Y-45287967D01*
X41490793Y-45389609D01*
X41336717Y-45468115D01*
X41172257Y-45521552D01*
X41001462Y-45548603D01*
X40828538Y-45548603D01*
X40657743Y-45521552D01*
X40493283Y-45468115D01*
X40339207Y-45389609D01*
X40199308Y-45287967D01*
X40077033Y-45165692D01*
X39975391Y-45025793D01*
X39896885Y-44871717D01*
X39843448Y-44707257D01*
X39816397Y-44536462D01*
X39816397Y-44363538D01*
X39843448Y-44192743D01*
X39896885Y-44028283D01*
X39975391Y-43874207D01*
X40077033Y-43734308D01*
X40199308Y-43612033D01*
X40339207Y-43510391D01*
X40493283Y-43431885D01*
X40657743Y-43378448D01*
X40828538Y-43351397D01*
X41001462Y-43351397D01*
X41172257Y-43378448D01*
G37*
G36*
X43712257Y-43378448D02*
G01*
X43876717Y-43431885D01*
X44030793Y-43510391D01*
X44170692Y-43612033D01*
X44292967Y-43734308D01*
X44394609Y-43874207D01*
X44473115Y-44028283D01*
X44526552Y-44192743D01*
X44553603Y-44363538D01*
X44553603Y-44536462D01*
X44526552Y-44707257D01*
X44473115Y-44871717D01*
X44394609Y-45025793D01*
X44292967Y-45165692D01*
X44170692Y-45287967D01*
X44030793Y-45389609D01*
X43876717Y-45468115D01*
X43712257Y-45521552D01*
X43541462Y-45548603D01*
X43368538Y-45548603D01*
X43197743Y-45521552D01*
X43033283Y-45468115D01*
X42879207Y-45389609D01*
X42739308Y-45287967D01*
X42617033Y-45165692D01*
X42515391Y-45025793D01*
X42436885Y-44871717D01*
X42383448Y-44707257D01*
X42356397Y-44536462D01*
X42356397Y-44363538D01*
X42383448Y-44192743D01*
X42436885Y-44028283D01*
X42515391Y-43874207D01*
X42617033Y-43734308D01*
X42739308Y-43612033D01*
X42879207Y-43510391D01*
X43033283Y-43431885D01*
X43197743Y-43378448D01*
X43368538Y-43351397D01*
X43541462Y-43351397D01*
X43712257Y-43378448D01*
G37*
G36*
X46252257Y-43378448D02*
G01*
X46416717Y-43431885D01*
X46570793Y-43510391D01*
X46710692Y-43612033D01*
X46832967Y-43734308D01*
X46934609Y-43874207D01*
X47013115Y-44028283D01*
X47066552Y-44192743D01*
X47093603Y-44363538D01*
X47093603Y-44536462D01*
X47066552Y-44707257D01*
X47013115Y-44871717D01*
X46934609Y-45025793D01*
X46832967Y-45165692D01*
X46710692Y-45287967D01*
X46570793Y-45389609D01*
X46416717Y-45468115D01*
X46252257Y-45521552D01*
X46081462Y-45548603D01*
X45908538Y-45548603D01*
X45737743Y-45521552D01*
X45573283Y-45468115D01*
X45419207Y-45389609D01*
X45279308Y-45287967D01*
X45157033Y-45165692D01*
X45055391Y-45025793D01*
X44976885Y-44871717D01*
X44923448Y-44707257D01*
X44896397Y-44536462D01*
X44896397Y-44363538D01*
X44923448Y-44192743D01*
X44976885Y-44028283D01*
X45055391Y-43874207D01*
X45157033Y-43734308D01*
X45279308Y-43612033D01*
X45419207Y-43510391D01*
X45573283Y-43431885D01*
X45737743Y-43378448D01*
X45908538Y-43351397D01*
X46081462Y-43351397D01*
X46252257Y-43378448D01*
G37*
G36*
X48792257Y-43378448D02*
G01*
X48956717Y-43431885D01*
X49110793Y-43510391D01*
X49250692Y-43612033D01*
X49372967Y-43734308D01*
X49474609Y-43874207D01*
X49553115Y-44028283D01*
X49606552Y-44192743D01*
X49633603Y-44363538D01*
X49633603Y-44536462D01*
X49606552Y-44707257D01*
X49553115Y-44871717D01*
X49474609Y-45025793D01*
X49372967Y-45165692D01*
X49250692Y-45287967D01*
X49110793Y-45389609D01*
X48956717Y-45468115D01*
X48792257Y-45521552D01*
X48621462Y-45548603D01*
X48448538Y-45548603D01*
X48277743Y-45521552D01*
X48113283Y-45468115D01*
X47959207Y-45389609D01*
X47819308Y-45287967D01*
X47697033Y-45165692D01*
X47595391Y-45025793D01*
X47516885Y-44871717D01*
X47463448Y-44707257D01*
X47436397Y-44536462D01*
X47436397Y-44363538D01*
X47463448Y-44192743D01*
X47516885Y-44028283D01*
X47595391Y-43874207D01*
X47697033Y-43734308D01*
X47819308Y-43612033D01*
X47959207Y-43510391D01*
X48113283Y-43431885D01*
X48277743Y-43378448D01*
X48448538Y-43351397D01*
X48621462Y-43351397D01*
X48792257Y-43378448D01*
G37*
G36*
X51332257Y-43378448D02*
G01*
X51496717Y-43431885D01*
X51650793Y-43510391D01*
X51790692Y-43612033D01*
X51912967Y-43734308D01*
X52014609Y-43874207D01*
X52093115Y-44028283D01*
X52146552Y-44192743D01*
X52173603Y-44363538D01*
X52173603Y-44536462D01*
X52146552Y-44707257D01*
X52093115Y-44871717D01*
X52014609Y-45025793D01*
X51912967Y-45165692D01*
X51790692Y-45287967D01*
X51650793Y-45389609D01*
X51496717Y-45468115D01*
X51332257Y-45521552D01*
X51161462Y-45548603D01*
X50988538Y-45548603D01*
X50817743Y-45521552D01*
X50653283Y-45468115D01*
X50499207Y-45389609D01*
X50359308Y-45287967D01*
X50237033Y-45165692D01*
X50135391Y-45025793D01*
X50056885Y-44871717D01*
X50003448Y-44707257D01*
X49976397Y-44536462D01*
X49976397Y-44363538D01*
X50003448Y-44192743D01*
X50056885Y-44028283D01*
X50135391Y-43874207D01*
X50237033Y-43734308D01*
X50359308Y-43612033D01*
X50499207Y-43510391D01*
X50653283Y-43431885D01*
X50817743Y-43378448D01*
X50988538Y-43351397D01*
X51161462Y-43351397D01*
X51332257Y-43378448D01*
G37*
G36*
X53872257Y-43378448D02*
G01*
X54036717Y-43431885D01*
X54190793Y-43510391D01*
X54330692Y-43612033D01*
X54452967Y-43734308D01*
X54554609Y-43874207D01*
X54633115Y-44028283D01*
X54686552Y-44192743D01*
X54713603Y-44363538D01*
X54713603Y-44536462D01*
X54686552Y-44707257D01*
X54633115Y-44871717D01*
X54554609Y-45025793D01*
X54452967Y-45165692D01*
X54330692Y-45287967D01*
X54190793Y-45389609D01*
X54036717Y-45468115D01*
X53872257Y-45521552D01*
X53701462Y-45548603D01*
X53528538Y-45548603D01*
X53357743Y-45521552D01*
X53193283Y-45468115D01*
X53039207Y-45389609D01*
X52899308Y-45287967D01*
X52777033Y-45165692D01*
X52675391Y-45025793D01*
X52596885Y-44871717D01*
X52543448Y-44707257D01*
X52516397Y-44536462D01*
X52516397Y-44363538D01*
X52543448Y-44192743D01*
X52596885Y-44028283D01*
X52675391Y-43874207D01*
X52777033Y-43734308D01*
X52899308Y-43612033D01*
X53039207Y-43510391D01*
X53193283Y-43431885D01*
X53357743Y-43378448D01*
X53528538Y-43351397D01*
X53701462Y-43351397D01*
X53872257Y-43378448D01*
G37*
G36*
X84630000Y-43580000D02*
G01*
X82930000Y-43580000D01*
X82930000Y-41880000D01*
X84630000Y-41880000D01*
X84630000Y-43580000D01*
G37*
G36*
X86566742Y-41916601D02*
G01*
X86720687Y-41980367D01*
X86859234Y-42072941D01*
X86977059Y-42190766D01*
X87069633Y-42329313D01*
X87133399Y-42483258D01*
X87165907Y-42646685D01*
X87165907Y-42813315D01*
X87133399Y-42976742D01*
X87069633Y-43130687D01*
X86977059Y-43269234D01*
X86859234Y-43387059D01*
X86720687Y-43479633D01*
X86566742Y-43543399D01*
X86403315Y-43575907D01*
X86236685Y-43575907D01*
X86073258Y-43543399D01*
X85919313Y-43479633D01*
X85780766Y-43387059D01*
X85662941Y-43269234D01*
X85570367Y-43130687D01*
X85506601Y-42976742D01*
X85474093Y-42813315D01*
X85474093Y-42646685D01*
X85506601Y-42483258D01*
X85570367Y-42329313D01*
X85662941Y-42190766D01*
X85780766Y-42072941D01*
X85919313Y-41980367D01*
X86073258Y-41916601D01*
X86236685Y-41884093D01*
X86403315Y-41884093D01*
X86566742Y-41916601D01*
G37*
G36*
X89106742Y-41916601D02*
G01*
X89260687Y-41980367D01*
X89399234Y-42072941D01*
X89517059Y-42190766D01*
X89609633Y-42329313D01*
X89673399Y-42483258D01*
X89705907Y-42646685D01*
X89705907Y-42813315D01*
X89673399Y-42976742D01*
X89609633Y-43130687D01*
X89517059Y-43269234D01*
X89399234Y-43387059D01*
X89260687Y-43479633D01*
X89106742Y-43543399D01*
X88943315Y-43575907D01*
X88776685Y-43575907D01*
X88613258Y-43543399D01*
X88459313Y-43479633D01*
X88320766Y-43387059D01*
X88202941Y-43269234D01*
X88110367Y-43130687D01*
X88046601Y-42976742D01*
X88014093Y-42813315D01*
X88014093Y-42646685D01*
X88046601Y-42483258D01*
X88110367Y-42329313D01*
X88202941Y-42190766D01*
X88320766Y-42072941D01*
X88459313Y-41980367D01*
X88613258Y-41916601D01*
X88776685Y-41884093D01*
X88943315Y-41884093D01*
X89106742Y-41916601D01*
G37*
G36*
X74033513Y-40354208D02*
G01*
X74272293Y-40431793D01*
X74495998Y-40545776D01*
X74699117Y-40693350D01*
X74876650Y-40870883D01*
X75024224Y-41074002D01*
X75138207Y-41297707D01*
X75215792Y-41536487D01*
X75255068Y-41784465D01*
X75255068Y-42035535D01*
X75215792Y-42283513D01*
X75138207Y-42522293D01*
X75024224Y-42745998D01*
X74876650Y-42949117D01*
X74699117Y-43126650D01*
X74495998Y-43274224D01*
X74272293Y-43388207D01*
X74033513Y-43465792D01*
X73785535Y-43505068D01*
X73534465Y-43505068D01*
X73286487Y-43465792D01*
X73047707Y-43388207D01*
X72824002Y-43274224D01*
X72620883Y-43126650D01*
X72443350Y-42949117D01*
X72295776Y-42745998D01*
X72181793Y-42522293D01*
X72104208Y-42283513D01*
X72064932Y-42035535D01*
X72064932Y-41784465D01*
X72104208Y-41536487D01*
X72181793Y-41297707D01*
X72295776Y-41074002D01*
X72443350Y-40870883D01*
X72620883Y-40693350D01*
X72824002Y-40545776D01*
X73047707Y-40431793D01*
X73286487Y-40354208D01*
X73534465Y-40314932D01*
X73785535Y-40314932D01*
X74033513Y-40354208D01*
G37*
G36*
X45946742Y-38126601D02*
G01*
X46100687Y-38190367D01*
X46239234Y-38282941D01*
X46357059Y-38400766D01*
X46449633Y-38539313D01*
X46513399Y-38693258D01*
X46545907Y-38856685D01*
X46545907Y-39023315D01*
X46513399Y-39186742D01*
X46449633Y-39340687D01*
X46357059Y-39479234D01*
X46239234Y-39597059D01*
X46100687Y-39689633D01*
X45946742Y-39753399D01*
X45783315Y-39785907D01*
X45616685Y-39785907D01*
X45453258Y-39753399D01*
X45299313Y-39689633D01*
X45160766Y-39597059D01*
X45042941Y-39479234D01*
X44950367Y-39340687D01*
X44886601Y-39186742D01*
X44854093Y-39023315D01*
X44854093Y-38856685D01*
X44886601Y-38693258D01*
X44950367Y-38539313D01*
X45042941Y-38400766D01*
X45160766Y-38282941D01*
X45299313Y-38190367D01*
X45453258Y-38126601D01*
X45616685Y-38094093D01*
X45783315Y-38094093D01*
X45946742Y-38126601D01*
G37*
G36*
X18153513Y-36544208D02*
G01*
X18392293Y-36621793D01*
X18615998Y-36735776D01*
X18819117Y-36883350D01*
X18996650Y-37060883D01*
X19144224Y-37264002D01*
X19258207Y-37487707D01*
X19335792Y-37726487D01*
X19375068Y-37974465D01*
X19375068Y-38225535D01*
X19335792Y-38473513D01*
X19258207Y-38712293D01*
X19144224Y-38935998D01*
X18996650Y-39139117D01*
X18819117Y-39316650D01*
X18615998Y-39464224D01*
X18392293Y-39578207D01*
X18153513Y-39655792D01*
X17905535Y-39695068D01*
X17654465Y-39695068D01*
X17406487Y-39655792D01*
X17167707Y-39578207D01*
X16944002Y-39464224D01*
X16740883Y-39316650D01*
X16563350Y-39139117D01*
X16415776Y-38935998D01*
X16301793Y-38712293D01*
X16224208Y-38473513D01*
X16184932Y-38225535D01*
X16184932Y-37974465D01*
X16224208Y-37726487D01*
X16301793Y-37487707D01*
X16415776Y-37264002D01*
X16563350Y-37060883D01*
X16740883Y-36883350D01*
X16944002Y-36735776D01*
X17167707Y-36621793D01*
X17406487Y-36544208D01*
X17654465Y-36504932D01*
X17905535Y-36504932D01*
X18153513Y-36544208D01*
G37*
G36*
X84630000Y-38990000D02*
G01*
X82930000Y-38990000D01*
X82930000Y-37290000D01*
X84630000Y-37290000D01*
X84630000Y-38990000D01*
G37*
G36*
X86566742Y-37326601D02*
G01*
X86720687Y-37390367D01*
X86859234Y-37482941D01*
X86977059Y-37600766D01*
X87069633Y-37739313D01*
X87133399Y-37893258D01*
X87165907Y-38056685D01*
X87165907Y-38223315D01*
X87133399Y-38386742D01*
X87069633Y-38540687D01*
X86977059Y-38679234D01*
X86859234Y-38797059D01*
X86720687Y-38889633D01*
X86566742Y-38953399D01*
X86403315Y-38985907D01*
X86236685Y-38985907D01*
X86073258Y-38953399D01*
X85919313Y-38889633D01*
X85780766Y-38797059D01*
X85662941Y-38679234D01*
X85570367Y-38540687D01*
X85506601Y-38386742D01*
X85474093Y-38223315D01*
X85474093Y-38056685D01*
X85506601Y-37893258D01*
X85570367Y-37739313D01*
X85662941Y-37600766D01*
X85780766Y-37482941D01*
X85919313Y-37390367D01*
X86073258Y-37326601D01*
X86236685Y-37294093D01*
X86403315Y-37294093D01*
X86566742Y-37326601D01*
G37*
G36*
X89106742Y-37326601D02*
G01*
X89260687Y-37390367D01*
X89399234Y-37482941D01*
X89517059Y-37600766D01*
X89609633Y-37739313D01*
X89673399Y-37893258D01*
X89705907Y-38056685D01*
X89705907Y-38223315D01*
X89673399Y-38386742D01*
X89609633Y-38540687D01*
X89517059Y-38679234D01*
X89399234Y-38797059D01*
X89260687Y-38889633D01*
X89106742Y-38953399D01*
X88943315Y-38985907D01*
X88776685Y-38985907D01*
X88613258Y-38953399D01*
X88459313Y-38889633D01*
X88320766Y-38797059D01*
X88202941Y-38679234D01*
X88110367Y-38540687D01*
X88046601Y-38386742D01*
X88014093Y-38223315D01*
X88014093Y-38056685D01*
X88046601Y-37893258D01*
X88110367Y-37739313D01*
X88202941Y-37600766D01*
X88320766Y-37482941D01*
X88459313Y-37390367D01*
X88613258Y-37326601D01*
X88776685Y-37294093D01*
X88943315Y-37294093D01*
X89106742Y-37326601D01*
G37*
G36*
X45946742Y-35586601D02*
G01*
X46100687Y-35650367D01*
X46239234Y-35742941D01*
X46357059Y-35860766D01*
X46449633Y-35999313D01*
X46513399Y-36153258D01*
X46545907Y-36316685D01*
X46545907Y-36483315D01*
X46513399Y-36646742D01*
X46449633Y-36800687D01*
X46357059Y-36939234D01*
X46239234Y-37057059D01*
X46100687Y-37149633D01*
X45946742Y-37213399D01*
X45783315Y-37245907D01*
X45616685Y-37245907D01*
X45453258Y-37213399D01*
X45299313Y-37149633D01*
X45160766Y-37057059D01*
X45042941Y-36939234D01*
X44950367Y-36800687D01*
X44886601Y-36646742D01*
X44854093Y-36483315D01*
X44854093Y-36316685D01*
X44886601Y-36153258D01*
X44950367Y-35999313D01*
X45042941Y-35860766D01*
X45160766Y-35742941D01*
X45299313Y-35650367D01*
X45453258Y-35586601D01*
X45616685Y-35554093D01*
X45783315Y-35554093D01*
X45946742Y-35586601D01*
G37*
G36*
X65946742Y-35586601D02*
G01*
X66100687Y-35650367D01*
X66239234Y-35742941D01*
X66357059Y-35860766D01*
X66449633Y-35999313D01*
X66513399Y-36153258D01*
X66545907Y-36316685D01*
X66545907Y-36483315D01*
X66513399Y-36646742D01*
X66449633Y-36800687D01*
X66357059Y-36939234D01*
X66239234Y-37057059D01*
X66100687Y-37149633D01*
X65946742Y-37213399D01*
X65783315Y-37245907D01*
X65616685Y-37245907D01*
X65453258Y-37213399D01*
X65299313Y-37149633D01*
X65160766Y-37057059D01*
X65042941Y-36939234D01*
X64950367Y-36800687D01*
X64886601Y-36646742D01*
X64854093Y-36483315D01*
X64854093Y-36316685D01*
X64886601Y-36153258D01*
X64950367Y-35999313D01*
X65042941Y-35860766D01*
X65160766Y-35742941D01*
X65299313Y-35650367D01*
X65453258Y-35586601D01*
X65616685Y-35554093D01*
X65783315Y-35554093D01*
X65946742Y-35586601D01*
G37*
G36*
X45946742Y-33046601D02*
G01*
X46100687Y-33110367D01*
X46239234Y-33202941D01*
X46357059Y-33320766D01*
X46449633Y-33459313D01*
X46513399Y-33613258D01*
X46545907Y-33776685D01*
X46545907Y-33943315D01*
X46513399Y-34106742D01*
X46449633Y-34260687D01*
X46357059Y-34399234D01*
X46239234Y-34517059D01*
X46100687Y-34609633D01*
X45946742Y-34673399D01*
X45783315Y-34705907D01*
X45616685Y-34705907D01*
X45453258Y-34673399D01*
X45299313Y-34609633D01*
X45160766Y-34517059D01*
X45042941Y-34399234D01*
X44950367Y-34260687D01*
X44886601Y-34106742D01*
X44854093Y-33943315D01*
X44854093Y-33776685D01*
X44886601Y-33613258D01*
X44950367Y-33459313D01*
X45042941Y-33320766D01*
X45160766Y-33202941D01*
X45299313Y-33110367D01*
X45453258Y-33046601D01*
X45616685Y-33014093D01*
X45783315Y-33014093D01*
X45946742Y-33046601D01*
G37*
G36*
X65946742Y-33046601D02*
G01*
X66100687Y-33110367D01*
X66239234Y-33202941D01*
X66357059Y-33320766D01*
X66449633Y-33459313D01*
X66513399Y-33613258D01*
X66545907Y-33776685D01*
X66545907Y-33943315D01*
X66513399Y-34106742D01*
X66449633Y-34260687D01*
X66357059Y-34399234D01*
X66239234Y-34517059D01*
X66100687Y-34609633D01*
X65946742Y-34673399D01*
X65783315Y-34705907D01*
X65616685Y-34705907D01*
X65453258Y-34673399D01*
X65299313Y-34609633D01*
X65160766Y-34517059D01*
X65042941Y-34399234D01*
X64950367Y-34260687D01*
X64886601Y-34106742D01*
X64854093Y-33943315D01*
X64854093Y-33776685D01*
X64886601Y-33613258D01*
X64950367Y-33459313D01*
X65042941Y-33320766D01*
X65160766Y-33202941D01*
X65299313Y-33110367D01*
X65453258Y-33046601D01*
X65616685Y-33014093D01*
X65783315Y-33014093D01*
X65946742Y-33046601D01*
G37*
G36*
X70056828Y-33027248D02*
G01*
X70201717Y-33087263D01*
X70332115Y-33174392D01*
X70443008Y-33285285D01*
X70530137Y-33415683D01*
X70590152Y-33560572D01*
X70620748Y-33714386D01*
X70620748Y-33871214D01*
X70590152Y-34025028D01*
X70530137Y-34169917D01*
X70443008Y-34300315D01*
X70332115Y-34411208D01*
X70201717Y-34498337D01*
X70056828Y-34558352D01*
X69903014Y-34588948D01*
X69746186Y-34588948D01*
X69592372Y-34558352D01*
X69447483Y-34498337D01*
X69317085Y-34411208D01*
X69206192Y-34300315D01*
X69119063Y-34169917D01*
X69059048Y-34025028D01*
X69028452Y-33871214D01*
X69028452Y-33714386D01*
X69059048Y-33560572D01*
X69119063Y-33415683D01*
X69206192Y-33285285D01*
X69317085Y-33174392D01*
X69447483Y-33087263D01*
X69592372Y-33027248D01*
X69746186Y-32996652D01*
X69903014Y-32996652D01*
X70056828Y-33027248D01*
G37*
G36*
X45946742Y-30506601D02*
G01*
X46100687Y-30570367D01*
X46239234Y-30662941D01*
X46357059Y-30780766D01*
X46449633Y-30919313D01*
X46513399Y-31073258D01*
X46545907Y-31236685D01*
X46545907Y-31403315D01*
X46513399Y-31566742D01*
X46449633Y-31720687D01*
X46357059Y-31859234D01*
X46239234Y-31977059D01*
X46100687Y-32069633D01*
X45946742Y-32133399D01*
X45783315Y-32165907D01*
X45616685Y-32165907D01*
X45453258Y-32133399D01*
X45299313Y-32069633D01*
X45160766Y-31977059D01*
X45042941Y-31859234D01*
X44950367Y-31720687D01*
X44886601Y-31566742D01*
X44854093Y-31403315D01*
X44854093Y-31236685D01*
X44886601Y-31073258D01*
X44950367Y-30919313D01*
X45042941Y-30780766D01*
X45160766Y-30662941D01*
X45299313Y-30570367D01*
X45453258Y-30506601D01*
X45616685Y-30474093D01*
X45783315Y-30474093D01*
X45946742Y-30506601D01*
G37*
G36*
X65946742Y-30506601D02*
G01*
X66100687Y-30570367D01*
X66239234Y-30662941D01*
X66357059Y-30780766D01*
X66449633Y-30919313D01*
X66513399Y-31073258D01*
X66545907Y-31236685D01*
X66545907Y-31403315D01*
X66513399Y-31566742D01*
X66449633Y-31720687D01*
X66357059Y-31859234D01*
X66239234Y-31977059D01*
X66100687Y-32069633D01*
X65946742Y-32133399D01*
X65783315Y-32165907D01*
X65616685Y-32165907D01*
X65453258Y-32133399D01*
X65299313Y-32069633D01*
X65160766Y-31977059D01*
X65042941Y-31859234D01*
X64950367Y-31720687D01*
X64886601Y-31566742D01*
X64854093Y-31403315D01*
X64854093Y-31236685D01*
X64886601Y-31073258D01*
X64950367Y-30919313D01*
X65042941Y-30780766D01*
X65160766Y-30662941D01*
X65299313Y-30570367D01*
X65453258Y-30506601D01*
X65616685Y-30474093D01*
X65783315Y-30474093D01*
X65946742Y-30506601D01*
G37*
G36*
X82364000Y-30960000D02*
G01*
X78864000Y-30960000D01*
X78864000Y-27460000D01*
X82364000Y-27460000D01*
X82364000Y-30960000D01*
G37*
G36*
X87515663Y-27475495D02*
G01*
X87524419Y-27478396D01*
X87530822Y-27479118D01*
X87606291Y-27505525D01*
X87680964Y-27530269D01*
X87686154Y-27533470D01*
X87689271Y-27534561D01*
X87761372Y-27579865D01*
X87829177Y-27621688D01*
X87831281Y-27623792D01*
X87831419Y-27623879D01*
X87950120Y-27742580D01*
X87950206Y-27742717D01*
X87952312Y-27744823D01*
X87994154Y-27812659D01*
X88039438Y-27884728D01*
X88040528Y-27887843D01*
X88043731Y-27893036D01*
X88068486Y-27967743D01*
X88094881Y-28043177D01*
X88095601Y-28049576D01*
X88098505Y-28058337D01*
X88114000Y-28210000D01*
X88114000Y-30210000D01*
X88098505Y-30361663D01*
X88095601Y-30370424D01*
X88094881Y-30376822D01*
X88068492Y-30452237D01*
X88043731Y-30526964D01*
X88040527Y-30532158D01*
X88039438Y-30535271D01*
X87994187Y-30607285D01*
X87952312Y-30675177D01*
X87950204Y-30677284D01*
X87950120Y-30677419D01*
X87831419Y-30796120D01*
X87831284Y-30796204D01*
X87829177Y-30798312D01*
X87761285Y-30840187D01*
X87689271Y-30885438D01*
X87686158Y-30886527D01*
X87680964Y-30889731D01*
X87606237Y-30914492D01*
X87530822Y-30940881D01*
X87524424Y-30941601D01*
X87515663Y-30944505D01*
X87364000Y-30960000D01*
X85864000Y-30960000D01*
X85712337Y-30944505D01*
X85703576Y-30941601D01*
X85697177Y-30940881D01*
X85621743Y-30914486D01*
X85547036Y-30889731D01*
X85541843Y-30886528D01*
X85538728Y-30885438D01*
X85466659Y-30840154D01*
X85398823Y-30798312D01*
X85396717Y-30796206D01*
X85396580Y-30796120D01*
X85277879Y-30677419D01*
X85277792Y-30677281D01*
X85275688Y-30675177D01*
X85233865Y-30607372D01*
X85188561Y-30535271D01*
X85187470Y-30532154D01*
X85184269Y-30526964D01*
X85159525Y-30452291D01*
X85133118Y-30376822D01*
X85132396Y-30370419D01*
X85129495Y-30361663D01*
X85114000Y-30210000D01*
X85114000Y-28210000D01*
X85129495Y-28058337D01*
X85132396Y-28049580D01*
X85133118Y-28043177D01*
X85159531Y-27967689D01*
X85184269Y-27893036D01*
X85187469Y-27887846D01*
X85188561Y-27884728D01*
X85233899Y-27812572D01*
X85275688Y-27744823D01*
X85277791Y-27742719D01*
X85277879Y-27742580D01*
X85396580Y-27623879D01*
X85396719Y-27623791D01*
X85398823Y-27621688D01*
X85466572Y-27579899D01*
X85538728Y-27534561D01*
X85541846Y-27533469D01*
X85547036Y-27530269D01*
X85621689Y-27505531D01*
X85697177Y-27479118D01*
X85703580Y-27478396D01*
X85712337Y-27475495D01*
X85864000Y-27460000D01*
X87364000Y-27460000D01*
X87515663Y-27475495D01*
G37*
G36*
X36614116Y-27910818D02*
G01*
X36665379Y-27916766D01*
X36682892Y-27924499D01*
X36705671Y-27929030D01*
X36730057Y-27945324D01*
X36750788Y-27954478D01*
X36764946Y-27968636D01*
X36786777Y-27983223D01*
X36801363Y-28005053D01*
X36815521Y-28019211D01*
X36824673Y-28039939D01*
X36840970Y-28064329D01*
X36845501Y-28087109D01*
X36853233Y-28104620D01*
X36859178Y-28155872D01*
X36860000Y-28160000D01*
X36860000Y-30260000D01*
X36859178Y-30264128D01*
X36853233Y-30315379D01*
X36845501Y-30332888D01*
X36840970Y-30355671D01*
X36824672Y-30380062D01*
X36815521Y-30400788D01*
X36801365Y-30414943D01*
X36786777Y-30436777D01*
X36764943Y-30451365D01*
X36750788Y-30465521D01*
X36730062Y-30474672D01*
X36705671Y-30490970D01*
X36682888Y-30495501D01*
X36665379Y-30503233D01*
X36614129Y-30509178D01*
X36610000Y-30510000D01*
X34510000Y-30510000D01*
X34505873Y-30509179D01*
X34454620Y-30503233D01*
X34437109Y-30495501D01*
X34414329Y-30490970D01*
X34389939Y-30474673D01*
X34369211Y-30465521D01*
X34355053Y-30451363D01*
X34333223Y-30436777D01*
X34318636Y-30414946D01*
X34304478Y-30400788D01*
X34295324Y-30380057D01*
X34279030Y-30355671D01*
X34274499Y-30332892D01*
X34266766Y-30315379D01*
X34260818Y-30264117D01*
X34260000Y-30260000D01*
X34260000Y-28160000D01*
X34260818Y-28155885D01*
X34266766Y-28104620D01*
X34274499Y-28087105D01*
X34279030Y-28064329D01*
X34295323Y-28039944D01*
X34304478Y-28019211D01*
X34318638Y-28005050D01*
X34333223Y-27983223D01*
X34355050Y-27968638D01*
X34369211Y-27954478D01*
X34389944Y-27945323D01*
X34414329Y-27929030D01*
X34437105Y-27924499D01*
X34454620Y-27916766D01*
X34505884Y-27910818D01*
X34510000Y-27910000D01*
X36610000Y-27910000D01*
X36614116Y-27910818D01*
G37*
G36*
X30863479Y-27945919D02*
G01*
X31057488Y-28008957D01*
X31239248Y-28101568D01*
X31404282Y-28221472D01*
X31548528Y-28365718D01*
X31668432Y-28530752D01*
X31761043Y-28712512D01*
X31824081Y-28906521D01*
X31855993Y-29108003D01*
X31855993Y-29311997D01*
X31824081Y-29513479D01*
X31761043Y-29707488D01*
X31668432Y-29889248D01*
X31548528Y-30054282D01*
X31404282Y-30198528D01*
X31239248Y-30318432D01*
X31057488Y-30411043D01*
X30863479Y-30474081D01*
X30661997Y-30505993D01*
X30458003Y-30505993D01*
X30256521Y-30474081D01*
X30062512Y-30411043D01*
X29880752Y-30318432D01*
X29715718Y-30198528D01*
X29571472Y-30054282D01*
X29451568Y-29889248D01*
X29358957Y-29707488D01*
X29295919Y-29513479D01*
X29264007Y-29311997D01*
X29264007Y-29108003D01*
X29295919Y-28906521D01*
X29358957Y-28712512D01*
X29451568Y-28530752D01*
X29571472Y-28365718D01*
X29715718Y-28221472D01*
X29880752Y-28101568D01*
X30062512Y-28008957D01*
X30256521Y-27945919D01*
X30458003Y-27914007D01*
X30661997Y-27914007D01*
X30863479Y-27945919D01*
G37*
G36*
X25154116Y-27900818D02*
G01*
X25205379Y-27906766D01*
X25222892Y-27914499D01*
X25245671Y-27919030D01*
X25270057Y-27935324D01*
X25290788Y-27944478D01*
X25304946Y-27958636D01*
X25326777Y-27973223D01*
X25341363Y-27995053D01*
X25355521Y-28009211D01*
X25364673Y-28029939D01*
X25380970Y-28054329D01*
X25385501Y-28077109D01*
X25393233Y-28094620D01*
X25399178Y-28145872D01*
X25400000Y-28150000D01*
X25400000Y-30250000D01*
X25399178Y-30254128D01*
X25393233Y-30305379D01*
X25385501Y-30322888D01*
X25380970Y-30345671D01*
X25364672Y-30370062D01*
X25355521Y-30390788D01*
X25341365Y-30404943D01*
X25326777Y-30426777D01*
X25304943Y-30441365D01*
X25290788Y-30455521D01*
X25270062Y-30464672D01*
X25245671Y-30480970D01*
X25222888Y-30485501D01*
X25205379Y-30493233D01*
X25154129Y-30499178D01*
X25150000Y-30500000D01*
X23050000Y-30500000D01*
X23045873Y-30499179D01*
X22994620Y-30493233D01*
X22977109Y-30485501D01*
X22954329Y-30480970D01*
X22929939Y-30464673D01*
X22909211Y-30455521D01*
X22895053Y-30441363D01*
X22873223Y-30426777D01*
X22858636Y-30404946D01*
X22844478Y-30390788D01*
X22835324Y-30370057D01*
X22819030Y-30345671D01*
X22814499Y-30322892D01*
X22806766Y-30305379D01*
X22800818Y-30254117D01*
X22800000Y-30250000D01*
X22800000Y-28150000D01*
X22800818Y-28145885D01*
X22806766Y-28094620D01*
X22814499Y-28077105D01*
X22819030Y-28054329D01*
X22835323Y-28029944D01*
X22844478Y-28009211D01*
X22858638Y-27995050D01*
X22873223Y-27973223D01*
X22895050Y-27958638D01*
X22909211Y-27944478D01*
X22929944Y-27935323D01*
X22954329Y-27919030D01*
X22977105Y-27914499D01*
X22994620Y-27906766D01*
X23045884Y-27900818D01*
X23050000Y-27900000D01*
X25150000Y-27900000D01*
X25154116Y-27900818D01*
G37*
G36*
X19403479Y-27935919D02*
G01*
X19597488Y-27998957D01*
X19779248Y-28091568D01*
X19944282Y-28211472D01*
X20088528Y-28355718D01*
X20208432Y-28520752D01*
X20301043Y-28702512D01*
X20364081Y-28896521D01*
X20395993Y-29098003D01*
X20395993Y-29301997D01*
X20364081Y-29503479D01*
X20301043Y-29697488D01*
X20208432Y-29879248D01*
X20088528Y-30044282D01*
X19944282Y-30188528D01*
X19779248Y-30308432D01*
X19597488Y-30401043D01*
X19403479Y-30464081D01*
X19201997Y-30495993D01*
X18998003Y-30495993D01*
X18796521Y-30464081D01*
X18602512Y-30401043D01*
X18420752Y-30308432D01*
X18255718Y-30188528D01*
X18111472Y-30044282D01*
X17991568Y-29879248D01*
X17898957Y-29697488D01*
X17835919Y-29503479D01*
X17804007Y-29301997D01*
X17804007Y-29098003D01*
X17835919Y-28896521D01*
X17898957Y-28702512D01*
X17991568Y-28520752D01*
X18111472Y-28355718D01*
X18255718Y-28211472D01*
X18420752Y-28091568D01*
X18602512Y-27998957D01*
X18796521Y-27935919D01*
X18998003Y-27904007D01*
X19201997Y-27904007D01*
X19403479Y-27935919D01*
G37*
G36*
X45946742Y-27966601D02*
G01*
X46100687Y-28030367D01*
X46239234Y-28122941D01*
X46357059Y-28240766D01*
X46449633Y-28379313D01*
X46513399Y-28533258D01*
X46545907Y-28696685D01*
X46545907Y-28863315D01*
X46513399Y-29026742D01*
X46449633Y-29180687D01*
X46357059Y-29319234D01*
X46239234Y-29437059D01*
X46100687Y-29529633D01*
X45946742Y-29593399D01*
X45783315Y-29625907D01*
X45616685Y-29625907D01*
X45453258Y-29593399D01*
X45299313Y-29529633D01*
X45160766Y-29437059D01*
X45042941Y-29319234D01*
X44950367Y-29180687D01*
X44886601Y-29026742D01*
X44854093Y-28863315D01*
X44854093Y-28696685D01*
X44886601Y-28533258D01*
X44950367Y-28379313D01*
X45042941Y-28240766D01*
X45160766Y-28122941D01*
X45299313Y-28030367D01*
X45453258Y-27966601D01*
X45616685Y-27934093D01*
X45783315Y-27934093D01*
X45946742Y-27966601D01*
G37*
G36*
X65946742Y-27966601D02*
G01*
X66100687Y-28030367D01*
X66239234Y-28122941D01*
X66357059Y-28240766D01*
X66449633Y-28379313D01*
X66513399Y-28533258D01*
X66545907Y-28696685D01*
X66545907Y-28863315D01*
X66513399Y-29026742D01*
X66449633Y-29180687D01*
X66357059Y-29319234D01*
X66239234Y-29437059D01*
X66100687Y-29529633D01*
X65946742Y-29593399D01*
X65783315Y-29625907D01*
X65616685Y-29625907D01*
X65453258Y-29593399D01*
X65299313Y-29529633D01*
X65160766Y-29437059D01*
X65042941Y-29319234D01*
X64950367Y-29180687D01*
X64886601Y-29026742D01*
X64854093Y-28863315D01*
X64854093Y-28696685D01*
X64886601Y-28533258D01*
X64950367Y-28379313D01*
X65042941Y-28240766D01*
X65160766Y-28122941D01*
X65299313Y-28030367D01*
X65453258Y-27966601D01*
X65616685Y-27934093D01*
X65783315Y-27934093D01*
X65946742Y-27966601D01*
G37*
G36*
X70056828Y-28027248D02*
G01*
X70201717Y-28087263D01*
X70332115Y-28174392D01*
X70443008Y-28285285D01*
X70530137Y-28415683D01*
X70590152Y-28560572D01*
X70620748Y-28714386D01*
X70620748Y-28871214D01*
X70590152Y-29025028D01*
X70530137Y-29169917D01*
X70443008Y-29300315D01*
X70332115Y-29411208D01*
X70201717Y-29498337D01*
X70056828Y-29558352D01*
X69903014Y-29588948D01*
X69746186Y-29588948D01*
X69592372Y-29558352D01*
X69447483Y-29498337D01*
X69317085Y-29411208D01*
X69206192Y-29300315D01*
X69119063Y-29169917D01*
X69059048Y-29025028D01*
X69028452Y-28871214D01*
X69028452Y-28714386D01*
X69059048Y-28560572D01*
X69119063Y-28415683D01*
X69206192Y-28285285D01*
X69317085Y-28174392D01*
X69447483Y-28087263D01*
X69592372Y-28027248D01*
X69746186Y-27996652D01*
X69903014Y-27996652D01*
X70056828Y-28027248D01*
G37*
G36*
X45946742Y-25426601D02*
G01*
X46100687Y-25490367D01*
X46239234Y-25582941D01*
X46357059Y-25700766D01*
X46449633Y-25839313D01*
X46513399Y-25993258D01*
X46545907Y-26156685D01*
X46545907Y-26323315D01*
X46513399Y-26486742D01*
X46449633Y-26640687D01*
X46357059Y-26779234D01*
X46239234Y-26897059D01*
X46100687Y-26989633D01*
X45946742Y-27053399D01*
X45783315Y-27085907D01*
X45616685Y-27085907D01*
X45453258Y-27053399D01*
X45299313Y-26989633D01*
X45160766Y-26897059D01*
X45042941Y-26779234D01*
X44950367Y-26640687D01*
X44886601Y-26486742D01*
X44854093Y-26323315D01*
X44854093Y-26156685D01*
X44886601Y-25993258D01*
X44950367Y-25839313D01*
X45042941Y-25700766D01*
X45160766Y-25582941D01*
X45299313Y-25490367D01*
X45453258Y-25426601D01*
X45616685Y-25394093D01*
X45783315Y-25394093D01*
X45946742Y-25426601D01*
G37*
G36*
X84607125Y-22768010D02*
G01*
X84615611Y-22770120D01*
X84625186Y-22770874D01*
X84709680Y-22793514D01*
X84790741Y-22813673D01*
X84797589Y-22817069D01*
X84802473Y-22818378D01*
X84884519Y-22860183D01*
X84960247Y-22897741D01*
X84963739Y-22900548D01*
X84965405Y-22901397D01*
X85047711Y-22968047D01*
X85107718Y-23016282D01*
X85155978Y-23076320D01*
X85222602Y-23158594D01*
X85223450Y-23160258D01*
X85226259Y-23163753D01*
X85263834Y-23239517D01*
X85305621Y-23321526D01*
X85306929Y-23326407D01*
X85310327Y-23333259D01*
X85330497Y-23414365D01*
X85353125Y-23498814D01*
X85353878Y-23508382D01*
X85355990Y-23516875D01*
X85364000Y-23635000D01*
X85364000Y-25385000D01*
X85355990Y-25503125D01*
X85353877Y-25511617D01*
X85353125Y-25521186D01*
X85330498Y-25605628D01*
X85310327Y-25686741D01*
X85306928Y-25693593D01*
X85305621Y-25698473D01*
X85263853Y-25780445D01*
X85226259Y-25856247D01*
X85223448Y-25859742D01*
X85222602Y-25861405D01*
X85156087Y-25943543D01*
X85107718Y-26003718D01*
X85047543Y-26052087D01*
X84965405Y-26118602D01*
X84963742Y-26119448D01*
X84960247Y-26122259D01*
X84884445Y-26159853D01*
X84802473Y-26201621D01*
X84797593Y-26202928D01*
X84790741Y-26206327D01*
X84709620Y-26226500D01*
X84625185Y-26249125D01*
X84615618Y-26249877D01*
X84607125Y-26251990D01*
X84489000Y-26260000D01*
X82739000Y-26260000D01*
X82620875Y-26251990D01*
X82612382Y-26249878D01*
X82602813Y-26249125D01*
X82518357Y-26226495D01*
X82437259Y-26206327D01*
X82430407Y-26202929D01*
X82425526Y-26201621D01*
X82343517Y-26159834D01*
X82267753Y-26122259D01*
X82264258Y-26119450D01*
X82262594Y-26118602D01*
X82180320Y-26051978D01*
X82120282Y-26003718D01*
X82072047Y-25943711D01*
X82005397Y-25861405D01*
X82004548Y-25859739D01*
X82001741Y-25856247D01*
X81964183Y-25780519D01*
X81922378Y-25698473D01*
X81921069Y-25693589D01*
X81917673Y-25686741D01*
X81897512Y-25605672D01*
X81874874Y-25521185D01*
X81874120Y-25511612D01*
X81872010Y-25503125D01*
X81864000Y-25385000D01*
X81864000Y-23635000D01*
X81872010Y-23516875D01*
X81874120Y-23508388D01*
X81874874Y-23498813D01*
X81897517Y-23414306D01*
X81917673Y-23333259D01*
X81921068Y-23326412D01*
X81922378Y-23321526D01*
X81964201Y-23239443D01*
X82001741Y-23163753D01*
X82004547Y-23160262D01*
X82005397Y-23158594D01*
X82072156Y-23076152D01*
X82120282Y-23016282D01*
X82180152Y-22968156D01*
X82262594Y-22901397D01*
X82264262Y-22900547D01*
X82267753Y-22897741D01*
X82343443Y-22860201D01*
X82425526Y-22818378D01*
X82430412Y-22817068D01*
X82437259Y-22813673D01*
X82518313Y-22793515D01*
X82602814Y-22770874D01*
X82612388Y-22770120D01*
X82620875Y-22768010D01*
X82739000Y-22760000D01*
X84489000Y-22760000D01*
X84607125Y-22768010D01*
G37*
M02*
